<svg xmlns="http://www.w3.org/2000/svg" viewBox="0 0 653.5 568.37"><defs><style>.cls-1{fill:#f0eacc;}.cls-2{fill:#040000;}.cls-3{fill:#88795f;}</style></defs><g id="레이어_2" data-name="레이어 2"><rect class="cls-1" width="653.5" height="568.37"/></g><g id="레이어_1" data-name="레이어 1"><path class="cls-2" d="M274.21,245.79a72.36,72.36,0,0,1,1.38-17.08q1.7-8.34,3.81-16.76a20.48,20.48,0,0,1,2.18-5.75,11.9,11.9,0,0,1,3.65-3.89,16.16,16.16,0,0,1,5.66-2.27,61.49,61.49,0,0,1,8.59-1v5.34q.31,9.07.48,17.9t.49,17.89a3,3,0,0,0,.89,2.11c.59.65,1.16,1.3,1.7,1.94a8.29,8.29,0,0,1,1.86-1.37,2.75,2.75,0,0,0,1.38-1.54q1-2.26,1.78-4.7a25.88,25.88,0,0,0,1.13-4.86q2.43-20.07,4.78-39.83t4.29-40a27.53,27.53,0,0,0-.56-9.15,15.45,15.45,0,0,0-5.1-8.17c-2.71-2.38-5.3-3.51-7.78-3.41s-4.48,1.52-6,4.22a6.78,6.78,0,0,0-1,3c-.11,1.14-.21,2.3-.32,3.48a46.41,46.41,0,0,0-.33,5.51,12.55,12.55,0,0,1-1,5,65,65,0,0,1-3.08,6.31,10.15,10.15,0,0,1-4.54,4.54q-4.86,2.27-9.49,4.78a34,34,0,0,0-8.35,6.39,14.36,14.36,0,0,1-1.87,1.87c-.7.59-1.48,1.32-2.35,2.18q-1.95-7.93-3.59-15.14T259.21,149A26.62,26.62,0,0,0,253,138.26c-2.39-2.48-4.77-3.62-7.15-3.4s-4.59,1.73-6.64,4.53a16.4,16.4,0,0,0-2.75,5.67,20.22,20.22,0,0,0-.65,6.24,18.12,18.12,0,0,0,1.38,6.07,12.1,12.1,0,0,0,3.64,4.86,11.06,11.06,0,0,1,3.24,4.21,26.63,26.63,0,0,1,1.3,4.86c.1,1,.21,1.91.32,2.83a28.2,28.2,0,0,0,.49,2.84,234.15,234.15,0,0,1,4.05,33.28q.81,16.59,0,33.44-.33,3.56-.57,7a49.36,49.36,0,0,0,0,6.88,35.21,35.21,0,0,0,1.14,6.73,18.76,18.76,0,0,0,3.18,6.39l.32.33c.11-.11.16-.19.16-.25s.06-.13.17-.24c1,.43,1.93.86,2.85,1.3a13.35,13.35,0,0,0,3,1,4.26,4.26,0,0,0,2.44-.08,5.07,5.07,0,0,0,2.12-1.22,30.19,30.19,0,0,0,7.34-11.9A39,39,0,0,0,274.21,245.79Z"/><path class="cls-2" d="M222.71,178.1a11.82,11.82,0,0,0-3.56-1.3l-21.37-2.91q-10.69-1.45-21.54-2.27a30.31,30.31,0,0,0-16.93,3.32q-7.2,4-11.25,13.2a10.61,10.61,0,0,0-.89,5.18,8.45,8.45,0,0,0,1.62,4.29,9.09,9.09,0,0,0,3.72,2.92,12.73,12.73,0,0,0,5.26,1.05q6-.32,11.83-.24t11.49.08a7.74,7.74,0,0,0,3.4-1l3.57-1.78a45.71,45.71,0,0,0-14.5,14.09A57,57,0,0,0,166,231.22q-1.78,7.93,1.87,13.36T179.64,252a37.15,37.15,0,0,0,6.88,1q3.48.17,7,.16a34.94,34.94,0,0,0,10.77-1.7,35.63,35.63,0,0,0,9.56-4.7,30.92,30.92,0,0,0,7.37-7.2,22.89,22.89,0,0,0,4.05-9.07q2.58-12.47-.17-21t-12.79-15c1.62-.54,3.18-1.11,4.7-1.7s3-1.16,4.53-1.71q4.21-1.45,5.43-4.85a5.18,5.18,0,0,0-1.22-5.83A13.15,13.15,0,0,0,222.71,178.1ZM212.51,206a13.23,13.23,0,0,1,4.7,3.08,10.15,10.15,0,0,1,2.27,4.7,19.14,19.14,0,0,1,.32,6.07,22.39,22.39,0,0,1-1.54,6.15,16.67,16.67,0,0,1-3.16,5.11,31.78,31.78,0,0,1-11,6.88,43.8,43.8,0,0,1-14.25,3,85.1,85.1,0,0,1-8.75-.89q-3.39-.56-4.61-2.18t-.49-4.62a35.42,35.42,0,0,1,3.65-8.18,55.37,55.37,0,0,1,6.56-9.71q3.8-4.53,8-8.75a10.74,10.74,0,0,1,5.1-2.18,22.56,22.56,0,0,1,6.64-.17A24.08,24.08,0,0,1,212.51,206Z"/><path class="cls-2" d="M179.86,159a19.91,19.91,0,0,0,3.94,2.9c.12.12.24.25.37.36a12.48,12.48,0,0,0,3.65,2,26.06,26.06,0,0,0,4.21,1.14,20.54,20.54,0,0,1,4.13,1.21,2.24,2.24,0,0,0,1-.16,8.4,8.4,0,0,0,2.91-2.19,26.23,26.23,0,0,0,3.08-4,35.33,35.33,0,0,0,2.51-4.62,9.94,9.94,0,0,0,1.05-3.81q-.81-6.31-4.86-9.71a37.6,37.6,0,0,0-9.23-5.67,13.77,13.77,0,0,0-5.65-1.27q-1-.17-2-.27s-17.91-11.88-16.82-6.65c0,0,.5,10.36,5.18,15.86C173.26,144.15,174.38,153.54,179.86,159Z"/><path class="cls-2" d="M315.88,390.26a25.6,25.6,0,0,0,8.59-.32,17.36,17.36,0,0,0,7.36-3.32,15.1,15.1,0,0,0,4.86-5.35,9,9,0,0,0,.33-7.12,5.33,5.33,0,0,0-3.57-4.13q-2.74-.88-5.67-1.54c-1.83-.32-3.8-.65-5.91-1a7.76,7.76,0,0,1-4.77-2.27,16.62,16.62,0,0,1-3.65-6.23q-1.21-3.64-2.83-7.53l6.88-1.22c2.11-.38,4.13-.67,6.07-.89q6.65-.31,13.2-.56c4.38-.17,8.77-.36,13.2-.57a5.68,5.68,0,0,1,1.62.24,5.68,5.68,0,0,0,1.62.24,2.39,2.39,0,0,0,1.46-.48,3.31,3.31,0,0,0,1-1.94c.11-1,.24-1.92.4-2.84a6.23,6.23,0,0,0,0-2.51A3.82,3.82,0,0,0,355,339a5.08,5.08,0,0,0-2.75-1.14q-6.32-.8-12.55-1.21t-12.55-.24a46.13,46.13,0,0,0-9.15,1.21q-4.46,1.06-9,1.86-2.12-3.72-4.21-7.61t-4.37-8.26c2.05,0,3.94.06,5.66.17a28.16,28.16,0,0,0,5.19-.17q7.77-1.29,15.54-2.67t15.55-3.16a4.32,4.32,0,0,0,2.43-2.35,7.42,7.42,0,0,0,1.13-3.48,5.84,5.84,0,0,0-2.35-5.18,16.92,16.92,0,0,0-5.58-2.43,134.16,134.16,0,0,0-28.83-4.86,218.55,218.55,0,0,0-29.15.33,7,7,0,0,0-3.48,1.37,9.47,9.47,0,0,0-2.75,3.08,14.55,14.55,0,0,0-1.54,3.89,6.43,6.43,0,0,0,.16,3.8q1.78,4.69,3.72,9.4t3.89,9.39q2.26,5.67,5,11.09a48.44,48.44,0,0,1,4.05,11.09,79.46,79.46,0,0,0,5,15.55,94.75,94.75,0,0,0,7.77,14.09,15,15,0,0,0,5.91,5.18A24.57,24.57,0,0,0,315.88,390.26Z"/><path class="cls-2" d="M445.45,292a27.36,27.36,0,0,0-.5-2.94,15.31,15.31,0,0,0-5.1-8.18q-4.05-3.57-7.77-3.4c-2.49.11-4.48,1.51-6,4.21a6.78,6.78,0,0,0-1,3c-.1,1.14-.21,2.3-.32,3.48a46.4,46.4,0,0,0-.32,5.51,12.73,12.73,0,0,1-1,5q-1.31,3.07-3.08,6.32a10.17,10.17,0,0,1-4.54,4.53q-4.85,2.28-9.47,4.78a34,34,0,0,0-8.34,6.4,14.85,14.85,0,0,1-1.86,1.86c-.71.6-1.49,1.32-2.35,2.19q-2-7.93-3.56-15.15t-3.73-14.33a26.77,26.77,0,0,0-6.15-10.69c-2.38-2.48-4.76-3.62-7.13-3.4s-4.59,1.73-6.64,4.53a16.54,16.54,0,0,0-2.75,5.68,20.16,20.16,0,0,0-.65,6.23,18.07,18.07,0,0,0,1.38,6.07,12,12,0,0,0,3.64,4.86,11.13,11.13,0,0,1,3.24,4.21,27.08,27.08,0,0,1,1.3,4.86c.1,1,.21,1.92.32,2.83a27.72,27.72,0,0,0,.49,2.84,234.12,234.12,0,0,1,4,33.28q.81,16.6,0,33.44-.32,3.57-.56,7a49.51,49.51,0,0,0,0,6.89,35,35,0,0,0,1.13,6.72,19,19,0,0,0,3.16,6.4l.32.32c.11-.11.17-.19.17-.24s.05-.14.16-.25c1,.43,1.91.87,2.83,1.3a13.43,13.43,0,0,0,3,1,4.26,4.26,0,0,0,2.44-.08,5.15,5.15,0,0,0,2.1-1.21A30.33,30.33,0,0,0,399.69,406a39.21,39.21,0,0,0,1.78-13.85A72.4,72.4,0,0,1,402.84,375q1.71-8.34,3.81-16.76a20.91,20.91,0,0,1,2.19-5.75,12.08,12.08,0,0,1,3.64-3.89,16,16,0,0,1,5.67-2.26,59.87,59.87,0,0,1,8.58-1.06v5.35q.33,9.06.49,17.89.16,8.64.47,17.5l-.32,1.85s13.29,113.72-122,96.45c0,0,80.79,25.91,123.17-41C428.52,443.33,466.7,372.84,445.45,292Z"/><path class="cls-3" d="M357.59,209.75v0h0v1.79A34.94,34.94,0,0,0,360,224.14c.38-.14,12.63-4.62,18.52-14.39Z"/><path class="cls-3" d="M429.36,209.75H412.28L412,246.82h-5.89L406,215.34c-6.59,16.87-27.87,27.67-28.37,27.92a35,35,0,0,0,15.32,3.56H425.2A35.38,35.38,0,0,0,456,228.64C435.89,225.86,429.36,209.75,429.36,209.75Z"/><path class="cls-3" d="M436.07,209.75c6.68,10.36,22,13.42,22.39,13.51a35.07,35.07,0,0,0,2.06-11.76v-1.75Z"/><path class="cls-3" d="M401.92,209.75H385.54s-10.24,17-22.91,19.79a35.73,35.73,0,0,0,8.79,9.9C393.57,228.63,401.55,210.62,401.92,209.75Z"/><path class="cls-3" d="M489.33,191.38"/><path class="cls-3" d="M431,256.77H387.15c-21.67,0-39.3-17.36-39.3-38.69V107.9c0-21.33,17.63-38.68,39.3-38.68H431c21.67,0,39.29,17.35,39.29,38.68V218.08C470.26,239.41,452.64,256.77,431,256.77ZM387.15,72.32c-19.94,0-36.16,16-36.16,35.58V218.08c0,19.63,16.22,35.59,36.16,35.59H431c19.93,0,36.15-16,36.15-35.59V107.9c0-19.62-16.22-35.58-36.15-35.58Z"/><path class="cls-3" d="M430.22,254.36h-42.7c-21.11,0-38.28-16.91-38.28-37.69V109.32c0-20.78,17.17-37.69,38.28-37.69h42.7c21.11,0,38.29,16.91,38.29,37.69V216.67C468.51,237.45,451.33,254.36,430.22,254.36ZM387.52,74.65c-19.42,0-35.22,15.55-35.22,34.67V216.67c0,19.12,15.8,34.67,35.22,34.67h42.7c19.42,0,35.23-15.55,35.23-34.67V109.32c0-19.12-15.81-34.67-35.23-34.67Z"/><path class="cls-3" d="M371.31,86.72c10,5.12,36.29,22.41,36.29,22.41l38.92-22.71a35.06,35.06,0,0,0-21.32-7.26H392.91a35.05,35.05,0,0,0-21.7,7.55S371.29,86.7,371.31,86.72Z"/><path class="cls-3" d="M407.05,126.24l47.89-30.6c.09.1.16.21.24.31a35.27,35.27,0,0,0-3.59-4.82l-44,24.67-40.78-25A36,36,0,0,0,362.28,97Z"/><path class="cls-3" d="M460.52,148.79v-7.17L457,144A16.13,16.13,0,0,1,460.52,148.79Z"/><path class="cls-3" d="M452,147.44l-2.8,1.9c.1,0,3.78,1.5,2.89,6.25,0,0-1.23,5.52-7.58,3.59a5.41,5.41,0,0,1-3.15-4.49l-3.27,2.22h0l.24-.16c.12,3.28,4.77,6.24,4.77,6.24a9.86,9.86,0,0,0,11.19-3.3C458.07,151.11,453.09,148,452,147.44Z"/><path class="cls-3" d="M460.52,159.69c-3.8,9.35-10.5,9.6-10.5,9.6-13.41,2-16.82-9.06-16.82-9.06l-6.34,4.32V190l-14.5,9.66,0,4,48.19.14Z"/><path class="cls-3" d="M415.9,187.59a2.13,2.13,0,0,0-1.41,2.61,2.06,2.06,0,0,0,.45.71l3.31-2.21A2.37,2.37,0,0,0,415.9,187.59Z"/><path class="cls-3" d="M444.37,154.91c.67,2.1,3.06,1.75,3.06,1.75a2.51,2.51,0,0,0-.65-4.93A2.47,2.47,0,0,0,444.37,154.91Z"/><path class="cls-3" d="M403.1,187.59a2.32,2.32,0,0,0-2.43,1.29l3.19,2.24a2.23,2.23,0,0,0,.66-.92A2.14,2.14,0,0,0,403.1,187.59Z"/><path class="cls-3" d="M369,153.21a2.62,2.62,0,0,0,1.73,3.19s2.4.36,3.06-1.74a2.47,2.47,0,0,0-2.41-3.18A2.6,2.6,0,0,0,369,153.21Z"/><path class="cls-3" d="M376.82,154.43a5.43,5.43,0,0,1-3.15,4.49c-6.36,1.93-7.58-3.59-7.58-3.59-.82-4.35,2.19-5.93,2.78-6.2l-2.26-1.5-.13.05h0s-6.72,2.58-2.47,12.18a9.88,9.88,0,0,0,11.19,3.31s4.71-3.29,4.9-6.55Z"/><path class="cls-3" d="M357.59,141.62v-.14h0v.05h0v7.24a9.73,9.73,0,0,1,.74-1.76c.78-1.16.31-.87,2.53-2.36,0,0,.58-.47.78-.33Z"/><path class="cls-3" d="M405.88,199.73l-14.62-10.27-.43-25.69L385.22,160c-.82,2.11-5.07,11.23-17,9.44,0,0-6.7-.25-10.5-9.61v-.37h-.06a.42.42,0,0,1-.12,0v44.1l48.31.14Z"/><path class="cls-3" d="M458,101.43l-50.71,32.72-47.51-31.7a34.92,34.92,0,0,0-2.17,12v19.66h0l39.56,27.29.76,25.5.73.51a4.38,4.38,0,0,1,2.06-1.92c5.19-1.58,6.19,2.94,6.19,2.94a4.48,4.48,0,0,1-1,4.09l3.19,2.24,3.77-2.52a4.53,4.53,0,0,1-.75-3.81s1-4.52,6.19-2.94a4.44,4.44,0,0,1,2,1.81l.68-.45V161.44l39.55-27.29V114.49A35.08,35.08,0,0,0,458,101.43Z"/></g></svg>