<svg xmlns="http://www.w3.org/2000/svg" xmlns:xlink="http://www.w3.org/1999/xlink" viewBox="0 0 278.79 427.12"><defs><style>.cls-1{fill:url(#무제_그라디언트_23);}.cls-2{fill:url(#무제_그라디언트_23-2);}.cls-3{fill:url(#무제_그라디언트_23-3);}.cls-4{fill:url(#무제_그라디언트_23-4);}.cls-5{fill:#fff;}.cls-6{fill:#c9bc9c;}.cls-7{fill:url(#무제_그라디언트_23-5);}.cls-8{fill:url(#무제_그라디언트_23-6);}.cls-9{fill:url(#무제_그라디언트_23-7);}.cls-10{fill:url(#무제_그라디언트_23-8);}.cls-11{fill:url(#무제_그라디언트_23-9);}.cls-12{fill:url(#무제_그라디언트_23-10);}.cls-13{fill:url(#무제_그라디언트_23-11);}.cls-14{fill:url(#무제_그라디언트_23-12);}.cls-15{fill:url(#무제_그라디언트_23-13);}.cls-16{fill:url(#무제_그라디언트_23-14);}.cls-17{fill:url(#무제_그라디언트_23-15);}.cls-18{fill:url(#무제_그라디언트_23-16);}.cls-19{fill:url(#무제_그라디언트_23-17);}</style><linearGradient id="무제_그라디언트_23" x1="182.21" y1="336.38" x2="229.83" y2="336.38" gradientUnits="userSpaceOnUse"><stop offset="0" stop-color="#cbbe9e"/><stop offset="1" stop-color="#cbbe9e"/></linearGradient><linearGradient id="무제_그라디언트_23-2" x1="227.77" y1="362.26" x2="406.42" y2="362.26" xlink:href="#무제_그라디언트_23"/><linearGradient id="무제_그라디언트_23-3" x1="360.94" y1="335.43" x2="416.63" y2="335.43" xlink:href="#무제_그라디언트_23"/><linearGradient id="무제_그라디언트_23-4" x1="193.68" y1="353.86" x2="283.17" y2="353.86" xlink:href="#무제_그라디언트_23"/><linearGradient id="무제_그라디언트_23-5" x1="213.22" y1="56.77" x2="384.73" y2="56.77" xlink:href="#무제_그라디언트_23"/><linearGradient id="무제_그라디언트_23-6" x1="192.88" y1="89.47" x2="404.47" y2="89.47" xlink:href="#무제_그라디언트_23"/><linearGradient id="무제_그라디언트_23-7" x1="408.6" y1="173.04" x2="416.63" y2="173.04" xlink:href="#무제_그라디언트_23"/><linearGradient id="무제_그라디언트_23-8" x1="357.58" y1="196.5" x2="405.59" y2="196.5" xlink:href="#무제_그라디언트_23"/><linearGradient id="무제_그라디언트_23-9" x1="306.87" y1="256.33" x2="416.63" y2="256.33" xlink:href="#무제_그라디언트_23"/><linearGradient id="무제_그라디언트_23-10" x1="311.63" y1="273.34" x2="320.36" y2="273.34" xlink:href="#무제_그라디언트_23"/><linearGradient id="무제_그라디언트_23-11" x1="379.68" y1="193.55" x2="390.97" y2="193.55" xlink:href="#무제_그라디언트_23"/><linearGradient id="무제_그라디언트_23-12" x1="280.32" y1="273.58" x2="289.24" y2="273.58" xlink:href="#무제_그라디언트_23"/><linearGradient id="무제_그라디언트_23-13" x1="207.98" y1="192.96" x2="219.26" y2="192.96" xlink:href="#무제_그라디언트_23"/><linearGradient id="무제_그라디언트_23-14" x1="182.21" y1="196.91" x2="292.24" y2="196.91" xlink:href="#무제_그라디언트_23"/><linearGradient id="무제_그라디언트_23-15" x1="182.21" y1="172.86" x2="292.24" y2="172.86" xlink:href="#무제_그라디언트_23"/><linearGradient id="무제_그라디언트_23-16" x1="182.21" y1="255.91" x2="292.24" y2="255.91" xlink:href="#무제_그라디언트_23"/><linearGradient id="무제_그라디언트_23-17" x1="182.21" y1="179.68" x2="416.63" y2="179.68" xlink:href="#무제_그라디언트_23"/></defs><g id="레이어_1" data-name="레이어 1"><path class="cls-1" d="M182.21,320.05V320h0V324a79.48,79.48,0,0,0,5.45,28.78c.86-.31,28.76-10.52,42.17-32.77Z" transform="translate(-160.03)"/><path class="cls-2" d="M345.66,320.05H306.77l-.64,84.43H292.72l-.35-71.71c-15,38.44-63.47,63-64.6,63.6a79.6,79.6,0,0,0,34.88,8.11h73.54a80.6,80.6,0,0,0,70.23-41.42C360.54,356.74,345.66,320.05,345.66,320.05Z" transform="translate(-160.03)"/><path class="cls-3" d="M360.94,320.05c15.22,23.59,50,30.56,51,30.75a79.53,79.53,0,0,0,4.7-26.76v-4Z" transform="translate(-160.03)"/><path class="cls-4" d="M283.17,320.05H245.86s-23.32,38.77-52.18,45.08a81.14,81.14,0,0,0,20,22.53C264.16,363.05,282.32,322,283.17,320.05Z" transform="translate(-160.03)"/><path class="cls-5" d="M463.78,159.93" transform="translate(-160.03)"/><path class="cls-6" d="M349.33,427.12H249.52C200.17,427.12,160,387.6,160,339V88.1C160,39.52,200.17,0,249.52,0h99.81c49.34,0,89.49,39.52,89.49,88.1V339C438.82,387.6,398.67,427.12,349.33,427.12ZM249.52,7.05c-45.4,0-82.33,36.36-82.33,81.05V339c0,44.69,36.93,81.05,82.33,81.05h99.81c45.39,0,82.33-36.36,82.33-81.05V88.1c0-44.69-36.94-81-82.33-81Z" transform="translate(-160.03)"/><path class="cls-6" d="M347.63,421.64H250.38c-48.07,0-87.19-38.5-87.19-85.83V91.32c0-47.33,39.12-85.84,87.19-85.84h97.25c48.07,0,87.19,38.51,87.19,85.84V335.81C434.82,383.14,395.7,421.64,347.63,421.64ZM250.38,12.35c-44.23,0-80.22,35.42-80.22,79V335.81c0,43.54,36,79,80.22,79h97.25c44.23,0,80.21-35.42,80.21-79V91.32c0-43.55-36-79-80.21-79Z" transform="translate(-160.03)"/><path class="cls-7" d="M213.46,39.85c22.73,11.66,82.64,51,82.64,51l88.63-51.73a79.82,79.82,0,0,0-48.54-16.52H262.65a79.89,79.89,0,0,0-49.43,17.19C213.3,39.84,213.4,39.81,213.46,39.85Z" transform="translate(-160.03)"/><path class="cls-8" d="M294.84,129.85,403.92,60.16c.2.23.36.47.55.71a80.68,80.68,0,0,0-8.18-11L296.14,106.08l-92.86-57a81,81,0,0,0-10.4,14.22Z" transform="translate(-160.03)"/><path class="cls-9" d="M416.63,181.2V164.88l-8,5.47C412.85,173.56,416.62,181.18,416.63,181.2Z" transform="translate(-160.03)"/><path class="cls-10" d="M397.18,178.13l-6.38,4.35c.23.08,8.62,3.4,6.57,14.21,0,0-2.78,12.58-17.25,8.19a12.35,12.35,0,0,1-7.18-10.24l-7.45,5.07h0l.56-.37c.26,7.47,10.86,14.22,10.86,14.22A22.49,22.49,0,0,0,402.39,206C411,186.5,399.7,179.42,397.18,178.13Z" transform="translate(-160.03)"/><path class="cls-11" d="M416.63,206c-8.65,21.3-23.92,21.87-23.92,21.87-30.53,4.62-38.3-20.65-38.3-20.65L340,217.11v58l-33,22-.07,9.15,109.76.31Z" transform="translate(-160.03)"/><path class="cls-12" d="M315,269.58a4.49,4.49,0,0,0-2.19,7.55l7.54-5C318.82,269.06,315,269.58,315,269.58Z" transform="translate(-160.03)"/><path class="cls-13" d="M379.85,195.16c1.52,4.78,7,4,7,4a5.71,5.71,0,0,0-1.48-11.22C378.15,188.53,379.85,195.16,379.85,195.16Z" transform="translate(-160.03)"/><path class="cls-14" d="M285.86,269.58s-4.16-.58-5.54,2.93l7.26,5.1a4.79,4.79,0,0,0,1.5-2.08A4.88,4.88,0,0,0,285.86,269.58Z" transform="translate(-160.03)"/><path class="cls-15" d="M208.18,191.27a6,6,0,0,0,3.94,7.28s5.46.81,7-4c0,0,1.7-6.63-5.49-7.24A5.91,5.91,0,0,0,208.18,191.27Z" transform="translate(-160.03)"/><path class="cls-16" d="M226,194.06a12.35,12.35,0,0,1-7.18,10.23c-14.47,4.39-17.25-8.19-17.25-8.19-1.87-9.9,5-13.5,6.33-14.1l-5.16-3.44a2.36,2.36,0,0,1-.28.12h0s-15.31,5.88-5.63,27.74A22.49,22.49,0,0,0,222.33,214s10.73-7.49,11.16-14.91Z" transform="translate(-160.03)"/><path class="cls-17" d="M182.21,164.88v-.33h0v.13h0v16.49a22.18,22.18,0,0,1,1.68-4c1.78-2.65.72-2,5.76-5.38,0,0,1.32-1.06,1.77-.76Z" transform="translate(-160.03)"/><path class="cls-18" d="M292.19,297.23l-33.3-23.39-1-58.51-12.78-8.52c-1.86,4.81-11.54,25.59-38.6,21.49,0,0-15.26-.57-23.92-21.87v-.86c-.05,0-.08,0-.14,0s-.16,0-.26,0V306l110,.31Z" transform="translate(-160.03)"/><path class="cls-19" d="M410.84,73.36l-115.48,74.5L187.15,75.68a79.52,79.52,0,0,0-4.94,27.41v44.77h0L272.3,210,274,268.09l1.67,1.17a10.08,10.08,0,0,1,4.68-4.38c11.83-3.58,14.1,6.7,14.1,6.7.87,4.62-.59,7.55-2.22,9.32l7.26,5.09,8.59-5.72c-1.4-1.81-2.5-4.56-1.72-8.69,0,0,2.27-10.28,14.1-6.7A10.26,10.26,0,0,1,325,269l1.54-1V210l90.08-62.16V103.09A79.56,79.56,0,0,0,410.84,73.36Z" transform="translate(-160.03)"/></g></svg>