<?xml version="1.0" encoding="utf-8"?>
<!-- Generator: Adobe Illustrator 25.0.1, SVG Export Plug-In . SVG Version: 6.00 Build 0)  -->
<svg version="1.1" xmlns="http://www.w3.org/2000/svg" xmlns:xlink="http://www.w3.org/1999/xlink" x="0px" y="0px"
	 viewBox="0 0 653.5 568.37" style="enable-background:new 0 0 653.5 568.37;" xml:space="preserve">
<style type="text/css">
	.st0{fill:#2A2C47;}
	.st1{fill:#FFFFFF;}
	.st2{fill:url(#SVGID_1_);}
	.st3{fill:url(#SVGID_2_);}
	.st4{fill:url(#SVGID_3_);}
	.st5{fill:url(#SVGID_4_);}
	.st6{fill:#C9BC9C;}
	.st7{fill:url(#SVGID_5_);}
	.st8{fill:url(#SVGID_6_);}
	.st9{fill:url(#SVGID_7_);}
	.st10{fill:url(#SVGID_8_);}
	.st11{fill:url(#SVGID_9_);}
	.st12{fill:url(#SVGID_10_);}
	.st13{fill:url(#SVGID_11_);}
	.st14{fill:url(#SVGID_12_);}
	.st15{fill:url(#SVGID_13_);}
	.st16{fill:url(#SVGID_14_);}
	.st17{fill:url(#SVGID_15_);}
	.st18{fill:url(#SVGID_16_);}
	.st19{fill:url(#SVGID_17_);}
</style>
<g id="레이어_2">
	<rect class="st0" width="653.5" height="568.37"/>
</g>
<g id="레이어_1">
	<g>
		<path class="st1" d="M274.21,245.79c-0.22-5.83,0.24-11.52,1.38-17.09c1.13-5.56,2.4-11.15,3.81-16.76
			c0.54-2.27,1.27-4.18,2.19-5.75c0.92-1.56,2.13-2.86,3.64-3.89c1.51-1.03,3.4-1.78,5.67-2.27c2.27-0.49,5.13-0.83,8.58-1.05v5.34
			c0.21,6.05,0.38,12.01,0.49,17.9c0.11,5.89,0.27,11.85,0.49,17.89c0,0.76,0.3,1.46,0.89,2.11c0.59,0.65,1.16,1.3,1.7,1.94
			c0.54-0.54,1.16-1,1.86-1.38c0.7-0.38,1.16-0.89,1.38-1.54c0.65-1.51,1.24-3.08,1.78-4.7c0.54-1.62,0.92-3.24,1.13-4.86
			c1.62-13.39,3.21-26.67,4.78-39.84c1.56-13.17,3-26.5,4.29-40c0.32-3.02,0.13-6.07-0.57-9.15c-0.7-3.08-2.4-5.8-5.1-8.18
			c-2.7-2.37-5.29-3.51-7.77-3.4c-2.48,0.11-4.48,1.51-5.99,4.21c-0.54,0.87-0.87,1.86-0.98,3c-0.11,1.13-0.22,2.29-0.32,3.48
			c-0.22,1.84-0.32,3.67-0.32,5.51c0,1.84-0.32,3.51-0.97,5.02c-0.87,2.05-1.89,4.16-3.08,6.32c-1.19,2.16-2.71,3.67-4.54,4.53
			c-3.24,1.51-6.41,3.11-9.49,4.78c-3.08,1.68-5.87,3.81-8.35,6.4c-0.54,0.65-1.16,1.27-1.87,1.86c-0.7,0.59-1.48,1.32-2.35,2.19
			c-1.31-5.29-2.5-10.34-3.59-15.14c-1.09-4.8-2.34-9.58-3.75-14.33c-1.2-3.99-3.26-7.56-6.2-10.69c-2.39-2.48-4.77-3.62-7.14-3.4
			c-2.38,0.22-4.59,1.73-6.64,4.53c-1.3,1.73-2.21,3.62-2.75,5.67c-0.54,2.05-0.76,4.13-0.65,6.23c0.11,2.11,0.57,4.13,1.38,6.07
			c0.81,1.94,2.02,3.56,3.64,4.86c1.62,1.4,2.7,2.81,3.24,4.21c0.54,1.41,0.97,3.02,1.3,4.86c0.11,0.97,0.21,1.92,0.32,2.83
			c0.11,0.92,0.27,1.86,0.49,2.83c2.16,11.12,3.51,22.21,4.05,33.28c0.54,11.07,0.54,22.21,0,33.44c-0.22,2.38-0.41,4.72-0.57,7.04
			c-0.16,2.32-0.16,4.62,0,6.88c0.16,2.27,0.54,4.51,1.14,6.72c0.6,2.21,1.66,4.34,3.18,6.4l0.33,0.32
			c0.11-0.11,0.16-0.19,0.16-0.24c0-0.06,0.05-0.14,0.17-0.24c0.98,0.43,1.93,0.86,2.85,1.3c0.92,0.43,1.93,0.75,3.02,0.97
			c0.76,0.21,1.57,0.19,2.44-0.08c0.87-0.27,1.58-0.68,2.12-1.21c3.48-3.56,5.92-7.53,7.34-11.9
			C273.83,255.27,274.43,250.65,274.21,245.79z"/>
		<path class="st1" d="M222.71,178.1c-1.19-0.65-2.38-1.08-3.56-1.3c-7.12-0.97-14.25-1.94-21.38-2.91
			c-7.13-0.97-14.31-1.73-21.54-2.27c-6.48-0.43-12.12,0.68-16.92,3.32c-4.81,2.65-8.56,7.04-11.26,13.2
			c-0.76,1.84-1.05,3.56-0.89,5.18c0.16,1.62,0.7,3.05,1.62,4.29c0.92,1.24,2.16,2.21,3.72,2.92c1.56,0.7,3.32,1.05,5.26,1.05
			c3.99-0.22,7.94-0.3,11.82-0.24c3.89,0.06,7.72,0.08,11.5,0.08c0.97,0,2.1-0.32,3.4-0.97c1.3-0.65,2.48-1.24,3.56-1.78
			c-6.15,3.89-10.99,8.58-14.49,14.09c-3.51,5.51-6.02,11.66-7.53,18.46c-1.19,5.29-0.57,9.74,1.86,13.36
			c2.43,3.62,6.34,6.07,11.74,7.37c2.27,0.54,4.56,0.87,6.88,0.97c2.32,0.11,4.67,0.16,7.04,0.16c3.67,0,7.26-0.57,10.77-1.7
			c3.51-1.13,6.69-2.7,9.55-4.7c2.86-2,5.32-4.4,7.37-7.21c2.05-2.81,3.4-5.83,4.05-9.07c1.73-8.31,1.67-15.3-0.16-20.97
			c-1.84-5.67-6.1-10.66-12.79-14.98c1.62-0.54,3.18-1.11,4.7-1.7c1.51-0.59,3.02-1.16,4.53-1.7c2.81-0.97,4.62-2.59,5.43-4.86
			c0.81-2.27,0.41-4.21-1.22-5.83C224.93,179.5,223.9,178.75,222.71,178.1z M212.51,205.95c2.05,0.87,3.62,1.89,4.7,3.08
			c1.08,1.19,1.84,2.75,2.27,4.7c0.43,1.94,0.54,3.97,0.32,6.07c-0.22,2.1-0.73,4.16-1.54,6.15c-0.81,2-1.86,3.7-3.16,5.1
			c-2.81,2.81-6.48,5.1-11.01,6.88c-4.53,1.78-9.29,2.78-14.25,3c-3.56-0.21-6.48-0.51-8.74-0.89c-2.27-0.38-3.81-1.11-4.62-2.19
			c-0.81-1.08-0.97-2.62-0.49-4.62c0.49-2,1.7-4.72,3.64-8.18c1.84-3.45,4.02-6.69,6.56-9.72c2.54-3.02,5.21-5.94,8.02-8.74
			c1.3-1.08,3-1.81,5.1-2.19c2.11-0.38,4.32-0.43,6.64-0.16C208.27,204.52,210.46,205.09,212.51,205.95z"/>
		<path class="st1" d="M179.86,158.97c1.06,1.05,2.42,2.02,3.94,2.9c0.12,0.12,0.24,0.25,0.37,0.36c1.08,0.87,2.29,1.54,3.64,2.02
			c1.35,0.49,2.75,0.87,4.21,1.13c1.46,0.27,2.83,0.68,4.13,1.22c0.43,0,0.75-0.05,0.97-0.16c0.86-0.32,1.83-1.05,2.91-2.19
			c1.08-1.13,2.11-2.45,3.08-3.97c0.97-1.51,1.81-3.05,2.51-4.62c0.7-1.56,1.05-2.84,1.05-3.81c-0.54-4.21-2.16-7.45-4.86-9.72
			c-2.7-2.27-5.78-4.15-9.23-5.67c-2.07-0.89-3.95-1.3-5.66-1.27c-0.66-0.11-1.33-0.2-2.04-0.26c0,0-17.91-11.88-16.82-6.66
			c0,0,0.49,10.36,5.18,15.86C173.26,144.15,174.38,153.54,179.86,158.97z"/>
		<path class="st1" d="M315.88,390.26c2.86,0.38,5.72,0.27,8.58-0.32c2.86-0.59,5.32-1.7,7.37-3.32c2.16-1.51,3.78-3.29,4.86-5.35
			c1.08-2.05,1.19-4.42,0.32-7.12c-0.54-2.16-1.73-3.54-3.56-4.13c-1.84-0.59-3.73-1.11-5.67-1.54c-1.84-0.32-3.8-0.65-5.91-0.97
			c-2.11-0.32-3.7-1.08-4.78-2.27c-1.62-1.73-2.83-3.8-3.64-6.24c-0.81-2.43-1.76-4.94-2.83-7.53c2.48-0.43,4.78-0.83,6.88-1.21
			c2.11-0.38,4.13-0.67,6.07-0.89c4.43-0.22,8.83-0.41,13.2-0.57c4.37-0.16,8.77-0.35,13.2-0.57c0.54,0,1.08,0.08,1.62,0.24
			c0.54,0.16,1.08,0.24,1.62,0.24c0.54,0,1.03-0.16,1.46-0.49c0.43-0.32,0.75-0.97,0.97-1.94c0.11-0.97,0.24-1.92,0.41-2.84
			c0.16-0.92,0.16-1.75,0-2.51c-0.16-0.75-0.51-1.4-1.05-1.94c-0.54-0.54-1.46-0.92-2.75-1.13c-4.21-0.54-8.4-0.94-12.55-1.21
			c-4.16-0.27-8.34-0.35-12.55-0.24c-3.13,0.11-6.18,0.51-9.15,1.21c-2.97,0.7-5.97,1.32-8.99,1.86c-1.41-2.48-2.81-5.02-4.21-7.61
			c-1.4-2.59-2.86-5.34-4.37-8.26c2.05,0,3.94,0.06,5.67,0.16c1.73,0.11,3.45,0.06,5.18-0.16c5.18-0.86,10.36-1.75,15.55-2.67
			s10.36-1.97,15.55-3.16c0.86-0.22,1.67-1,2.43-2.35c0.75-1.35,1.13-2.51,1.13-3.48c0-2.37-0.78-4.1-2.35-5.18
			c-1.57-1.08-3.43-1.89-5.59-2.43c-9.61-2.7-19.22-4.32-28.83-4.86c-9.61-0.54-19.33-0.43-29.15,0.32
			c-1.19,0.11-2.35,0.57-3.48,1.38c-1.13,0.81-2.05,1.84-2.75,3.08c-0.7,1.24-1.22,2.54-1.54,3.89c-0.32,1.35-0.27,2.62,0.16,3.8
			c1.19,3.13,2.43,6.26,3.72,9.39c1.3,3.13,2.59,6.26,3.89,9.39c1.51,3.78,3.18,7.48,5.02,11.09c1.84,3.62,3.18,7.31,4.05,11.09
			c1.19,5.51,2.86,10.69,5.02,15.55c2.16,4.86,4.75,9.55,7.77,14.09c1.4,2.16,3.37,3.89,5.91,5.18
			C310.32,389.05,313.02,389.89,315.88,390.26z"/>
		<path class="st1" d="M445.45,291.99c-0.12-0.98-0.27-1.96-0.5-2.94c-0.7-3.08-2.4-5.8-5.1-8.18c-2.7-2.37-5.29-3.51-7.77-3.4
			c-2.49,0.11-4.48,1.51-5.99,4.21c-0.54,0.87-0.87,1.86-0.98,3c-0.11,1.13-0.22,2.3-0.32,3.48c-0.22,1.84-0.32,3.67-0.32,5.51
			c0,1.84-0.33,3.51-0.97,5.02c-0.87,2.05-1.9,4.16-3.08,6.31c-1.19,2.16-2.7,3.67-4.54,4.54c-3.23,1.51-6.39,3.1-9.47,4.78
			c-3.08,1.68-5.86,3.8-8.34,6.4c-0.54,0.65-1.16,1.27-1.87,1.86c-0.7,0.6-1.49,1.32-2.35,2.19c-1.3-5.29-2.49-10.34-3.56-15.14
			c-1.08-4.8-2.32-9.58-3.73-14.33c-1.19-4-3.24-7.56-6.15-10.69c-2.37-2.48-4.76-3.62-7.12-3.4c-2.38,0.22-4.59,1.73-6.64,4.53
			c-1.3,1.73-2.21,3.62-2.75,5.67c-0.54,2.05-0.76,4.13-0.65,6.24c0.11,2.11,0.57,4.13,1.38,6.07c0.81,1.94,2.02,3.56,3.64,4.86
			c1.62,1.41,2.7,2.81,3.24,4.21c0.54,1.4,0.97,3.02,1.3,4.86c0.11,0.97,0.21,1.92,0.32,2.83c0.11,0.92,0.27,1.86,0.49,2.83
			c2.16,11.12,3.51,22.22,4.05,33.28c0.54,11.07,0.54,22.22,0,33.44c-0.22,2.38-0.4,4.73-0.57,7.05c-0.16,2.33-0.16,4.62,0,6.88
			c0.16,2.27,0.54,4.51,1.13,6.72c0.59,2.21,1.64,4.34,3.16,6.4l0.32,0.32c0.11-0.11,0.16-0.19,0.16-0.24
			c0-0.06,0.05-0.14,0.16-0.24c0.97,0.43,1.91,0.86,2.83,1.3c0.92,0.43,1.92,0.75,2.99,0.97c0.75,0.21,1.57,0.19,2.43-0.08
			c0.86-0.27,1.56-0.68,2.11-1.21c3.45-3.56,5.88-7.53,7.29-11.9c1.4-4.37,1.99-8.99,1.78-13.85c-0.22-5.83,0.25-11.52,1.37-17.09
			c1.13-5.56,2.4-11.15,3.81-16.76c0.54-2.27,1.27-4.18,2.19-5.75c0.92-1.56,2.13-2.86,3.64-3.89c1.51-1.02,3.4-1.78,5.67-2.27
			s5.12-0.83,8.58-1.05v5.35c0.22,6.05,0.38,12.01,0.49,17.89c0.11,5.76,0.27,11.59,0.47,17.5l-0.32,1.84
			c0,0,13.29,113.72-122.02,96.45c0,0,80.79,25.91,123.17-41.03C428.52,443.33,466.7,372.84,445.45,291.99z"/>
	</g>
	<linearGradient id="SVGID_1_" gradientUnits="userSpaceOnUse" x1="357.5917" y1="216.9232" x2="378.4998" y2="216.9232">
		<stop  offset="0" style="stop-color:#CBBE9E"/>
		<stop  offset="1" style="stop-color:#CBBE9E"/>
	</linearGradient>
	<path class="st2" d="M357.59,209.75v-0.04c0,0,0,0,0,0v1.8c0,4.45,0.87,8.7,2.39,12.64c0.38-0.14,12.63-4.62,18.52-14.39H357.59z"
		/>
	<linearGradient id="SVGID_2_" gradientUnits="userSpaceOnUse" x1="377.5944" y1="228.2876" x2="456.0403" y2="228.2876">
		<stop  offset="0" style="stop-color:#CBBE9E"/>
		<stop  offset="1" style="stop-color:#CBBE9E"/>
	</linearGradient>
	<path class="st3" d="M429.36,209.75h-17.08L412,246.82h-5.89l-0.16-31.49c-6.59,16.88-27.87,27.67-28.37,27.92
		c4.65,2.26,9.83,3.56,15.32,3.56h32.29c13.22,0,24.79-7.37,30.84-18.19C435.89,225.86,429.36,209.75,429.36,209.75z"/>
	<linearGradient id="SVGID_3_" gradientUnits="userSpaceOnUse" x1="436.0688" y1="216.5031" x2="460.5223" y2="216.5031">
		<stop  offset="0" style="stop-color:#CBBE9E"/>
		<stop  offset="1" style="stop-color:#CBBE9E"/>
	</linearGradient>
	<path class="st4" d="M436.07,209.75c6.68,10.36,21.96,13.42,22.39,13.5c1.31-3.69,2.07-7.63,2.07-11.75v-1.75H436.07z"/>
	<linearGradient id="SVGID_4_" gradientUnits="userSpaceOnUse" x1="362.6269" y1="224.5953" x2="401.9224" y2="224.5953">
		<stop  offset="0" style="stop-color:#CBBE9E"/>
		<stop  offset="1" style="stop-color:#CBBE9E"/>
	</linearGradient>
	<path class="st5" d="M401.92,209.75h-16.38c0,0-10.24,17.03-22.91,19.79c2.29,3.83,5.28,7.18,8.8,9.9
		C393.57,228.63,401.55,210.62,401.92,209.75z"/>
	<path class="st1" d="M489.33,191.38"/>
	<path class="st6" d="M430.97,256.77h-43.82c-21.67,0-39.29-17.35-39.29-38.68V107.9c0-21.33,17.63-38.68,39.29-38.68h43.82
		c21.67,0,39.29,17.35,39.29,38.68v110.18C470.26,239.41,452.64,256.77,430.97,256.77z M387.15,72.32
		c-19.93,0-36.15,15.96-36.15,35.59v110.18c0,19.62,16.22,35.59,36.15,35.59h43.82c19.93,0,36.15-15.96,36.15-35.59V107.9
		c0-19.62-16.22-35.59-36.15-35.59H387.15z"/>
	<path class="st6" d="M430.22,254.36h-42.7c-21.11,0-38.29-16.91-38.29-37.69V109.32c0-20.78,17.18-37.69,38.29-37.69h42.7
		c21.11,0,38.28,16.91,38.28,37.69v107.35C468.51,237.45,451.33,254.36,430.22,254.36z M387.52,74.65
		c-19.42,0-35.22,15.55-35.22,34.67v107.35c0,19.12,15.8,34.67,35.22,34.67h42.7c19.42,0,35.22-15.55,35.22-34.67V109.32
		c0-19.12-15.8-34.67-35.22-34.67H387.52z"/>
	<linearGradient id="SVGID_5_" gradientUnits="userSpaceOnUse" x1="371.2072" y1="94.1473" x2="446.5162" y2="94.1473">
		<stop  offset="0" style="stop-color:#CBBE9E"/>
		<stop  offset="1" style="stop-color:#CBBE9E"/>
	</linearGradient>
	<path class="st7" d="M371.31,86.72c9.98,5.12,36.29,22.41,36.29,22.41l38.92-22.71c-5.94-4.53-13.32-7.25-21.32-7.25h-32.29
		c-8.17,0-15.7,2.84-21.71,7.55C371.24,86.71,371.29,86.7,371.31,86.72z"/>
	<linearGradient id="SVGID_6_" gradientUnits="userSpaceOnUse" x1="362.2755" y1="108.507" x2="455.1844" y2="108.507">
		<stop  offset="0" style="stop-color:#CBBE9E"/>
		<stop  offset="1" style="stop-color:#CBBE9E"/>
	</linearGradient>
	<path class="st8" d="M407.05,126.24l47.89-30.6c0.09,0.1,0.16,0.21,0.24,0.31c-1.06-1.71-2.26-3.32-3.59-4.82l-43.97,24.67
		l-40.77-25.02c-1.74,1.91-3.28,3.99-4.57,6.25L407.05,126.24z"/>
	<linearGradient id="SVGID_7_" gradientUnits="userSpaceOnUse" x1="456.9943" y1="145.2028" x2="460.5223" y2="145.2028">
		<stop  offset="0" style="stop-color:#CBBE9E"/>
		<stop  offset="1" style="stop-color:#CBBE9E"/>
	</linearGradient>
	<path class="st9" d="M460.52,148.79v-7.17l-3.53,2.4C458.86,145.43,460.52,148.77,460.52,148.79z"/>
	<linearGradient id="SVGID_8_" gradientUnits="userSpaceOnUse" x1="434.5954" y1="155.5016" x2="455.6765" y2="155.5016">
		<stop  offset="0" style="stop-color:#CBBE9E"/>
		<stop  offset="1" style="stop-color:#CBBE9E"/>
	</linearGradient>
	<path class="st10" d="M451.98,147.44l-2.8,1.91c0.1,0.04,3.78,1.49,2.88,6.24c0,0-1.22,5.52-7.58,3.6c0,0-2.82-1.09-3.15-4.49
		l-3.27,2.23v0l0.24-0.17c0.11,3.28,4.77,6.25,4.77,6.25c7.27,2.35,11.19-3.3,11.19-3.3C458.07,151.11,453.09,148,451.98,147.44z"/>
	<linearGradient id="SVGID_9_" gradientUnits="userSpaceOnUse" x1="412.3289" y1="181.7751" x2="460.5223" y2="181.7751">
		<stop  offset="0" style="stop-color:#CBBE9E"/>
		<stop  offset="1" style="stop-color:#CBBE9E"/>
	</linearGradient>
	<path class="st11" d="M460.52,159.69c-3.8,9.35-10.5,9.6-10.5,9.6c-13.41,2.03-16.82-9.06-16.82-9.06l-6.35,4.32v25.49l-14.5,9.67
		l-0.03,4.02l48.19,0.13V159.69z"/>
	<linearGradient id="SVGID_10_" gradientUnits="userSpaceOnUse" x1="414.4158" y1="189.2413" x2="418.2521" y2="189.2413">
		<stop  offset="0" style="stop-color:#CBBE9E"/>
		<stop  offset="1" style="stop-color:#CBBE9E"/>
	</linearGradient>
	<path class="st12" d="M415.9,187.59c-1.97,0.76-1.42,2.61-1.42,2.61c0.12,0.31,0.28,0.52,0.45,0.7l3.31-2.21
		C417.58,187.36,415.9,187.59,415.9,187.59z"/>
	<linearGradient id="SVGID_11_" gradientUnits="userSpaceOnUse" x1="444.2967" y1="154.2065" x2="449.2531" y2="154.2065">
		<stop  offset="0" style="stop-color:#CBBE9E"/>
		<stop  offset="1" style="stop-color:#CBBE9E"/>
	</linearGradient>
	<path class="st13" d="M444.37,154.91c0.66,2.1,3.06,1.74,3.06,1.74c2.41-0.93,1.73-3.19,1.73-3.19c-0.67-1.77-2.38-1.73-2.38-1.73
		C443.63,152,444.37,154.91,444.37,154.91z"/>
	<linearGradient id="SVGID_12_" gradientUnits="userSpaceOnUse" x1="400.668" y1="189.3454" x2="404.5886" y2="189.3454">
		<stop  offset="0" style="stop-color:#CBBE9E"/>
		<stop  offset="1" style="stop-color:#CBBE9E"/>
	</linearGradient>
	<path class="st14" d="M403.1,187.59c0,0-1.82-0.26-2.43,1.28l3.19,2.24c0.25-0.21,0.5-0.48,0.66-0.91
		C404.52,190.2,405.07,188.35,403.1,187.59z"/>
	<linearGradient id="SVGID_13_" gradientUnits="userSpaceOnUse" x1="368.9046" y1="153.9497" x2="373.8611" y2="153.9497">
		<stop  offset="0" style="stop-color:#CBBE9E"/>
		<stop  offset="1" style="stop-color:#CBBE9E"/>
	</linearGradient>
	<path class="st15" d="M368.99,153.21c0,0-0.68,2.26,1.73,3.19c0,0,2.4,0.36,3.06-1.74c0,0,0.75-2.91-2.41-3.18
		C371.37,151.48,369.67,151.44,368.99,153.21z"/>
	<linearGradient id="SVGID_14_" gradientUnits="userSpaceOnUse" x1="357.5917" y1="155.6834" x2="405.9029" y2="155.6834">
		<stop  offset="0" style="stop-color:#CBBE9E"/>
		<stop  offset="1" style="stop-color:#CBBE9E"/>
	</linearGradient>
	<path class="st16" d="M376.82,154.43c-0.34,3.4-3.15,4.49-3.15,4.49c-6.35,1.93-7.58-3.6-7.58-3.6c-0.82-4.35,2.19-5.93,2.78-6.19
		l-2.26-1.51c-0.04,0.01-0.08,0.04-0.12,0.05l0.01,0.01c0,0-6.72,2.58-2.47,12.18c0,0,3.91,5.66,11.19,3.3c0,0,4.71-3.29,4.9-6.54
		L376.82,154.43z"/>
	<linearGradient id="SVGID_15_" gradientUnits="userSpaceOnUse" x1="357.5917" y1="145.1224" x2="405.9029" y2="145.1224">
		<stop  offset="0" style="stop-color:#CBBE9E"/>
		<stop  offset="1" style="stop-color:#CBBE9E"/>
	</linearGradient>
	<path class="st17" d="M357.59,141.62v-0.14c0,0,0,0,0,0v0.06h0v7.24c0.05-0.05,0.31-1.12,0.74-1.76c0.78-1.16,0.31-0.87,2.53-2.36
		c0,0,0.58-0.47,0.78-0.33L357.59,141.62z"/>
	<linearGradient id="SVGID_16_" gradientUnits="userSpaceOnUse" x1="357.5917" y1="181.5903" x2="405.9029" y2="181.5903">
		<stop  offset="0" style="stop-color:#CBBE9E"/>
		<stop  offset="1" style="stop-color:#CBBE9E"/>
	</linearGradient>
	<path class="st18" d="M405.88,199.73l-14.62-10.27l-0.43-25.69l-5.61-3.74c-0.82,2.11-5.07,11.23-16.95,9.43c0,0-6.7-0.25-10.5-9.6
		v-0.38c-0.02,0-0.04,0.01-0.06,0.01c-0.04,0-0.07-0.02-0.11-0.02v44.1l48.31,0.13L405.88,199.73z"/>
	<linearGradient id="SVGID_17_" gradientUnits="userSpaceOnUse" x1="357.5917" y1="148.1149" x2="460.5224" y2="148.1149">
		<stop  offset="0" style="stop-color:#CBBE9E"/>
		<stop  offset="1" style="stop-color:#CBBE9E"/>
	</linearGradient>
	<path class="st19" d="M457.98,101.43l-50.7,32.71l-47.51-31.69c-1.38,3.76-2.17,7.81-2.17,12.03v19.66h0l39.55,27.29l0.76,25.5
		l0.73,0.51c0.76-1.42,2.06-1.92,2.06-1.92c5.19-1.58,6.19,2.94,6.19,2.94c0.38,2.03-0.26,3.31-0.97,4.09l3.19,2.24l3.77-2.51
		c-0.61-0.8-1.1-2-0.76-3.82c0,0,1-4.51,6.19-2.94c0,0,1.21,0.48,1.98,1.81l0.68-0.45v-25.45l39.55-27.29v-19.66
		C460.52,109.88,459.6,105.48,457.98,101.43z"/>
</g>
</svg>
