<?xml version="1.0" encoding="utf-8"?>
<!-- Generator: Adobe Illustrator 25.0.1, SVG Export Plug-In . SVG Version: 6.00 Build 0)  -->
<svg version="1.1" xmlns="http://www.w3.org/2000/svg" xmlns:xlink="http://www.w3.org/1999/xlink" x="0px" y="0px"
	 viewBox="0 0 209 273" style="enable-background:new 0 0 209 273;" xml:space="preserve">
<style type="text/css">
	.st0{fill:url(#SVGID_1_);}
	.st1{fill:url(#SVGID_2_);}
	.st2{fill:url(#SVGID_3_);}
	.st3{fill:#DB9379;}
	.st4{fill:#FFF5F0;}
	.st5{fill:none;stroke:#E3AC36;stroke-width:2;stroke-linecap:round;stroke-miterlimit:10;}
	.st6{fill:#C0F5F0;}
	.st7{fill:#FFFFFF;}
	.st8{fill:#FFAE00;}
	.st9{fill:url(#SVGID_4_);}
	.st10{fill:url(#SVGID_5_);}
	.st11{fill:url(#SVGID_6_);}
	.st12{fill:none;stroke:#FF897A;stroke-width:3;stroke-linecap:round;stroke-miterlimit:10;}
</style>
<g id="레이어_4">
	<linearGradient id="SVGID_1_" gradientUnits="userSpaceOnUse" x1="55.5" y1="275.9843" x2="55.5" y2="61.0202">
		<stop  offset="0.397" style="stop-color:#040303"/>
		<stop  offset="1" style="stop-color:#352E2B"/>
	</linearGradient>
	<path class="st0" d="M59,8c0,0-76,32-39,149.04c0,0,3,34.5-20,41.61c0,0,53.5,30.06,111,23.34L106.36,35.1l-62.77-9.2"/>
	<linearGradient id="SVGID_2_" gradientUnits="userSpaceOnUse" x1="150.5" y1="268.7924" x2="150.5" y2="65.4013">
		<stop  offset="0" style="stop-color:#040303"/>
		<stop  offset="0.7454" style="stop-color:#352E2B"/>
	</linearGradient>
	<path class="st1" d="M156,20c0,0,53,23,33,138c0,0-3,34,20,41c0,0-50,28-117,24l10.64-185.17l62.77-9.07"/>
	<linearGradient id="SVGID_3_" gradientUnits="userSpaceOnUse" x1="101.5" y1="127.6171" x2="101.5" y2="124.3146">
		<stop  offset="0.397" style="stop-color:#040303"/>
		<stop  offset="1" style="stop-color:#352E2B"/>
	</linearGradient>
	<line class="st2" x1="101.5" y1="123.5" x2="101.5" y2="126.8"/>
</g>
<g id="레이어_7">
	<path class="st3" d="M140.68,198.65c-21.45-1.35-19.19-27.52-19.19-27.52l1.41-0.31l-16.65-1.15v-0.08l-0.56,0.04l-0.56-0.04v0.08
		l-16.65,1.15l1.41,0.31c0,0,2.26,26.17-19.19,27.52c0,0,7.7,12.36,34.44,12.53v0.01c0.19,0,0.37,0,0.56,0c0.19,0,0.37,0.01,0.56,0
		v-0.01C132.98,211.01,140.68,198.65,140.68,198.65z"/>
</g>
<g id="레이어_1">
	<path class="st4" d="M172.44,82l8.04-7l-35.17-31l-28-37.66l-10,1.66l-8.83,28.9L62.81,82H31.37c0,0-11.05,96,70.95,96
		c81,0,70.95-96,70.95-96H172.44z"/>
	<line class="st5" x1="101.5" y1="125.15" x2="101.5" y2="129.55"/>
</g>
<g id="레이어_8">
	<path class="st6" d="M199.14,237.29L189,221c-12.62-20.19-44.35-26.23-54.1-27.63L135,193c0,0-0.13,0.12-0.37,0.33
		C132.96,193.09,132,193,132,193c-8.52,8.19-17.14,11.01-24.89,11.11c-0.04,0-0.07,0-0.11,0c-0.04,0-0.07,0-0.11,0
		C99.14,204.01,90.52,201.19,82,193c0,0-0.96,0.09-2.63,0.33C79.13,193.12,79,193,79,193l0.1,0.37c-9.75,1.41-41.48,7.44-54.1,27.63
		L8.48,240.27c9.67,7.72,20.3,14.27,31.7,19.44L50,249l-2.44,13.81C64.44,269.39,82.8,273,102,273c22.2,0,43.27-4.83,62.23-13.48
		L164,249l7.58,6.91C181.47,250.72,190.7,244.46,199.14,237.29z"/>
	<g>
		<g>
			<path class="st7" d="M50.64,201.16c2.01,0.74,4,1.4,5.96,2.05c1.96,0.65,3.9,1.26,5.83,1.84c2.24,0.67,3.51,3.02,2.84,5.26
				c-0.67,2.24-3.02,3.51-5.26,2.84c-0.82-0.24-1.5-0.71-2.01-1.31l-0.05-0.06c-1.4-1.64-2.73-3.34-3.96-5.09
				c-0.61-0.89-1.22-1.77-1.77-2.7C51.67,203.05,51.11,202.13,50.64,201.16z"/>
			<path class="st7" d="M72.82,210.05c3.39,1.75,6.86,3.3,10.41,4.62c2.59,0.96,3.91,3.84,2.94,6.43c-0.96,2.59-3.84,3.91-6.43,2.94
				l0,0c-3.95-1.47-7.79-3.18-11.51-5.1c-2.45-1.27-3.42-4.28-2.15-6.74C67.35,209.74,70.37,208.78,72.82,210.05L72.82,210.05z"/>
			<path class="st7" d="M94.07,217.89c3.67,0.82,7.38,1.37,11.1,1.61c2.76,0.18,4.84,2.56,4.67,5.31c-0.18,2.76-2.56,4.84-5.31,4.67
				c-4.26-0.28-8.49-0.9-12.63-1.83c-2.7-0.6-4.39-3.27-3.79-5.97C88.71,218.99,91.38,217.29,94.07,217.89z"/>
			<path class="st7" d="M116.32,219.29c3.69-0.39,7.34-1.1,10.91-2.12c2.66-0.76,5.42,0.78,6.18,3.44c0.76,2.66-0.78,5.42-3.43,6.18
				c-4.12,1.18-8.35,2-12.62,2.45c-2.75,0.29-5.21-1.71-5.49-4.45C111.58,222.04,113.57,219.58,116.32,219.29z"/>
			<path class="st7" d="M137.67,213.22c1.69-0.8,3.35-1.67,4.98-2.61c0.81-0.47,1.62-0.95,2.42-1.44c0.79-0.51,1.62-0.96,2.32-1.61
				c2.08-1.94,5.35-1.83,7.3,0.25c1.94,2.08,1.83,5.35-0.25,7.3c-0.39,0.36-0.81,0.65-1.26,0.87l-0.1,0.05
				c-0.96,0.46-1.81,1.1-2.72,1.64c-0.9,0.56-1.81,1.1-2.73,1.63c-1.84,1.05-3.73,2.04-5.65,2.96c-2.49,1.19-5.48,0.13-6.66-2.37
				S135.17,214.41,137.67,213.22z"/>
			<path class="st7" d="M158.58,203.17c0.76-0.35,1.56-0.68,2.36-1.01c0.8-0.34,1.6-0.68,2.43-1c-0.39,0.79-0.8,1.55-1.22,2.33
				c-0.42,0.77-0.83,1.56-1.28,2.31c-0.52,0.87-1.64,1.15-2.51,0.64c-0.87-0.52-1.15-1.64-0.64-2.51c0.2-0.33,0.48-0.58,0.81-0.73
				L158.58,203.17z"/>
		</g>
	</g>
</g>
<g id="레이어_2">
	<path class="st8" d="M57,75"/>
	<linearGradient id="SVGID_4_" gradientUnits="userSpaceOnUse" x1="107.2629" y1="107.0712" x2="107.2629" y2="0.3072">
		<stop  offset="0" style="stop-color:#352E2B"/>
		<stop  offset="0.2565" style="stop-color:#39312F"/>
		<stop  offset="0.5104" style="stop-color:#443A3B"/>
		<stop  offset="0.7624" style="stop-color:#574A4F"/>
		<stop  offset="0.9196" style="stop-color:#66575F"/>
	</linearGradient>
	<path class="st9" d="M26,107c-16.62,0.96,53.45-6.56,89.11-70.4c0,0,60.57,47.78,59.23,69.04L191,94.42c0,0,4-88.02-73-92.9
		l-2,28.98l-0.87-28.98C115.13,1.52,28-14,24,66L26,107z"/>
</g>
<g id="레이어_5">
	<radialGradient id="SVGID_5_" cx="60.8304" cy="140.6917" r="31.0536" gradientUnits="userSpaceOnUse">
		<stop  offset="2.012780e-07" style="stop-color:#FFC8AF"/>
		<stop  offset="0.2589" style="stop-color:#FFCBB3;stop-opacity:0.7411"/>
		<stop  offset="0.5005" style="stop-color:#FFD2BE;stop-opacity:0.4995"/>
		<stop  offset="0.7354" style="stop-color:#FFDFD1;stop-opacity:0.2646"/>
		<stop  offset="0.9647" style="stop-color:#FFF2EB;stop-opacity:0.0353"/>
		<stop  offset="1" style="stop-color:#FFF5F0;stop-opacity:0"/>
	</radialGradient>
	<path class="st10" d="M89,145c0-20.99-17.01-38-38-38c-6.65,0-12.9,1.71-18.34,4.72c2.86,22.41,12.55,51.53,42.43,62.67
		C83.58,167.41,89,156.84,89,145z"/>
	
		<radialGradient id="SVGID_6_" cx="59.8304" cy="140.6917" r="31.0536" gradientTransform="matrix(-1 0 0 1 201 0)" gradientUnits="userSpaceOnUse">
		<stop  offset="2.012780e-07" style="stop-color:#FFC8AF"/>
		<stop  offset="0.2589" style="stop-color:#FFCBB3;stop-opacity:0.7411"/>
		<stop  offset="0.5005" style="stop-color:#FFD2BE;stop-opacity:0.4995"/>
		<stop  offset="0.7354" style="stop-color:#FFDFD1;stop-opacity:0.2646"/>
		<stop  offset="0.9647" style="stop-color:#FFF2EB;stop-opacity:0.0353"/>
		<stop  offset="1" style="stop-color:#FFF5F0;stop-opacity:0"/>
	</radialGradient>
	<path class="st11" d="M113,145c0-20.99,17.01-38,38-38c6.65,0,12.9,1.71,18.34,4.72c-2.86,22.41-12.55,51.53-42.43,62.67
		C118.42,167.41,113,156.84,113,145z"/>
	<path class="st12" d="M90,135c0,0,11,11,23,0"/>
</g>
</svg>
