<?xml version="1.0" encoding="utf-8"?>
<!-- Generator: Adobe Illustrator 25.0.1, SVG Export Plug-In . SVG Version: 6.00 Build 0)  -->
<svg version="1.1" xmlns="http://www.w3.org/2000/svg" xmlns:xlink="http://www.w3.org/1999/xlink" x="0px" y="0px"
	 viewBox="0 0 1342.78 1043.77" style="enable-background:new 0 0 1342.78 1043.77;" xml:space="preserve">
<style type="text/css">
	.st0{fill:#333782;}
	.st1{fill:#231815;}
</style>
<g id="토로아티">
	<g id="심볼">
		<path class="st0" d="M574.85,541.36L574.85,541.36c-27.09-59.14-143.91-44.28-143.91-44.28s62.07,104.81,104.01,104.29l0-0.03
			c3.92,0.23,7.92-0.02,11.93-0.97c22.4-5.3,36.2-28.04,30.82-50.8C577.01,546.69,576.04,543.95,574.85,541.36z"/>
		<path class="st0" d="M854.91,541.35L854.91,541.35c-1.19,2.59-2.16,5.33-2.84,8.22c-5.38,22.76,8.42,45.5,30.82,50.8
			c4.01,0.95,8.01,1.21,11.93,0.97l0,0.03c41.94,0.51,104.01-104.29,104.01-104.29S882.01,482.22,854.91,541.35z"/>
		<path class="st0" d="M1051.99,348.95c0,0,0-201.61-69.37-318.68c0,0-95.39,60.7-188.61,160.42l-75.88-2.17l-75.88,2.17
			C549.04,90.97,453.65,30.27,453.65,30.27c-69.37,117.07-69.37,318.68-69.37,318.68C666.1,435.66,657.43,622.1,657.43,622.1h60.7
			h60.7C778.83,622.1,770.16,435.66,1051.99,348.95z"/>
	</g>
</g>
<g id="태그라인_1_">
	<g id="태그라인_2_">
		<path class="st1" d="M419.95,997.27h-24.58l-5.15,15.22h-3.75l18.97-55.26h4.53l18.96,55.26h-3.74L419.95,997.27z M396.46,994.23
			h22.48l-11.24-32.94L396.46,994.23z"/>
		<path class="st1" d="M464.83,985.56c0-3.28-0.79-5.86-2.38-7.76c-1.59-1.9-3.94-2.85-7.07-2.85c-1.56,0-3.11,0.29-4.64,0.86
			c-1.54,0.57-2.99,1.35-4.37,2.34c-1.38,0.99-2.66,2.14-3.83,3.48c-1.17,1.33-2.15,2.72-2.93,4.18v26.69h-3.59v-39.65h3.59v8.58
			c2.34-3.43,4.86-5.86,7.57-7.29c2.71-1.44,5.49-2.15,8.35-2.15c2.08,0,3.93,0.34,5.54,1.02c1.61,0.67,2.97,1.6,4.06,2.77
			c1.09,1.17,1.91,2.57,2.46,4.18c0.54,1.61,0.82,3.36,0.82,5.23v27.31h-3.59V985.56z"/>
		<path class="st1" d="M482.3,964.8c-0.93,0-1.69-0.33-2.26-0.98c-0.58-0.65-0.86-1.47-0.86-2.46s0.3-1.81,0.89-2.46
			c0.6-0.65,1.39-0.98,2.38-0.98s1.76,0.32,2.34,0.98c0.57,0.65,0.86,1.47,0.86,2.46s-0.3,1.81-0.9,2.46
			C484.16,964.47,483.35,964.8,482.3,964.8z M480.59,972.84h3.75v39.65h-3.75V972.84z"/>
		<path class="st1" d="M521.09,984.62c0-3.28-0.58-5.71-1.75-7.29c-1.17-1.59-3.24-2.38-6.21-2.38c-1.25,0-2.52,0.29-3.83,0.86
			c-1.3,0.57-2.52,1.33-3.67,2.27c-1.15,0.93-2.18,2.01-3.12,3.23c-0.94,1.22-1.72,2.46-2.34,3.71v27.47h-3.59v-39.65h3.59v7.81
			c1.87-2.97,3.95-5.16,6.24-6.56c2.29-1.41,4.57-2.11,6.87-2.11c3.07,0,5.46,0.64,7.18,1.92c1.72,1.27,2.91,3.08,3.59,5.42
			c3.23-4.89,7.47-7.33,12.72-7.33c2.08,0,3.89,0.33,5.43,0.98c1.54,0.65,2.8,1.52,3.78,2.62c0.99,1.09,1.72,2.38,2.18,3.86
			c0.47,1.48,0.71,3.08,0.71,4.8v28.25h-3.59v-27.86c0-2.91-0.67-5.25-1.99-7.03c-1.33-1.76-3.55-2.65-6.67-2.65
			c-2.66,0-4.99,0.76-6.98,2.27c-2.01,1.5-3.69,3.28-5.03,5.3c0.05,0.26,0.08,0.54,0.08,0.82c0,0.28,0,0.58,0,0.89v28.25h-3.59
			V984.62z"/>
		<path class="st1" d="M582.35,1012.49v-7.88c-1.87,2.81-4.03,5-6.48,6.56s-5.46,2.34-9.05,2.34c-1.87,0-3.48-0.33-4.8-0.98
			c-1.33-0.65-2.42-1.5-3.28-2.54s-1.5-2.22-1.92-3.52c-0.41-1.3-0.62-2.64-0.62-3.99c0-2.56,0.62-4.79,1.87-6.7
			c1.25-1.9,3.01-3.5,5.27-4.77c2.27-1.28,5-2.23,8.19-2.86c3.2-0.62,6.75-0.94,10.66-0.94v-1.24c0-0.98-0.13-2.12-0.39-3.41
			c-0.26-1.3-0.8-2.5-1.61-3.61c-0.81-1.11-2-2.05-3.56-2.83c-1.57-0.78-3.65-1.16-6.26-1.16c-1.83,0-3.61,0.3-5.33,0.9
			c-1.72,0.6-3.34,1.39-4.86,2.38l-0.93-2.58c1.67-1.09,3.53-1.98,5.59-2.65c2.06-0.68,4.29-1.02,6.7-1.02
			c2.92,0,5.32,0.47,7.2,1.41c1.88,0.93,3.37,2.16,4.46,3.67c1.1,1.51,1.85,3.21,2.27,5.11c0.41,1.9,0.62,3.81,0.62,5.73v24.59
			H582.35z M582.35,989.85c-2.19,0-4.59,0.14-7.2,0.43c-2.61,0.29-5.04,0.86-7.28,1.72c-2.25,0.86-4.13,2.08-5.64,3.67
			c-1.52,1.59-2.27,3.68-2.27,6.28c0,3.01,0.74,5.29,2.23,6.83c1.48,1.54,3.41,2.3,5.76,2.3c1.72,0,3.45-0.41,5.17-1.24
			c1.72-0.83,3.26-1.92,4.62-3.24c1.35-1.33,2.47-2.81,3.32-4.45c0.87-1.63,1.29-3.23,1.29-4.8V989.85z"/>
		<path class="st1" d="M598.98,954.89h3.74v57.6h-3.74V954.89z"/>
		<path class="st1" d="M654.61,957.23c5.36,0,9.39,1.39,12.1,4.18c2.7,2.79,4.06,6.7,4.06,11.75c-0.11,5.05-1.48,9.01-4.14,11.9
			c-2.65,2.88-6.66,4.33-12.02,4.33h-12.64v23.1h-3.9v-55.26H654.61z M654.15,986.42c3.74,0,6.81-1.05,9.21-3.16
			c2.39-2.11,3.59-5.43,3.59-9.95c0-4.47-1.2-7.77-3.59-9.91c-2.4-2.13-5.47-3.2-9.21-3.2h-12.18v26.22H654.15z"/>
		<path class="st1" d="M687.7,974.95c2.03-1.72,4.45-2.68,7.26-2.89c1.09-0.1,2.24-0.02,3.43,0.24v2.73
			c-0.78-0.15-1.59-0.23-2.42-0.23c-1.67,0-3.3,0.39-4.88,1.17c-1.59,0.78-2.97,1.81-4.18,3.08c-1.2,1.27-2.16,2.75-2.88,4.44
			c-0.73,1.7-1.09,3.48-1.09,5.35v23.65h-3.67v-39.65h3.67v8.58C684.08,978.82,685.68,976.67,687.7,974.95z"/>
		<path class="st1" d="M720.09,971.98c2.7,0,5.16,0.49,7.38,1.48c2.2,0.99,4.12,2.38,5.73,4.18c1.61,1.79,2.86,3.94,3.74,6.44
			c0.89,2.49,1.33,5.25,1.33,8.27c0,3.69-0.56,6.87-1.68,9.53c-1.12,2.65-2.58,4.83-4.37,6.55c-1.8,1.72-3.83,2.98-6.09,3.78
			c-2.26,0.81-4.51,1.21-6.75,1.21c-2.55,0-4.92-0.47-7.1-1.4c-2.18-0.94-4.09-2.28-5.73-4.02c-1.64-1.74-2.93-3.88-3.87-6.4
			c-0.93-2.53-1.4-5.37-1.4-8.55c0-3.32,0.49-6.29,1.48-8.89c0.99-2.6,2.33-4.8,4.02-6.59c1.69-1.8,3.68-3.17,5.97-4.14
			C715.04,972.46,717.49,971.98,720.09,971.98z M719.93,974.95c-2.5,0-4.68,0.49-6.56,1.48c-1.87,0.98-3.42,2.29-4.64,3.93
			c-1.22,1.63-2.14,3.53-2.77,5.69c-0.62,2.16-0.94,4.4-0.94,6.74c0,2.7,0.38,5.14,1.13,7.32c0.76,2.18,1.79,4.03,3.08,5.56
			c1.3,1.53,2.85,2.71,4.64,3.54c1.8,0.83,3.76,1.25,5.89,1.25c2.03,0,3.94-0.42,5.73-1.25c1.8-0.83,3.36-2.01,4.68-3.54
			c1.33-1.53,2.38-3.4,3.16-5.6c0.78-2.2,1.17-4.68,1.17-7.44c0-2.13-0.29-4.24-0.86-6.35c-0.58-2.1-1.46-4-2.65-5.69
			c-1.2-1.69-2.71-3.05-4.53-4.09C724.66,975.47,722.48,974.95,719.93,974.95z"/>
		<path class="st1" d="M753.64,972.84h9.99v2.81h-9.99v23.73c0,1.98,0.1,3.61,0.31,4.88c0.21,1.28,0.49,2.33,0.86,3.16
			c0.36,0.84,0.82,1.46,1.37,1.87c0.54,0.42,1.13,0.73,1.76,0.93c0.83,0.26,1.88,0.36,3.16,0.27c1.27-0.08,2.36-0.22,3.23-0.43
			l0.39,2.73c-0.83,0.16-1.7,0.3-2.61,0.43c-0.91,0.13-1.79,0.19-2.62,0.19c-1.35,0-2.6-0.21-3.75-0.62
			c-1.14-0.41-2.16-1.13-3.04-2.14c-0.89-1.02-1.57-2.39-2.07-4.13c-0.49-1.74-0.74-3.94-0.74-6.6v-24.27h-7.18v-2.81h7.18v-9.68
			h3.75V972.84z"/>
		<path class="st1" d="M800.94,1009.36c-2.24,1.41-4.44,2.41-6.6,3.01c-2.16,0.6-4.41,0.9-6.75,0.9c-2.49,0-4.85-0.45-7.06-1.33
			c-2.21-0.88-4.15-2.18-5.82-3.9c-1.66-1.72-2.97-3.83-3.94-6.36c-0.97-2.52-1.45-5.45-1.45-8.78c0-3.02,0.39-5.82,1.17-8.39
			c0.78-2.58,1.91-4.79,3.39-6.63s3.29-3.29,5.43-4.33c2.13-1.04,4.53-1.56,7.18-1.56c2.97,0,5.49,0.55,7.58,1.64
			c2.08,1.09,3.78,2.58,5.11,4.45c1.33,1.87,2.29,4.07,2.88,6.59c0.6,2.52,0.87,5.21,0.82,8.08h-29.81c0,3.11,0.41,5.78,1.21,8
			c0.81,2.23,1.91,4.05,3.29,5.48c1.38,1.42,2.99,2.46,4.81,3.1c1.83,0.65,3.76,0.98,5.79,0.98c2.19,0,4.26-0.28,6.22-0.84
			c1.96-0.56,3.98-1.43,6.06-2.6L800.94,1009.36z M799.14,990.09c-0.1-1.71-0.35-3.45-0.74-5.25c-0.39-1.79-1.06-3.41-2-4.89
			c-0.93-1.48-2.2-2.68-3.79-3.61c-1.59-0.93-3.64-1.39-6.15-1.39c-2.45,0-4.51,0.53-6.19,1.59c-1.67,1.06-3.01,2.37-4.03,3.92
			c-1.02,1.55-1.77,3.19-2.27,4.93c-0.49,1.73-0.8,3.3-0.9,4.7H799.14z"/>
		<path class="st1" d="M834.5,1012.74c-1.87,0.45-3.98,0.68-6.33,0.68c-3.01,0-5.72-0.5-8.12-1.52c-2.39-1.02-4.43-2.44-6.11-4.29
			s-2.96-4.03-3.83-6.56c-0.87-2.52-1.3-5.29-1.3-8.31s0.45-5.8,1.34-8.35c0.89-2.55,2.22-4.75,3.98-6.59
			c1.76-1.85,3.91-3.28,6.43-4.29c2.52-1.02,5.43-1.52,8.7-1.52c1.67,0,3.32,0.16,4.96,0.48c1.63,0.32,3.19,0.86,4.64,1.61
			l-0.62,2.75c-1.09-0.52-2.44-0.96-4.06-1.33c-1.61-0.36-3.25-0.54-4.92-0.54c-2.75,0-5.18,0.43-7.26,1.28
			c-2.08,0.85-3.82,2.06-5.23,3.61c-1.41,1.55-2.46,3.39-3.16,5.51c-0.71,2.12-1.06,4.46-1.06,6.99c0,2.91,0.41,5.48,1.21,7.73
			c0.81,2.25,1.94,4.15,3.4,5.67c1.46,1.53,3.22,2.69,5.31,3.5c2.07,0.8,4.4,1.21,6.94,1.21c1.66,0,3.37-0.23,5.11-0.67
			c1.74-0.44,3.27-0.95,4.57-1.52l0.55,2.66C838.08,1011.69,836.37,1012.29,834.5,1012.74z"/>
		<path class="st1" d="M854.32,972.84h9.99v2.81h-9.99v23.73c0,1.98,0.1,3.61,0.31,4.88c0.21,1.28,0.49,2.33,0.86,3.16
			c0.36,0.84,0.82,1.46,1.37,1.87c0.54,0.42,1.13,0.73,1.76,0.93c0.83,0.26,1.88,0.36,3.16,0.27c1.27-0.08,2.36-0.22,3.23-0.43
			l0.39,2.73c-0.83,0.16-1.7,0.3-2.61,0.43c-0.91,0.13-1.79,0.19-2.62,0.19c-1.35,0-2.6-0.21-3.75-0.62
			c-1.14-0.41-2.16-1.13-3.04-2.14c-0.89-1.02-1.57-2.39-2.07-4.13c-0.49-1.74-0.74-3.94-0.74-6.6v-24.27h-7.18v-2.81h7.18v-9.68
			h3.75V972.84z"/>
		<path class="st1" d="M875.77,964.8c-0.93,0-1.69-0.33-2.26-0.98c-0.58-0.65-0.86-1.47-0.86-2.46s0.3-1.81,0.89-2.46
			c0.6-0.65,1.39-0.98,2.38-0.98s1.76,0.32,2.34,0.98c0.57,0.65,0.86,1.47,0.86,2.46s-0.3,1.81-0.9,2.46
			C877.63,964.47,876.82,964.8,875.77,964.8z M874.06,972.84h3.75v39.65h-3.75V972.84z"/>
		<path class="st1" d="M906.29,971.98c2.7,0,5.16,0.49,7.38,1.48c2.2,0.99,4.12,2.38,5.73,4.18c1.61,1.79,2.86,3.94,3.74,6.44
			c0.89,2.49,1.33,5.25,1.33,8.27c0,3.69-0.56,6.87-1.68,9.53c-1.12,2.65-2.58,4.83-4.37,6.55c-1.8,1.72-3.83,2.98-6.09,3.78
			c-2.26,0.81-4.51,1.21-6.75,1.21c-2.55,0-4.92-0.47-7.1-1.4c-2.18-0.94-4.09-2.28-5.73-4.02c-1.64-1.74-2.93-3.88-3.87-6.4
			c-0.93-2.53-1.4-5.37-1.4-8.55c0-3.32,0.49-6.29,1.48-8.89c0.99-2.6,2.33-4.8,4.02-6.59c1.69-1.8,3.68-3.17,5.97-4.14
			C901.24,972.46,903.69,971.98,906.29,971.98z M906.13,974.95c-2.5,0-4.68,0.49-6.56,1.48c-1.87,0.98-3.42,2.29-4.64,3.93
			c-1.22,1.63-2.14,3.53-2.77,5.69c-0.62,2.16-0.94,4.4-0.94,6.74c0,2.7,0.38,5.14,1.13,7.32c0.76,2.18,1.79,4.03,3.08,5.56
			c1.3,1.53,2.85,2.71,4.64,3.54c1.8,0.83,3.76,1.25,5.89,1.25c2.03,0,3.94-0.42,5.73-1.25c1.8-0.83,3.36-2.01,4.68-3.54
			s2.38-3.4,3.16-5.6c0.78-2.2,1.17-4.68,1.17-7.44c0-2.13-0.29-4.24-0.86-6.35c-0.58-2.1-1.46-4-2.65-5.69
			c-1.2-1.69-2.71-3.05-4.53-4.09C910.87,975.47,908.68,974.95,906.13,974.95z"/>
		<path class="st1" d="M960.99,985.56c0-3.28-0.79-5.86-2.38-7.76c-1.59-1.9-3.94-2.85-7.07-2.85c-1.56,0-3.11,0.29-4.64,0.86
			c-1.54,0.57-2.99,1.35-4.37,2.34c-1.38,0.99-2.66,2.14-3.83,3.48c-1.17,1.33-2.15,2.72-2.93,4.18v26.69h-3.59v-39.65h3.59v8.58
			c2.34-3.43,4.86-5.86,7.57-7.29c2.71-1.44,5.49-2.15,8.35-2.15c2.08,0,3.93,0.34,5.54,1.02c1.61,0.67,2.97,1.6,4.06,2.77
			c1.09,1.17,1.91,2.57,2.46,4.18c0.54,1.61,0.82,3.36,0.82,5.23v27.31h-3.59V985.56z"/>
		<path class="st1" d="M1019.99,1012.74c-1.87,0.45-3.98,0.68-6.33,0.68c-3.01,0-5.72-0.5-8.12-1.52c-2.39-1.02-4.43-2.44-6.11-4.29
			s-2.96-4.03-3.83-6.56c-0.87-2.52-1.3-5.29-1.3-8.31s0.45-5.8,1.34-8.35c0.89-2.55,2.22-4.75,3.98-6.59
			c1.76-1.85,3.91-3.28,6.43-4.29c2.52-1.02,5.43-1.52,8.7-1.52c1.67,0,3.32,0.16,4.96,0.48c1.63,0.32,3.19,0.86,4.64,1.61
			l-0.62,2.75c-1.09-0.52-2.44-0.96-4.06-1.33c-1.61-0.36-3.25-0.54-4.92-0.54c-2.75,0-5.18,0.43-7.26,1.28
			c-2.08,0.85-3.82,2.06-5.23,3.61c-1.41,1.55-2.46,3.39-3.16,5.51c-0.71,2.12-1.06,4.46-1.06,6.99c0,2.91,0.41,5.48,1.21,7.73
			c0.81,2.25,1.94,4.15,3.4,5.67c1.46,1.53,3.22,2.69,5.31,3.5c2.07,0.8,4.4,1.21,6.94,1.21c1.66,0,3.37-0.23,5.11-0.67
			c1.74-0.44,3.27-0.95,4.57-1.52l0.55,2.66C1023.58,1011.69,1021.86,1012.29,1019.99,1012.74z"/>
		<path class="st1" d="M1048.4,971.98c2.7,0,5.16,0.49,7.38,1.48c2.2,0.99,4.12,2.38,5.73,4.18c1.61,1.79,2.86,3.94,3.74,6.44
			c0.89,2.49,1.33,5.25,1.33,8.27c0,3.69-0.56,6.87-1.68,9.53c-1.12,2.65-2.58,4.83-4.37,6.55c-1.8,1.72-3.83,2.98-6.09,3.78
			c-2.26,0.81-4.51,1.21-6.75,1.21c-2.55,0-4.92-0.47-7.1-1.4c-2.18-0.94-4.09-2.28-5.73-4.02c-1.64-1.74-2.93-3.88-3.87-6.4
			c-0.93-2.53-1.4-5.37-1.4-8.55c0-3.32,0.49-6.29,1.48-8.89c0.99-2.6,2.33-4.8,4.02-6.59c1.69-1.8,3.68-3.17,5.97-4.14
			C1043.35,972.46,1045.79,971.98,1048.4,971.98z M1048.24,974.95c-2.5,0-4.68,0.49-6.56,1.48c-1.87,0.98-3.42,2.29-4.64,3.93
			c-1.22,1.63-2.14,3.53-2.77,5.69c-0.62,2.16-0.94,4.4-0.94,6.74c0,2.7,0.38,5.14,1.13,7.32c0.76,2.18,1.79,4.03,3.08,5.56
			c1.3,1.53,2.85,2.71,4.64,3.54c1.8,0.83,3.76,1.25,5.89,1.25c2.03,0,3.94-0.42,5.73-1.25c1.8-0.83,3.36-2.01,4.68-3.54
			s2.38-3.4,3.16-5.6c0.78-2.2,1.17-4.68,1.17-7.44c0-2.13-0.29-4.24-0.86-6.35c-0.58-2.1-1.46-4-2.65-5.69
			c-1.2-1.69-2.71-3.05-4.53-4.09C1052.97,975.47,1050.79,974.95,1048.24,974.95z"/>
		<path class="st1" d="M1080.15,1012.49h-5.78v-5.93h5.78V1012.49z"/>
	</g>
</g>
<g id="로고_1_">
	<g id="로고">
		<path class="st1" d="M358.83,805.82h-31.85v105.1h-44.32v-105.1h-31.85v-43.29h108.01V805.82z"/>
		<path class="st1" d="M523.24,836.72c0,8.87-1.46,17.46-4.37,25.77c-2.92,8.32-7.22,16.01-12.9,23.08
			c-7.36,9.14-16.17,16.1-26.43,20.88c-10.27,4.78-21.43,7.17-33.51,7.17c-8.88,0-17.48-1.46-25.8-4.36
			c-8.32-2.91-15.96-7.2-22.9-12.89c-9.02-7.34-15.99-16.21-20.91-26.6c-4.93-10.39-7.39-21.41-7.39-33.05
			c0-21.06,7.56-39.15,22.68-54.25c7.07-7.2,15.4-12.82,24.98-16.83s19.35-6.03,29.34-6.03c10.54,0,20.4,1.91,29.56,5.72
			c9.15,3.8,17.55,9.52,25.18,17.14C515.74,797.72,523.24,815.8,523.24,836.72z M479.74,836.83c0-9.16-3.26-17.07-9.79-23.73
			c-6.52-6.66-14.43-9.99-23.72-9.99c-9.3,0-17.24,3.3-23.83,9.88c-6.59,6.59-9.89,14.54-9.89,23.83c0,9.3,3.26,17.2,9.79,23.72
			c6.52,6.52,14.5,9.79,23.93,9.79c9.43,0,17.38-3.23,23.82-9.68C476.52,854.2,479.74,846.26,479.74,836.83z"/>
		<path class="st1" d="M656.64,910.91h-46.62l-20.19-46.62v-39.13h4.79c4.16,0,7.21-0.73,9.16-2.18c1.94-1.46,2.91-4.2,2.91-8.22
			c0-3.89-0.98-6.49-2.91-7.81c-1.95-1.32-5-1.98-9.16-1.98h-11.65v105.93h-44.33V762.52h54.32c8.6,0,14.99,0.42,19.15,1.25
			c6.65,1.39,13.11,4.37,19.35,8.95c13.45,9.99,20.18,23.31,20.18,39.96c0,14.7-6.94,27.47-20.81,38.29L656.64,910.91z"/>
		<path class="st1" d="M814.18,836.72c0,8.87-1.46,17.46-4.37,25.77c-2.92,8.32-7.22,16.01-12.9,23.08
			c-7.36,9.14-16.17,16.1-26.43,20.88s-21.43,7.17-33.51,7.17c-8.88,0-17.48-1.46-25.8-4.36c-8.32-2.91-15.96-7.2-22.9-12.89
			c-9.02-7.34-15.99-16.21-20.91-26.6c-4.93-10.39-7.39-21.41-7.39-33.05c0-21.06,7.56-39.15,22.68-54.25
			c7.07-7.2,15.4-12.82,24.98-16.83c9.57-4.02,19.35-6.03,29.34-6.03c10.54,0,20.4,1.91,29.56,5.72c9.15,3.8,17.55,9.52,25.18,17.14
			C806.69,797.72,814.18,815.8,814.18,836.72z M770.68,836.83c0-9.16-3.26-17.07-9.79-23.73c-6.52-6.66-14.43-9.99-23.72-9.99
			c-9.3,0-17.24,3.3-23.83,9.88c-6.59,6.59-9.89,14.54-9.89,23.83c0,9.3,3.26,17.2,9.79,23.72c6.52,6.52,14.5,9.79,23.93,9.79
			c9.43,0,17.38-3.23,23.82-9.68C767.46,854.2,770.68,846.26,770.68,836.83z"/>
		<path class="st1" d="M936.55,910.91h-43.5v-89.7c0-10.82-3.12-16.24-9.37-16.24c-3.61,0-5.96,1.28-7.07,3.85s-1.66,6.7-1.66,12.38
			v15.61h11.44v39.33h-11.44v34.76h-45.37v-79.08c0-7.77,0.11-13.49,0.32-17.18c0.21-3.67,1-8.15,2.39-13.42
			c3.47-13.32,9.64-23.58,18.52-30.8c8.88-7.21,19.63-10.82,32.26-10.82c18.45,0,32.67,7.63,42.66,22.9
			c4.3,6.65,7.28,14.43,8.95,23.31c1.25,6.8,1.87,15.47,1.87,26.01V910.91z"/>
		<path class="st1" d="M1052.47,805.82h-31.85v105.1H976.3v-105.1h-31.85v-43.29h108.01V805.82z"/>
		<path class="st1" d="M1185.45,762.52l-42.87,67.43v80.96h-44.33v-80.96l-42.87-67.43h44.33l20.81,29.35l20.61-29.35H1185.45z"/>
	</g>
</g>
</svg>
