<svg xmlns="http://www.w3.org/2000/svg" xmlns:xlink="http://www.w3.org/1999/xlink" width="2345.083" height="1626.959" viewBox="0 0 2345.083 1626.959">
  <defs>
    <clipPath id="clip-path">
      <path id="패스_203" data-name="패스 203" d="M0,1371.011H2345.083V-255.948H0Z" transform="translate(0 255.948)" fill="none"/>
    </clipPath>
  </defs>
  <g id="그룹_109" data-name="그룹 109" transform="translate(0 255.948)">
    <g id="그룹_22" data-name="그룹 22" transform="translate(2034.89 63.671)">
      <path id="패스_188" data-name="패스 188" d="M46.029,0H-8.593" transform="translate(8.593)" fill="none" stroke="#4e5055" stroke-width="0.5"/>
    </g>
    <g id="그룹_23" data-name="그룹 23" transform="translate(2034.89 264.406)">
      <path id="패스_189" data-name="패스 189" d="M46.029,0H-8.593" transform="translate(8.593)" fill="none" stroke="#4e5055" stroke-width="0.5"/>
    </g>
    <g id="그룹_24" data-name="그룹 24" transform="translate(2088.508 62.318)">
      <path id="패스_190" data-name="패스 190" d="M0,0V205.255" fill="none" stroke="#4e5055" stroke-width="0.5"/>
    </g>
    <g id="그룹_25" data-name="그룹 25" transform="translate(2034.89 314.886)">
      <path id="패스_191" data-name="패스 191" d="M46.029,0H-8.593" transform="translate(8.593)" fill="none" stroke="#787a7e" stroke-width="0.5"/>
    </g>
    <g id="그룹_26" data-name="그룹 26" transform="translate(2034.89 394.702)">
      <path id="패스_192" data-name="패스 192" d="M46.029,0H-8.593" transform="translate(8.593)" fill="none" stroke="#787a7e" stroke-width="0.5"/>
    </g>
    <g id="그룹_27" data-name="그룹 27" transform="translate(2088.508 312.583)">
      <path id="패스_193" data-name="패스 193" d="M0,0V85.159" fill="none" stroke="#787a7e" stroke-width="0.5"/>
    </g>
    <g id="그룹_28" data-name="그룹 28" transform="translate(527.601 -111.008)">
      <path id="패스_194" data-name="패스 194" d="M0,0V57.025" fill="none" stroke="#787a7e" stroke-width="0.5"/>
    </g>
    <g id="그룹_29" data-name="그룹 29" transform="translate(602.75 -111.008)">
      <path id="패스_195" data-name="패스 195" d="M0,0V57.025" fill="none" stroke="#787a7e" stroke-width="0.5"/>
    </g>
    <g id="그룹_30" data-name="그룹 30" transform="translate(525.34 -110.029)">
      <path id="패스_196" data-name="패스 196" d="M0,0H80.366" fill="none" stroke="#787a7e" stroke-width="0.5"/>
    </g>
    <g id="그룹_31" data-name="그룹 31" transform="translate(2039.409 656.368)">
      <path id="패스_197" data-name="패스 197" d="M46.029,0H-8.593" transform="translate(8.593)" fill="none" stroke="#787a7e" stroke-width="0.5"/>
    </g>
    <g id="그룹_32" data-name="그룹 32" transform="translate(2039.409 1026.761)">
      <path id="패스_198" data-name="패스 198" d="M46.029,0H-8.593" transform="translate(8.593)" fill="none" stroke="#787a7e" stroke-width="0.5"/>
    </g>
    <g id="그룹_33" data-name="그룹 33" transform="translate(2093.026 655.214)">
      <path id="패스_199" data-name="패스 199" d="M0,0V376.044" transform="translate(0 0)" fill="none" stroke="#787a7e" stroke-width="0.5"/>
    </g>
    <text id="X" transform="translate(2138.668 837.524)" fill="#2b2e34" font-size="57" font-family="NanumSquareEB, NanumSquare"><tspan x="0" y="0">X</tspan></text>
    <g id="그룹_37" data-name="그룹 37" transform="translate(0 -255.948)" clip-path="url(#clip-path)">
      <g id="그룹_34" data-name="그룹 34" transform="translate(110.722 567.398)">
        <path id="패스_200" data-name="패스 200" d="M80.729,25.772v-.006C62.7-13.6-15.071-3.7-15.071-3.7s41.324,69.77,69.236,69.427l.006-.025a27.028,27.028,0,0,0,7.939-.648A27.962,27.962,0,0,0,82.624,31.239a28.763,28.763,0,0,0-1.894-5.467" transform="translate(15.071 4.811)" fill="#333882"/>
      </g>
      <g id="그룹_35" data-name="그룹 35" transform="translate(390.292 567.399)">
        <path id="패스_201" data-name="패스 201" d="M2.248,25.767v.006a29.309,29.309,0,0,0-1.894,5.46A27.975,27.975,0,0,0,20.873,65.051a27.028,27.028,0,0,0,7.939.648v.025C56.73,66.068,98.048-3.7,98.048-3.7s-77.76-9.9-95.8,29.469" transform="translate(0.42 4.81)" fill="#333882"/>
      </g>
      <g id="그룹_36" data-name="그룹 36" transform="translate(79.669 257.754)">
        <path id="패스_202" data-name="패스 202" d="M374.555,178.766s0-134.213-46.181-212.139c0,0-63.5,40.409-125.549,106.791l-50.51-1.443-50.51,1.443C39.753,7.036-23.743-33.373-23.743-33.373-69.924,44.553-69.924,178.766-69.924,178.766,117.678,236.49,111.907,360.6,111.907,360.6h80.818S186.946,236.49,374.555,178.766" transform="translate(69.924 33.373)" fill="#333882"/>
      </g>
    </g>
    <g id="그룹_38" data-name="그룹 38" transform="translate(603.094 58.46)">
      <path id="패스_204" data-name="패스 204" d="M127.8,51.225H83.085V198.781H20.854V51.225H-23.858V-9.563H127.8Z" transform="translate(23.858 9.563)" fill="#231614"/>
    </g>
    <g id="그룹_43" data-name="그룹 43" transform="translate(0 -255.948)" clip-path="url(#clip-path)">
      <g id="그룹_39" data-name="그룹 39" transform="translate(769.057 310.322)">
        <path id="패스_205" data-name="패스 205" d="M182.462,91.234a108.446,108.446,0,0,1-24.25,68.575A102.95,102.95,0,0,1,121.1,189.132,110.049,110.049,0,0,1,74.05,199.2a109.278,109.278,0,0,1-36.226-6.121,105.117,105.117,0,0,1-32.145-18.1A107.4,107.4,0,0,1-34.063,91.234q0-44.356,31.853-76.165A106,106,0,0,1,32.859-8.565,105.459,105.459,0,0,1,74.05-17.032,106.959,106.959,0,0,1,115.552-9,109.082,109.082,0,0,1,150.9,15.069q31.561,32.1,31.561,76.165m-61.068.146a45.97,45.97,0,0,0-13.737-33.315A44.864,44.864,0,0,0,74.349,44.042,45.583,45.583,0,0,0,40.894,57.919,45.59,45.59,0,0,0,27,91.38a45.311,45.311,0,0,0,13.743,33.3q13.721,13.74,33.6,13.743,19.861,0,33.448-13.59t13.6-33.455" transform="translate(34.063 17.032)" fill="#231614"/>
      </g>
      <g id="그룹_40" data-name="그룹 40" transform="translate(1007.202 314.411)">
        <path id="패스_206" data-name="패스 206" d="M139.62,175.568H74.166l-28.35-65.454V55.18h6.725q8.763,0,12.859-3.064,4.081-3.07,4.087-11.544,0-8.19-4.087-10.965-4.11-2.775-12.859-2.778H36.172V175.568H-26.065V-32.776H50.208q18.107,0,26.882,1.754a70.1,70.1,0,0,1,27.168,12.561Q132.6,2.592,132.6,37.649q0,30.969-29.221,53.77Z" transform="translate(26.065 32.776)" fill="#231614"/>
      </g>
      <g id="그룹_41" data-name="그룹 41" transform="translate(1177.551 310.322)">
        <path id="패스_207" data-name="패스 207" d="M182.462,91.234a108.446,108.446,0,0,1-24.25,68.575A102.95,102.95,0,0,1,121.1,189.132,110.029,110.029,0,0,1,74.05,199.2a109.278,109.278,0,0,1-36.226-6.121,105.117,105.117,0,0,1-32.145-18.1A107.4,107.4,0,0,1-34.063,91.234q0-44.356,31.853-76.165A106,106,0,0,1,32.859-8.565,105.459,105.459,0,0,1,74.05-17.032,106.959,106.959,0,0,1,115.552-9,109.082,109.082,0,0,1,150.9,15.069q31.561,32.1,31.561,76.165m-61.068.146a45.97,45.97,0,0,0-13.737-33.315A44.864,44.864,0,0,0,74.349,44.042,45.583,45.583,0,0,0,40.894,57.919,45.59,45.59,0,0,0,27,91.38a45.311,45.311,0,0,0,13.743,33.3q13.721,13.74,33.6,13.743,19.861,0,33.448-13.59t13.6-33.455" transform="translate(34.063 17.032)" fill="#231614"/>
      </g>
      <g id="그룹_42" data-name="그룹 42" transform="translate(1415.695 310.324)">
        <path id="패스_208" data-name="패스 208" d="M126.571,179.012H65.5V53.069q0-22.788-13.152-22.795-7.6,0-9.935,5.409T40.077,53.069V74.986H56.14v55.226H40.077v48.8H-23.629V67.981q0-16.381.445-24.117a97.27,97.27,0,0,1,3.356-18.841q7.3-28.061,26-43.25t45.3-15.192q38.855,0,59.9,32.145a90.434,90.434,0,0,1,12.567,32.73q2.632,14.312,2.632,36.525Z" transform="translate(23.629 33.419)" fill="#231614"/>
      </g>
    </g>
    <g id="그룹_44" data-name="그룹 44" transform="translate(1576.995 58.46)">
      <path id="패스_210" data-name="패스 210" d="M127.8,51.225H83.085V198.781H20.854V51.225H-23.858V-9.563H127.8Z" transform="translate(23.858 9.563)" fill="#231614"/>
    </g>
    <g id="그룹_45" data-name="그룹 45" transform="translate(1732.727 58.461)">
      <path id="패스_211" data-name="패스 211" d="M153.9,0,93.71,94.682V208.344H31.472V94.682L-28.731,0H33.513L62.728,41.2,91.669,0Z" transform="translate(28.731)" fill="#231614"/>
    </g>
    <g id="그룹_46" data-name="그룹 46" transform="translate(824.351 326.953)">
      <path id="패스_212" data-name="패스 212" d="M35.487,42.44H4.569L-1.908,61.586H-6.625L17.231-7.923h5.7l23.85,69.509h-4.7ZM5.942,38.614H34.216L20.073-2.819Z" transform="translate(6.625 7.923)" fill="#231614"/>
    </g>
    <g id="그룹_51" data-name="그룹 51" transform="translate(0 -255.948)" clip-path="url(#clip-path)">
      <g id="그룹_47" data-name="그룹 47" transform="translate(886.689 601.456)">
        <path id="패스_213" data-name="패스 213" d="M30.522,14.393q0-6.179-2.988-9.764c-2-2.39-4.958-3.585-8.893-3.585a16.618,16.618,0,0,0-5.835,1.081,23.11,23.11,0,0,0-5.5,2.949A28.268,28.268,0,0,0,2.5,9.441,27.487,27.487,0,0,0-1.185,14.7V48.267H-5.7V-1.606h4.513v10.8Q3.239,2.71,8.337.021A22.148,22.148,0,0,1,18.845-2.687a17.871,17.871,0,0,1,6.967,1.278,14.794,14.794,0,0,1,5.111,3.483,14.486,14.486,0,0,1,3.089,5.251,20.633,20.633,0,0,1,1.03,6.585V48.267h-4.52Z" transform="translate(5.698 2.687)" fill="#231614"/>
      </g>
      <g id="그룹_48" data-name="그룹 48" transform="translate(940.972 583.791)">
        <path id="패스_214" data-name="패스 214" d="M3.305,7.28A3.611,3.611,0,0,1,.464,6.053a4.5,4.5,0,0,1-1.081-3.1A4.363,4.363,0,0,1,.508-.132,3.869,3.869,0,0,1,3.5-1.359,3.728,3.728,0,0,1,6.452-.132,4.54,4.54,0,0,1,7.532,2.957,4.412,4.412,0,0,1,6.4,6.053a4.012,4.012,0,0,1-3.1,1.227M1.144,17.387H5.86V67.26H1.144Z" transform="translate(0.617 1.359)" fill="#231614"/>
      </g>
      <g id="그룹_49" data-name="그룹 49" transform="translate(962.863 601.457)">
        <path id="패스_215" data-name="패스 215" d="M25.974,13.4q0-6.179-2.206-9.173t-7.806-3A11.942,11.942,0,0,0,11.151,2.31,19.706,19.706,0,0,0,6.536,5.164,23.836,23.836,0,0,0,2.614,9.232,28.522,28.522,0,0,0-.329,13.892V48.446h-4.52V-1.421h4.52V8.4A24.983,24.983,0,0,1,7.521.149,16.382,16.382,0,0,1,16.16-2.5q5.8,0,9.026,2.409a12.484,12.484,0,0,1,4.52,6.821q6.093-9.23,16-9.23a17.506,17.506,0,0,1,6.827,1.227,13.276,13.276,0,0,1,4.755,3.293,12.812,12.812,0,0,1,2.746,4.856,19.674,19.674,0,0,1,.9,6.039V48.446H56.41V13.4a14.4,14.4,0,0,0-2.5-8.836Q51.4,1.229,45.514,1.229A14.156,14.156,0,0,0,36.73,4.083,26.808,26.808,0,0,0,30.4,10.752a5.977,5.977,0,0,1,.1,1.036V48.446h-4.52Z" transform="translate(4.849 2.502)" fill="#231614"/>
      </g>
      <g id="그룹_50" data-name="그룹 50" transform="translate(1037.853 601.46)">
        <path id="패스_216" data-name="패스 216" d="M27.715,42.933V33.017a27.953,27.953,0,0,1-8.149,8.251A20.767,20.767,0,0,1,8.181,44.211a13.586,13.586,0,0,1-6.039-1.233,12.215,12.215,0,0,1-4.119-3.2A13.352,13.352,0,0,1-4.386,35.35a16.51,16.51,0,0,1-.788-5.022,15.025,15.025,0,0,1,2.358-8.422,18.79,18.79,0,0,1,6.63-6,34.344,34.344,0,0,1,10.3-3.6,70.461,70.461,0,0,1,13.406-1.182V9.561a22.277,22.277,0,0,0-.489-4.284A11.544,11.544,0,0,0,25.013.732a12.176,12.176,0,0,0-4.488-3.56A17.938,17.938,0,0,0,12.65-4.284,20.189,20.189,0,0,0,5.944-3.152,27.772,27.772,0,0,0-.165-.165l-1.17-3.242A29.392,29.392,0,0,1,5.7-6.737a26.641,26.641,0,0,1,8.422-1.278A20.19,20.19,0,0,1,23.17-6.248a15.027,15.027,0,0,1,5.619,4.615,17.093,17.093,0,0,1,2.854,6.427,33.759,33.759,0,0,1,.788,7.215V42.933Zm0-28.471a83.108,83.108,0,0,0-9.065.54A36.728,36.728,0,0,0,9.5,17.163,18.976,18.976,0,0,0,2.4,21.778a10.958,10.958,0,0,0-2.86,7.9q0,5.692,2.81,8.588a9.6,9.6,0,0,0,7.24,2.892A14.8,14.8,0,0,0,16.1,39.6a21.9,21.9,0,0,0,5.816-4.075,22.183,22.183,0,0,0,4.183-5.6,12.841,12.841,0,0,0,1.621-6.039Z" transform="translate(5.174 8.015)" fill="#231614"/>
      </g>
    </g>
    <path id="패스_218" data-name="패스 218" d="M171.736-92.259h4.71v-72.452h-4.71Z" transform="translate(919.921 488.72)" fill="#231614"/>
    <g id="그룹_64" data-name="그룹 64" transform="translate(0 -255.948)" clip-path="url(#clip-path)">
      <g id="그룹_52" data-name="그룹 52" transform="translate(1140.827 582.901)">
        <path id="패스_219" data-name="패스 219" d="M17.538,0Q27.644,0,32.762,5.251q5.092,5.263,5.1,14.785-.21,9.516-5.212,14.97T17.538,40.447H1.633V69.509H-3.274V0Zm-.585,36.716a16.9,16.9,0,0,0,11.582-3.973q4.51-3.986,4.52-12.522,0-8.429-4.52-12.465A16.8,16.8,0,0,0,16.953,3.731H1.633V36.716Z" transform="translate(3.274)" fill="#231614"/>
      </g>
      <g id="그룹_53" data-name="그룹 53" transform="translate(1192.657 601.498)">
        <path id="패스_220" data-name="패스 220" d="M8.935,3.111A15.578,15.578,0,0,1,18.069-.525a14.02,14.02,0,0,1,4.316.3V3.206a15.938,15.938,0,0,0-3.038-.292A13.727,13.727,0,0,0,13.2,4.389,18.167,18.167,0,0,0,7.95,8.266,19.2,19.2,0,0,0,4.32,13.86a16.837,16.837,0,0,0-1.373,6.725V50.328H-1.668V.46H2.947v10.8A22.2,22.2,0,0,1,8.935,3.111" transform="translate(1.668 0.581)" fill="#231614"/>
      </g>
      <g id="그룹_54" data-name="그룹 54" transform="translate(1220.341 601.457)">
        <path id="패스_221" data-name="패스 221" d="M19.937,0a22.519,22.519,0,0,1,9.281,1.869,21.276,21.276,0,0,1,7.208,5.251,23.971,23.971,0,0,1,4.71,8.1,30.926,30.926,0,0,1,1.665,10.4,30.839,30.839,0,0,1-2.1,11.982,24.4,24.4,0,0,1-5.5,8.238A21.325,21.325,0,0,1,27.54,50.6a25.071,25.071,0,0,1-8.492,1.519,22.46,22.46,0,0,1-8.931-1.761A21.552,21.552,0,0,1,2.9,45.31a23.587,23.587,0,0,1-4.863-8.054A30.783,30.783,0,0,1-3.722,26.5,31.353,31.353,0,0,1-1.86,15.313,24.853,24.853,0,0,1,3.194,7.024,21.984,21.984,0,0,1,10.7,1.812,23.673,23.673,0,0,1,19.937,0m-.2,3.731A17.4,17.4,0,0,0,11.489,5.6a17.155,17.155,0,0,0-5.842,4.939A22.177,22.177,0,0,0,2.164,17.69,30.42,30.42,0,0,0,.982,26.164a27.927,27.927,0,0,0,1.43,9.211,21.61,21.61,0,0,0,3.878,7,16.894,16.894,0,0,0,5.835,4.456,17.4,17.4,0,0,0,7.412,1.576,16.864,16.864,0,0,0,7.215-1.576,17.279,17.279,0,0,0,5.893-4.456,21.588,21.588,0,0,0,3.973-7.049A27.816,27.816,0,0,0,38.1,25.967a30.267,30.267,0,0,0-1.081-7.978,22.616,22.616,0,0,0-3.337-7.158,17.481,17.481,0,0,0-5.7-5.136A16.325,16.325,0,0,0,19.74,3.731" transform="translate(3.722)" fill="#231614"/>
      </g>
      <g id="그룹_55" data-name="그룹 55" transform="translate(1272.466 590.364)">
        <path id="패스_222" data-name="패스 222" d="M11.581,10.258H24.142v3.534H11.581V43.636a39.373,39.373,0,0,0,.388,6.134,16.616,16.616,0,0,0,1.081,3.973A5.653,5.653,0,0,0,14.772,56.1a7.4,7.4,0,0,0,2.206,1.176,10.951,10.951,0,0,0,3.979.343,23.869,23.869,0,0,0,4.068-.534l.489,3.433c-1.042.2-2.142.381-3.28.54a23.166,23.166,0,0,1-3.293.242,13.626,13.626,0,0,1-4.717-.782,9.215,9.215,0,0,1-3.827-2.7,13.379,13.379,0,0,1-2.6-5.2,31,31,0,0,1-.934-8.3V13.792H-2.162V10.258H6.864V-1.915h4.717Z" transform="translate(2.162 1.915)" fill="#231614"/>
      </g>
      <g id="그룹_56" data-name="그룹 56" transform="translate(1305.934 601.458)">
        <path id="패스_223" data-name="패스 223" d="M33.506,39.623A31.22,31.22,0,0,1,25.2,43.4a31.475,31.475,0,0,1-8.492,1.131,23.72,23.72,0,0,1-8.88-1.672A20.874,20.874,0,0,1,.515,37.957a23.261,23.261,0,0,1-4.952-8A30.726,30.726,0,0,1-6.255,18.919,36.107,36.107,0,0,1-4.78,8.361,24.423,24.423,0,0,1-.515.015,19.8,19.8,0,0,1,6.312-5.439,20.363,20.363,0,0,1,15.338-7.4a20.309,20.309,0,0,1,9.529,2.066A17.928,17.928,0,0,1,31.293.263a23.557,23.557,0,0,1,3.63,8.3,40.891,40.891,0,0,1,1.036,10.158h-37.5A29.735,29.735,0,0,0-.019,28.785a19.182,19.182,0,0,0,4.138,6.891,15.563,15.563,0,0,0,6.051,3.9,21.536,21.536,0,0,0,7.285,1.227A28.242,28.242,0,0,0,25.28,39.75a35.691,35.691,0,0,0,7.628-3.261ZM31.243,15.385a42.331,42.331,0,0,0-.934-6.6A18.794,18.794,0,0,0,27.8,2.634,13.863,13.863,0,0,0,23.03-1.911a15.215,15.215,0,0,0-7.736-1.754,14.244,14.244,0,0,0-7.78,2A16.647,16.647,0,0,0,2.441,3.269a22.439,22.439,0,0,0-2.848,6.2,29.467,29.467,0,0,0-1.131,5.912Z" transform="translate(6.255 7.397)" fill="#231614"/>
      </g>
      <g id="그룹_57" data-name="그룹 57" transform="translate(1355.615 601.455)">
        <path id="패스_224" data-name="패스 224" d="M27.217,43.206a33.822,33.822,0,0,1-7.958.858A25.936,25.936,0,0,1,9.05,42.151a21.82,21.82,0,0,1-7.691-5.4A23.493,23.493,0,0,1-3.454,28.5a32.086,32.086,0,0,1-1.627-10.45A31.54,31.54,0,0,1-3.4,7.546a22.758,22.758,0,0,1,5-8.3,22.812,22.812,0,0,1,8.092-5.4,29.092,29.092,0,0,1,10.94-1.92,33.184,33.184,0,0,1,6.242.6,22.126,22.126,0,0,1,5.835,2.021L31.927-1.97a24.435,24.435,0,0,0-5.111-1.678,28.333,28.333,0,0,0-6.185-.687A23.807,23.807,0,0,0,11.5-2.714,17.781,17.781,0,0,0,4.931,1.825,19.051,19.051,0,0,0,.958,8.766,27.688,27.688,0,0,0-.377,17.557a28.821,28.821,0,0,0,1.519,9.726A20.047,20.047,0,0,0,5.42,34.422a17.972,17.972,0,0,0,6.681,4.4,24.008,24.008,0,0,0,8.734,1.519,26.251,26.251,0,0,0,6.427-.839,35.922,35.922,0,0,0,5.746-1.92l.687,3.356a32.778,32.778,0,0,1-6.477,2.269" transform="translate(5.081 8.066)" fill="#231614"/>
      </g>
      <g id="그룹_58" data-name="그룹 58" transform="translate(1399.101 590.364)">
        <path id="패스_225" data-name="패스 225" d="M11.581,10.258H24.142v3.534H11.581V43.636a39.373,39.373,0,0,0,.388,6.134,16.616,16.616,0,0,0,1.081,3.973A5.653,5.653,0,0,0,14.772,56.1a7.4,7.4,0,0,0,2.206,1.176,10.951,10.951,0,0,0,3.979.343,23.869,23.869,0,0,0,4.068-.534l.489,3.433c-1.042.2-2.142.381-3.28.54a23.166,23.166,0,0,1-3.293.242,13.626,13.626,0,0,1-4.717-.782,9.215,9.215,0,0,1-3.827-2.7,13.293,13.293,0,0,1-2.6-5.2,31,31,0,0,1-.934-8.3V13.792H-2.162V10.258H6.864V-1.915h4.717Z" transform="translate(2.162 1.915)" fill="#231614"/>
      </g>
      <g id="그룹_59" data-name="그룹 59" transform="translate(1435.909 583.791)">
        <path id="패스_226" data-name="패스 226" d="M3.305,7.28A3.611,3.611,0,0,1,.464,6.053a4.5,4.5,0,0,1-1.081-3.1A4.363,4.363,0,0,1,.508-.132,3.859,3.859,0,0,1,3.5-1.359,3.728,3.728,0,0,1,6.452-.132,4.536,4.536,0,0,1,7.526,2.957a4.384,4.384,0,0,1-1.131,3.1A4,4,0,0,1,3.305,7.28M1.144,17.387H5.86V67.26H1.144Z" transform="translate(0.617 1.359)" fill="#231614"/>
      </g>
      <g id="그룹_60" data-name="그룹 60" transform="translate(1454.562 601.457)">
        <path id="패스_227" data-name="패스 227" d="M19.937,0a22.519,22.519,0,0,1,9.281,1.869,21.276,21.276,0,0,1,7.208,5.251,23.971,23.971,0,0,1,4.71,8.1,30.926,30.926,0,0,1,1.665,10.4,30.839,30.839,0,0,1-2.1,11.982,24.4,24.4,0,0,1-5.5,8.238A21.325,21.325,0,0,1,27.54,50.6a25.071,25.071,0,0,1-8.492,1.519,22.46,22.46,0,0,1-8.931-1.761A21.552,21.552,0,0,1,2.9,45.31a23.587,23.587,0,0,1-4.863-8.054A30.783,30.783,0,0,1-3.722,26.5,31.494,31.494,0,0,1-1.86,15.313,24.853,24.853,0,0,1,3.194,7.024,21.984,21.984,0,0,1,10.7,1.812,23.673,23.673,0,0,1,19.937,0m-.2,3.731A17.4,17.4,0,0,0,11.489,5.6a17.155,17.155,0,0,0-5.842,4.939A22.037,22.037,0,0,0,2.171,17.69,30.189,30.189,0,0,0,.982,26.164a27.927,27.927,0,0,0,1.43,9.211,21.61,21.61,0,0,0,3.878,7,16.894,16.894,0,0,0,5.835,4.456,17.417,17.417,0,0,0,7.412,1.576,16.864,16.864,0,0,0,7.215-1.576,17.279,17.279,0,0,0,5.893-4.456,21.588,21.588,0,0,0,3.973-7.049A27.816,27.816,0,0,0,38.1,25.967a30.267,30.267,0,0,0-1.081-7.978,22.616,22.616,0,0,0-3.337-7.158,17.481,17.481,0,0,0-5.7-5.136A16.325,16.325,0,0,0,19.74,3.731" transform="translate(3.722)" fill="#231614"/>
      </g>
      <g id="그룹_61" data-name="그룹 61" transform="translate(1510.808 601.456)">
        <path id="패스_228" data-name="패스 228" d="M30.522,14.393q0-6.179-2.988-9.764c-2-2.39-4.958-3.585-8.893-3.585a16.618,16.618,0,0,0-5.835,1.081,23.11,23.11,0,0,0-5.5,2.949A28.268,28.268,0,0,0,2.5,9.441,27.487,27.487,0,0,0-1.185,14.7V48.267H-5.7V-1.606h4.513v10.8Q3.239,2.71,8.337.021A22.166,22.166,0,0,1,18.845-2.687a17.871,17.871,0,0,1,6.967,1.278,14.794,14.794,0,0,1,5.111,3.483,14.486,14.486,0,0,1,3.089,5.251,20.633,20.633,0,0,1,1.03,6.585V48.267h-4.52Z" transform="translate(5.698 2.687)" fill="#231614"/>
      </g>
      <g id="그룹_62" data-name="그룹 62" transform="translate(1588.946 601.455)">
        <path id="패스_229" data-name="패스 229" d="M27.217,43.206a33.822,33.822,0,0,1-7.958.858A25.936,25.936,0,0,1,9.05,42.151a21.82,21.82,0,0,1-7.691-5.4A23.289,23.289,0,0,1-3.447,28.5a31.916,31.916,0,0,1-1.634-10.45A31.54,31.54,0,0,1-3.4,7.546a22.758,22.758,0,0,1,5-8.3,22.812,22.812,0,0,1,8.092-5.4,29.092,29.092,0,0,1,10.94-1.92,33.184,33.184,0,0,1,6.242.6,22.126,22.126,0,0,1,5.835,2.021L31.927-1.97a24.435,24.435,0,0,0-5.111-1.678,28.333,28.333,0,0,0-6.185-.687A23.807,23.807,0,0,0,11.5-2.714,17.781,17.781,0,0,0,4.931,1.825,19.051,19.051,0,0,0,.958,8.766,27.688,27.688,0,0,0-.377,17.557a28.821,28.821,0,0,0,1.519,9.726A20.047,20.047,0,0,0,5.42,34.422a17.921,17.921,0,0,0,6.681,4.4,24.008,24.008,0,0,0,8.734,1.519,26.251,26.251,0,0,0,6.427-.839A35.62,35.62,0,0,0,33,37.581l.693,3.356a32.778,32.778,0,0,1-6.477,2.269" transform="translate(5.081 8.066)" fill="#231614"/>
      </g>
      <g id="그룹_63" data-name="그룹 63" transform="translate(1633.313 601.457)">
        <path id="패스_230" data-name="패스 230" d="M19.937,0a22.519,22.519,0,0,1,9.281,1.869,21.276,21.276,0,0,1,7.208,5.251,23.971,23.971,0,0,1,4.71,8.1,30.926,30.926,0,0,1,1.665,10.4,30.839,30.839,0,0,1-2.1,11.982,24.4,24.4,0,0,1-5.5,8.238A21.27,21.27,0,0,1,27.54,50.6a25.071,25.071,0,0,1-8.492,1.519,22.46,22.46,0,0,1-8.931-1.761A21.552,21.552,0,0,1,2.9,45.31a23.587,23.587,0,0,1-4.863-8.054A30.783,30.783,0,0,1-3.722,26.5,31.494,31.494,0,0,1-1.86,15.313,24.853,24.853,0,0,1,3.194,7.024,21.984,21.984,0,0,1,10.7,1.812,23.673,23.673,0,0,1,19.937,0m-.2,3.731A17.4,17.4,0,0,0,11.489,5.6a17.155,17.155,0,0,0-5.842,4.939A22.037,22.037,0,0,0,2.171,17.69,30.189,30.189,0,0,0,.982,26.164a27.927,27.927,0,0,0,1.43,9.211,21.61,21.61,0,0,0,3.878,7,16.894,16.894,0,0,0,5.835,4.456,17.425,17.425,0,0,0,7.418,1.576,16.856,16.856,0,0,0,7.208-1.576,17.279,17.279,0,0,0,5.893-4.456,21.588,21.588,0,0,0,3.973-7.049A27.816,27.816,0,0,0,38.1,25.967a30.267,30.267,0,0,0-1.081-7.978,22.616,22.616,0,0,0-3.337-7.158,17.481,17.481,0,0,0-5.7-5.136A16.325,16.325,0,0,0,19.74,3.731" transform="translate(3.722)" fill="#231614"/>
      </g>
    </g>
    <path id="패스_232" data-name="패스 232" d="M273.077-147.024h-7.266v-7.463h7.266Z" transform="translate(1423.843 543.486)" fill="#231614"/>
    <g id="그룹_68" data-name="그룹 68" transform="translate(0 -255.948)" clip-path="url(#clip-path)">
      <g id="그룹_65" data-name="그룹 65" transform="translate(115.241 1200.854)">
        <path id="패스_233" data-name="패스 233" d="M80.729,25.772v-.006C62.7-13.6-15.071-3.7-15.071-3.7s41.324,69.77,69.236,69.427l.006-.025a27.028,27.028,0,0,0,7.939-.648A27.962,27.962,0,0,0,82.624,31.239a28.763,28.763,0,0,0-1.894-5.467" transform="translate(15.071 4.811)" fill="#333882"/>
      </g>
      <g id="그룹_66" data-name="그룹 66" transform="translate(394.811 1200.854)">
        <path id="패스_234" data-name="패스 234" d="M2.248,25.767v.006a29.309,29.309,0,0,0-1.894,5.46A27.975,27.975,0,0,0,20.873,65.051a27.028,27.028,0,0,0,7.939.648v.025C56.73,66.068,98.048-3.7,98.048-3.7s-77.76-9.9-95.8,29.469" transform="translate(0.42 4.81)" fill="#333882"/>
      </g>
      <g id="그룹_67" data-name="그룹 67" transform="translate(84.187 891.208)">
        <path id="패스_235" data-name="패스 235" d="M374.555,178.766s0-134.213-46.181-212.139c0,0-63.5,40.409-125.549,106.791l-50.51-1.443-50.51,1.443C39.753,7.036-23.743-33.373-23.743-33.373-69.924,44.553-69.924,178.766-69.924,178.766,117.678,236.49,111.907,360.6,111.907,360.6h80.818S186.946,236.49,374.555,178.766" transform="translate(69.924 33.373)" fill="#333882"/>
      </g>
    </g>
    <g id="그룹_69" data-name="그룹 69" transform="translate(607.612 691.915)">
      <path id="패스_237" data-name="패스 237" d="M127.8,51.225H83.085V198.781H20.854V51.225H-23.858V-9.563H127.8Z" transform="translate(23.858 9.563)" fill="#231614"/>
    </g>
    <g id="그룹_74" data-name="그룹 74" transform="translate(0 -255.948)" clip-path="url(#clip-path)">
      <g id="그룹_70" data-name="그룹 70" transform="translate(773.575 943.777)">
        <path id="패스_238" data-name="패스 238" d="M182.462,91.234a108.446,108.446,0,0,1-24.25,68.575A102.95,102.95,0,0,1,121.1,189.132,110.049,110.049,0,0,1,74.05,199.2a109.278,109.278,0,0,1-36.226-6.121,105.117,105.117,0,0,1-32.145-18.1A107.4,107.4,0,0,1-34.063,91.234q0-44.356,31.853-76.165A106,106,0,0,1,32.859-8.565,105.459,105.459,0,0,1,74.05-17.032,106.959,106.959,0,0,1,115.552-9,109.082,109.082,0,0,1,150.9,15.069q31.561,32.1,31.561,76.165m-61.068.146a45.97,45.97,0,0,0-13.737-33.315A44.864,44.864,0,0,0,74.349,44.042,45.583,45.583,0,0,0,40.894,57.919,45.59,45.59,0,0,0,27,91.38a45.311,45.311,0,0,0,13.743,33.3q13.721,13.74,33.6,13.743,19.861,0,33.448-13.59t13.6-33.455" transform="translate(34.063 17.032)" fill="#231614"/>
      </g>
      <g id="그룹_71" data-name="그룹 71" transform="translate(1011.721 947.866)">
        <path id="패스_239" data-name="패스 239" d="M139.62,175.568H74.166l-28.35-65.454V55.18h6.725q8.763,0,12.859-3.064,4.081-3.07,4.087-11.544,0-8.19-4.087-10.965-4.11-2.775-12.859-2.778H36.172V175.568H-26.065V-32.776H50.208q18.107,0,26.882,1.754a70.1,70.1,0,0,1,27.168,12.561Q132.6,2.592,132.6,37.649q0,30.969-29.221,53.77Z" transform="translate(26.065 32.776)" fill="#231614"/>
      </g>
      <g id="그룹_72" data-name="그룹 72" transform="translate(1182.069 943.777)">
        <path id="패스_240" data-name="패스 240" d="M182.462,91.234a108.446,108.446,0,0,1-24.25,68.575A102.95,102.95,0,0,1,121.1,189.132,110.029,110.029,0,0,1,74.05,199.2a109.278,109.278,0,0,1-36.226-6.121,105.117,105.117,0,0,1-32.145-18.1A107.4,107.4,0,0,1-34.063,91.234q0-44.356,31.853-76.165A106,106,0,0,1,32.859-8.565,105.459,105.459,0,0,1,74.05-17.032,106.959,106.959,0,0,1,115.552-9,109.082,109.082,0,0,1,150.9,15.069q31.561,32.1,31.561,76.165m-61.068.146a45.97,45.97,0,0,0-13.737-33.315A44.864,44.864,0,0,0,74.349,44.042,45.583,45.583,0,0,0,40.894,57.919,45.59,45.59,0,0,0,27,91.38a45.311,45.311,0,0,0,13.743,33.3q13.721,13.74,33.6,13.743,19.861,0,33.448-13.59t13.6-33.455" transform="translate(34.063 17.032)" fill="#231614"/>
      </g>
      <g id="그룹_73" data-name="그룹 73" transform="translate(1420.214 943.779)">
        <path id="패스_241" data-name="패스 241" d="M126.571,179.012H65.5V53.069q0-22.788-13.152-22.795-7.6,0-9.935,5.409T40.077,53.069V74.986H56.14v55.226H40.077v48.8H-23.629V67.981q0-16.381.445-24.117a97.27,97.27,0,0,1,3.356-18.841q7.3-28.061,26-43.25t45.3-15.192q38.855,0,59.9,32.145a90.434,90.434,0,0,1,12.567,32.73q2.632,14.312,2.632,36.525Z" transform="translate(23.629 33.419)" fill="#231614"/>
      </g>
    </g>
    <g id="그룹_75" data-name="그룹 75" transform="translate(1581.514 691.915)">
      <path id="패스_243" data-name="패스 243" d="M127.8,51.225H83.085V198.781H20.854V51.225H-23.858V-9.563H127.8Z" transform="translate(23.858 9.563)" fill="#231614"/>
    </g>
    <g id="그룹_76" data-name="그룹 76" transform="translate(1737.245 691.917)">
      <path id="패스_244" data-name="패스 244" d="M153.9,0,93.71,94.682V208.344H31.472V94.682L-28.731,0H33.513L62.728,41.2,91.669,0Z" transform="translate(28.731)" fill="#231614"/>
    </g>
    <g id="그룹_77" data-name="그룹 77" transform="translate(828.869 960.409)">
      <path id="패스_245" data-name="패스 245" d="M35.487,42.44H4.569L-1.908,61.586H-6.625L17.231-7.923h5.7l23.85,69.509h-4.7ZM5.942,38.614H34.216L20.073-2.819Z" transform="translate(6.625 7.923)" fill="#231614"/>
    </g>
    <g id="그룹_82" data-name="그룹 82" transform="translate(0 -255.948)" clip-path="url(#clip-path)">
      <g id="그룹_78" data-name="그룹 78" transform="translate(891.207 1234.91)">
        <path id="패스_246" data-name="패스 246" d="M30.522,14.393q0-6.179-2.988-9.764c-2-2.39-4.958-3.585-8.893-3.585a16.618,16.618,0,0,0-5.835,1.081,23.11,23.11,0,0,0-5.5,2.949A28.268,28.268,0,0,0,2.5,9.441,27.487,27.487,0,0,0-1.185,14.7V48.267H-5.7V-1.606h4.513v10.8Q3.239,2.71,8.337.021A22.148,22.148,0,0,1,18.845-2.687a17.871,17.871,0,0,1,6.967,1.278,14.794,14.794,0,0,1,5.111,3.483,14.486,14.486,0,0,1,3.089,5.251,20.633,20.633,0,0,1,1.03,6.585V48.267h-4.52Z" transform="translate(5.698 2.687)" fill="#231614"/>
      </g>
      <g id="그룹_79" data-name="그룹 79" transform="translate(945.491 1217.246)">
        <path id="패스_247" data-name="패스 247" d="M3.305,7.28A3.611,3.611,0,0,1,.464,6.053a4.5,4.5,0,0,1-1.081-3.1A4.363,4.363,0,0,1,.508-.132,3.869,3.869,0,0,1,3.5-1.359,3.728,3.728,0,0,1,6.452-.132,4.54,4.54,0,0,1,7.532,2.957,4.412,4.412,0,0,1,6.4,6.053a4.012,4.012,0,0,1-3.1,1.227M1.144,17.387H5.86V67.26H1.144Z" transform="translate(0.617 1.359)" fill="#231614"/>
      </g>
      <g id="그룹_80" data-name="그룹 80" transform="translate(967.381 1234.912)">
        <path id="패스_248" data-name="패스 248" d="M25.974,13.4q0-6.179-2.206-9.173t-7.806-3A11.942,11.942,0,0,0,11.151,2.31,19.706,19.706,0,0,0,6.536,5.164,23.836,23.836,0,0,0,2.614,9.232,28.522,28.522,0,0,0-.329,13.892V48.446h-4.52V-1.421h4.52V8.4A24.983,24.983,0,0,1,7.521.149,16.382,16.382,0,0,1,16.16-2.5q5.8,0,9.026,2.409a12.484,12.484,0,0,1,4.52,6.821q6.093-9.23,16-9.23a17.506,17.506,0,0,1,6.827,1.227,13.276,13.276,0,0,1,4.755,3.293,12.812,12.812,0,0,1,2.746,4.856,19.674,19.674,0,0,1,.9,6.039V48.446H56.41V13.4a14.4,14.4,0,0,0-2.5-8.836Q51.4,1.239,45.514,1.229A14.156,14.156,0,0,0,36.73,4.083,26.808,26.808,0,0,0,30.4,10.752a5.977,5.977,0,0,1,.1,1.036V48.446h-4.52Z" transform="translate(4.849 2.502)" fill="#231614"/>
      </g>
      <g id="그룹_81" data-name="그룹 81" transform="translate(1042.372 1234.915)">
        <path id="패스_249" data-name="패스 249" d="M27.715,42.933V33.017a27.953,27.953,0,0,1-8.149,8.251A20.767,20.767,0,0,1,8.181,44.211a13.586,13.586,0,0,1-6.039-1.233,12.215,12.215,0,0,1-4.119-3.2A13.352,13.352,0,0,1-4.386,35.35a16.51,16.51,0,0,1-.788-5.022,15.025,15.025,0,0,1,2.358-8.422,18.85,18.85,0,0,1,6.63-6,34.344,34.344,0,0,1,10.3-3.6,70.461,70.461,0,0,1,13.406-1.182V9.561a22.277,22.277,0,0,0-.489-4.284A11.544,11.544,0,0,0,25.013.732a12.176,12.176,0,0,0-4.488-3.56A17.938,17.938,0,0,0,12.65-4.284,20.189,20.189,0,0,0,5.944-3.152,27.772,27.772,0,0,0-.165-.165l-1.17-3.242A29.392,29.392,0,0,1,5.7-6.737a26.641,26.641,0,0,1,8.422-1.278A20.19,20.19,0,0,1,23.17-6.248a15.027,15.027,0,0,1,5.619,4.615,17.093,17.093,0,0,1,2.854,6.427,33.759,33.759,0,0,1,.788,7.215V42.933Zm0-28.471a83.108,83.108,0,0,0-9.065.54A36.728,36.728,0,0,0,9.5,17.163,18.976,18.976,0,0,0,2.4,21.778a10.958,10.958,0,0,0-2.86,7.9q0,5.692,2.81,8.588a9.6,9.6,0,0,0,7.24,2.892A14.8,14.8,0,0,0,16.1,39.6a21.9,21.9,0,0,0,5.816-4.075,22.183,22.183,0,0,0,4.183-5.6,12.841,12.841,0,0,0,1.621-6.039Z" transform="translate(5.174 8.015)" fill="#231614"/>
      </g>
    </g>
    <path id="패스_251" data-name="패스 251" d="M172.447,7.395h4.71V-65.058h-4.71Z" transform="translate(923.729 1022.521)" fill="#231614"/>
    <g id="그룹_95" data-name="그룹 95" transform="translate(0 -255.948)" clip-path="url(#clip-path)">
      <g id="그룹_83" data-name="그룹 83" transform="translate(1145.345 1216.357)">
        <path id="패스_252" data-name="패스 252" d="M17.538,0Q27.644,0,32.762,5.251q5.092,5.263,5.1,14.785-.21,9.516-5.212,14.97T17.538,40.447H1.633V69.509H-3.274V0Zm-.585,36.716a16.9,16.9,0,0,0,11.582-3.973q4.51-3.986,4.52-12.522,0-8.429-4.52-12.465A16.8,16.8,0,0,0,16.953,3.731H1.633V36.716Z" transform="translate(3.274)" fill="#231614"/>
      </g>
      <g id="그룹_84" data-name="그룹 84" transform="translate(1197.176 1234.952)">
        <path id="패스_253" data-name="패스 253" d="M8.935,3.111A15.578,15.578,0,0,1,18.069-.525a14.02,14.02,0,0,1,4.316.3V3.206a15.938,15.938,0,0,0-3.038-.292A13.727,13.727,0,0,0,13.2,4.389,18.167,18.167,0,0,0,7.95,8.266,19.2,19.2,0,0,0,4.32,13.86a16.837,16.837,0,0,0-1.373,6.725V50.328H-1.668V.46H2.947v10.8A22.2,22.2,0,0,1,8.935,3.111" transform="translate(1.668 0.581)" fill="#231614"/>
      </g>
      <g id="그룹_85" data-name="그룹 85" transform="translate(1224.859 1234.912)">
        <path id="패스_254" data-name="패스 254" d="M19.937,0a22.519,22.519,0,0,1,9.281,1.869,21.276,21.276,0,0,1,7.208,5.251,23.971,23.971,0,0,1,4.71,8.1,30.926,30.926,0,0,1,1.665,10.4,30.839,30.839,0,0,1-2.1,11.982,24.4,24.4,0,0,1-5.5,8.238A21.325,21.325,0,0,1,27.54,50.6a25.071,25.071,0,0,1-8.492,1.519,22.46,22.46,0,0,1-8.931-1.761A21.552,21.552,0,0,1,2.9,45.31a23.587,23.587,0,0,1-4.863-8.054A30.783,30.783,0,0,1-3.722,26.5,31.353,31.353,0,0,1-1.86,15.313,24.853,24.853,0,0,1,3.194,7.024,21.984,21.984,0,0,1,10.7,1.812,23.673,23.673,0,0,1,19.937,0m-.2,3.731A17.4,17.4,0,0,0,11.489,5.6a17.155,17.155,0,0,0-5.842,4.939A22.177,22.177,0,0,0,2.164,17.69,30.42,30.42,0,0,0,.982,26.164a27.927,27.927,0,0,0,1.43,9.211,21.61,21.61,0,0,0,3.878,7,16.894,16.894,0,0,0,5.835,4.456,17.4,17.4,0,0,0,7.412,1.576,16.864,16.864,0,0,0,7.215-1.576,17.279,17.279,0,0,0,5.893-4.456,21.588,21.588,0,0,0,3.973-7.049A27.816,27.816,0,0,0,38.1,25.967a30.267,30.267,0,0,0-1.081-7.978,22.616,22.616,0,0,0-3.337-7.158,17.481,17.481,0,0,0-5.7-5.136A16.325,16.325,0,0,0,19.74,3.731" transform="translate(3.722)" fill="#231614"/>
      </g>
      <g id="그룹_86" data-name="그룹 86" transform="translate(1276.984 1223.819)">
        <path id="패스_255" data-name="패스 255" d="M11.581,10.258H24.142v3.534H11.581V43.636a39.373,39.373,0,0,0,.388,6.134,16.616,16.616,0,0,0,1.081,3.973A5.653,5.653,0,0,0,14.772,56.1a7.4,7.4,0,0,0,2.206,1.176,10.951,10.951,0,0,0,3.979.343,23.869,23.869,0,0,0,4.068-.534l.489,3.433c-1.042.2-2.142.381-3.28.54a23.166,23.166,0,0,1-3.293.242,13.626,13.626,0,0,1-4.717-.782,9.215,9.215,0,0,1-3.827-2.7,13.379,13.379,0,0,1-2.6-5.2,31,31,0,0,1-.934-8.3V13.792H-2.162V10.258H6.864V-1.915h4.717Z" transform="translate(2.162 1.915)" fill="#231614"/>
      </g>
      <g id="그룹_87" data-name="그룹 87" transform="translate(1310.453 1234.912)">
        <path id="패스_256" data-name="패스 256" d="M33.506,39.623A31.22,31.22,0,0,1,25.2,43.4a31.475,31.475,0,0,1-8.492,1.131,23.72,23.72,0,0,1-8.88-1.672A20.874,20.874,0,0,1,.515,37.957a23.261,23.261,0,0,1-4.952-8A30.726,30.726,0,0,1-6.255,18.919,36.107,36.107,0,0,1-4.78,8.361,24.423,24.423,0,0,1-.515.015,19.8,19.8,0,0,1,6.312-5.439,20.363,20.363,0,0,1,15.338-7.4a20.309,20.309,0,0,1,9.529,2.066A17.928,17.928,0,0,1,31.293.263a23.557,23.557,0,0,1,3.63,8.3,40.891,40.891,0,0,1,1.036,10.158h-37.5A29.735,29.735,0,0,0-.019,28.785a19.182,19.182,0,0,0,4.138,6.891,15.563,15.563,0,0,0,6.051,3.9,21.536,21.536,0,0,0,7.285,1.227A28.483,28.483,0,0,0,25.28,39.75a35.691,35.691,0,0,0,7.628-3.261ZM31.243,15.385a42.331,42.331,0,0,0-.934-6.6A18.794,18.794,0,0,0,27.8,2.634,13.863,13.863,0,0,0,23.03-1.911a15.215,15.215,0,0,0-7.736-1.754,14.244,14.244,0,0,0-7.78,2A16.647,16.647,0,0,0,2.441,3.269a22.355,22.355,0,0,0-2.848,6.2,29.467,29.467,0,0,0-1.131,5.912Z" transform="translate(6.255 7.397)" fill="#231614"/>
      </g>
      <g id="그룹_88" data-name="그룹 88" transform="translate(1360.133 1234.91)">
        <path id="패스_257" data-name="패스 257" d="M27.217,43.206a33.822,33.822,0,0,1-7.958.858A25.936,25.936,0,0,1,9.05,42.151a21.82,21.82,0,0,1-7.691-5.4A23.493,23.493,0,0,1-3.454,28.5a32.086,32.086,0,0,1-1.627-10.45A31.54,31.54,0,0,1-3.4,7.546a22.758,22.758,0,0,1,5-8.3,22.812,22.812,0,0,1,8.092-5.4,29.092,29.092,0,0,1,10.94-1.92,33.184,33.184,0,0,1,6.242.6,22.126,22.126,0,0,1,5.835,2.021l-.782,3.464a24.835,24.835,0,0,0-5.111-1.672,28.333,28.333,0,0,0-6.185-.687A23.807,23.807,0,0,0,11.5-2.714,17.781,17.781,0,0,0,4.931,1.825,19.051,19.051,0,0,0,.958,8.766,27.688,27.688,0,0,0-.377,17.557a28.821,28.821,0,0,0,1.519,9.726A20.047,20.047,0,0,0,5.42,34.422a17.972,17.972,0,0,0,6.681,4.4,24.008,24.008,0,0,0,8.734,1.519,26.251,26.251,0,0,0,6.427-.839,35.922,35.922,0,0,0,5.746-1.92l.687,3.356a32.778,32.778,0,0,1-6.477,2.269" transform="translate(5.081 8.066)" fill="#231614"/>
      </g>
      <g id="그룹_89" data-name="그룹 89" transform="translate(1403.619 1223.819)">
        <path id="패스_258" data-name="패스 258" d="M11.581,10.258H24.142v3.534H11.581V43.636a39.373,39.373,0,0,0,.388,6.134,16.616,16.616,0,0,0,1.081,3.973A5.653,5.653,0,0,0,14.772,56.1a7.4,7.4,0,0,0,2.206,1.176,10.951,10.951,0,0,0,3.979.343,23.869,23.869,0,0,0,4.068-.534l.489,3.433c-1.042.2-2.142.381-3.28.54a23.166,23.166,0,0,1-3.293.242,13.626,13.626,0,0,1-4.717-.782,9.215,9.215,0,0,1-3.827-2.7,13.293,13.293,0,0,1-2.6-5.2,31,31,0,0,1-.934-8.3V13.792H-2.162V10.258H6.864V-1.915h4.717Z" transform="translate(2.162 1.915)" fill="#231614"/>
      </g>
      <g id="그룹_90" data-name="그룹 90" transform="translate(1440.428 1217.246)">
        <path id="패스_259" data-name="패스 259" d="M3.305,7.28A3.611,3.611,0,0,1,.464,6.053a4.5,4.5,0,0,1-1.081-3.1A4.363,4.363,0,0,1,.508-.132,3.859,3.859,0,0,1,3.5-1.359,3.728,3.728,0,0,1,6.452-.132,4.536,4.536,0,0,1,7.526,2.957a4.384,4.384,0,0,1-1.131,3.1A4,4,0,0,1,3.305,7.28M1.144,17.387H5.86V67.26H1.144Z" transform="translate(0.617 1.359)" fill="#231614"/>
      </g>
      <g id="그룹_91" data-name="그룹 91" transform="translate(1459.08 1234.912)">
        <path id="패스_260" data-name="패스 260" d="M19.937,0a22.519,22.519,0,0,1,9.281,1.869,21.276,21.276,0,0,1,7.208,5.251,23.971,23.971,0,0,1,4.71,8.1,30.926,30.926,0,0,1,1.665,10.4,30.839,30.839,0,0,1-2.1,11.982,24.4,24.4,0,0,1-5.5,8.238A21.325,21.325,0,0,1,27.54,50.6a25.071,25.071,0,0,1-8.492,1.519,22.46,22.46,0,0,1-8.931-1.761A21.552,21.552,0,0,1,2.9,45.31a23.587,23.587,0,0,1-4.863-8.054A30.783,30.783,0,0,1-3.722,26.5,31.494,31.494,0,0,1-1.86,15.313,24.853,24.853,0,0,1,3.194,7.024,21.984,21.984,0,0,1,10.7,1.812,23.673,23.673,0,0,1,19.937,0m-.2,3.731A17.4,17.4,0,0,0,11.489,5.6a17.155,17.155,0,0,0-5.842,4.939A22.037,22.037,0,0,0,2.171,17.69,30.189,30.189,0,0,0,.982,26.164a27.927,27.927,0,0,0,1.43,9.211,21.61,21.61,0,0,0,3.878,7,16.894,16.894,0,0,0,5.835,4.456,17.417,17.417,0,0,0,7.412,1.576,16.864,16.864,0,0,0,7.215-1.576,17.279,17.279,0,0,0,5.893-4.456,21.588,21.588,0,0,0,3.973-7.049A27.816,27.816,0,0,0,38.1,25.967a30.267,30.267,0,0,0-1.081-7.978,22.616,22.616,0,0,0-3.337-7.158,17.481,17.481,0,0,0-5.7-5.136A16.325,16.325,0,0,0,19.74,3.731" transform="translate(3.722)" fill="#231614"/>
      </g>
      <g id="그룹_92" data-name="그룹 92" transform="translate(1515.327 1234.91)">
        <path id="패스_261" data-name="패스 261" d="M30.522,14.393q0-6.179-2.988-9.764c-2-2.39-4.958-3.585-8.893-3.585a16.618,16.618,0,0,0-5.835,1.081,23.11,23.11,0,0,0-5.5,2.949A28.268,28.268,0,0,0,2.5,9.441,27.487,27.487,0,0,0-1.185,14.7V48.267H-5.7V-1.606h4.513v10.8Q3.239,2.71,8.337.021A22.166,22.166,0,0,1,18.845-2.687a17.871,17.871,0,0,1,6.967,1.278,14.794,14.794,0,0,1,5.111,3.483,14.486,14.486,0,0,1,3.089,5.251,20.633,20.633,0,0,1,1.03,6.585V48.267h-4.52Z" transform="translate(5.698 2.687)" fill="#231614"/>
      </g>
      <g id="그룹_93" data-name="그룹 93" transform="translate(1593.464 1234.91)">
        <path id="패스_262" data-name="패스 262" d="M27.217,43.206a33.822,33.822,0,0,1-7.958.858A25.936,25.936,0,0,1,9.05,42.151a21.82,21.82,0,0,1-7.691-5.4A23.289,23.289,0,0,1-3.447,28.5a31.916,31.916,0,0,1-1.634-10.45A31.54,31.54,0,0,1-3.4,7.546a22.758,22.758,0,0,1,5-8.3,22.812,22.812,0,0,1,8.092-5.4,29.092,29.092,0,0,1,10.94-1.92,33.184,33.184,0,0,1,6.242.6,22.126,22.126,0,0,1,5.835,2.021l-.782,3.464a24.835,24.835,0,0,0-5.111-1.672,28.333,28.333,0,0,0-6.185-.687A23.807,23.807,0,0,0,11.5-2.714,17.781,17.781,0,0,0,4.931,1.825,19.051,19.051,0,0,0,.958,8.766,27.688,27.688,0,0,0-.377,17.557a28.821,28.821,0,0,0,1.519,9.726A20.047,20.047,0,0,0,5.42,34.422a17.921,17.921,0,0,0,6.681,4.4,24.008,24.008,0,0,0,8.734,1.519,26.251,26.251,0,0,0,6.427-.839A35.62,35.62,0,0,0,33,37.581l.693,3.356a32.778,32.778,0,0,1-6.477,2.269" transform="translate(5.081 8.066)" fill="#231614"/>
      </g>
      <g id="그룹_94" data-name="그룹 94" transform="translate(1637.832 1234.912)">
        <path id="패스_263" data-name="패스 263" d="M19.937,0a22.519,22.519,0,0,1,9.281,1.869,21.276,21.276,0,0,1,7.208,5.251,23.971,23.971,0,0,1,4.71,8.1,30.926,30.926,0,0,1,1.665,10.4,30.839,30.839,0,0,1-2.1,11.982,24.4,24.4,0,0,1-5.5,8.238A21.27,21.27,0,0,1,27.54,50.6a25.071,25.071,0,0,1-8.492,1.519,22.46,22.46,0,0,1-8.931-1.761A21.552,21.552,0,0,1,2.9,45.31a23.587,23.587,0,0,1-4.863-8.054A30.783,30.783,0,0,1-3.722,26.5,31.494,31.494,0,0,1-1.86,15.313,24.853,24.853,0,0,1,3.194,7.024,21.984,21.984,0,0,1,10.7,1.812,23.673,23.673,0,0,1,19.937,0m-.2,3.731A17.4,17.4,0,0,0,11.489,5.6a17.155,17.155,0,0,0-5.842,4.939A22.037,22.037,0,0,0,2.171,17.69,30.189,30.189,0,0,0,.982,26.164a27.927,27.927,0,0,0,1.43,9.211,21.61,21.61,0,0,0,3.878,7,16.894,16.894,0,0,0,5.835,4.456,17.425,17.425,0,0,0,7.418,1.576,16.856,16.856,0,0,0,7.208-1.576,17.279,17.279,0,0,0,5.893-4.456,21.588,21.588,0,0,0,3.973-7.049A27.816,27.816,0,0,0,38.1,25.967a30.267,30.267,0,0,0-1.081-7.978,22.616,22.616,0,0,0-3.337-7.158,17.481,17.481,0,0,0-5.7-5.136A16.325,16.325,0,0,0,19.74,3.731" transform="translate(3.722)" fill="#231614"/>
      </g>
    </g>
    <path id="패스_265" data-name="패스 265" d="M273.788-47.371h-7.266v-7.463h7.266Z" transform="translate(1427.651 1077.287)" fill="#231614"/>
    <g id="그룹_96" data-name="그룹 96" transform="translate(79.667 396.491)">
      <path id="패스_266" data-name="패스 266" d="M0,0H1835.69" fill="none" stroke="#87888c" stroke-width="0.5" stroke-dasharray="1.499 0.999"/>
    </g>
    <g id="그룹_97" data-name="그룹 97" transform="translate(79.667 0.712)">
      <path id="패스_267" data-name="패스 267" d="M0,0H1835.69" fill="none" stroke="#87888c" stroke-width="0.5" stroke-dasharray="1.499 0.999"/>
    </g>
    <g id="그룹_98" data-name="그룹 98" transform="translate(525.34 -28.916)">
      <path id="패스_268" data-name="패스 268" d="M0,0V414.349" fill="none" stroke="#87888c" stroke-width="0.5" stroke-dasharray="1.523 1.023"/>
    </g>
    <g id="그룹_99" data-name="그룹 99" transform="translate(604.116 -29.959)">
      <path id="패스_269" data-name="패스 269" d="M0,0V414.349" fill="none" stroke="#87888c" stroke-width="0.5" stroke-dasharray="1.523 1.023"/>
    </g>
    <path id="패스_270" data-name="패스 270" d="M3.894-48.274H1953.545v-80.468H3.894Z" transform="translate(20.859 681.391)" fill="#bababd"/>
    <path id="패스_271" data-name="패스 271" d="M3.894,25.831H1958.93V-53.881H3.894Z" transform="translate(20.859 1082.392)" fill="#bababd"/>
    <path id="패스_272" data-name="패스 272" d="M387.262-128.742H302.1V426.837h85.159Z" transform="translate(1618.245 681.391)" fill="#bababd"/>
    <g id="그룹_102" data-name="그룹 102" transform="translate(0 -255.948)" clip-path="url(#clip-path)">
      <g id="그룹_100" data-name="그룹 100" transform="translate(0 1285.618)">
        <path id="패스_273" data-name="패스 273" d="M0,0H1994.071" fill="none" stroke="#949599" stroke-width="0.5" stroke-dasharray="1.499 0.999"/>
      </g>
      <g id="그룹_101" data-name="그룹 101" transform="translate(0 890.378)">
        <path id="패스_274" data-name="패스 274" d="M0,0H2005.507" fill="none" stroke="#949599" stroke-width="0.5" stroke-dasharray="1.496 0.996"/>
      </g>
    </g>
    <g id="그룹_103" data-name="그룹 103" transform="translate(1921.041 565.858)">
      <path id="패스_276" data-name="패스 276" d="M0,0V542.364" transform="translate(0 0)" fill="none" stroke="#9fa0a3" stroke-width="0.5" stroke-dasharray="1.483 0.983"/>
    </g>
    <g id="그룹_104" data-name="그룹 104" transform="translate(0 -255.948)" clip-path="url(#clip-path)">
      <path id="패스_277" data-name="패스 277" d="M.5,420.98H1999.65V-128.243H.5Z" transform="translate(2.678 940.012)" fill="none" stroke="#6f7175" stroke-width="1"/>
    </g>
    <g id="그룹_105" data-name="그룹 105" transform="translate(79.214 552.647)">
      <path id="패스_279" data-name="패스 279" d="M0,0V555.579" fill="none" stroke="#9fa0a3" stroke-width="0.5" stroke-dasharray="1.513 1.013"/>
    </g>
    <g id="그룹" transform="translate(496.759 -215.512)">
      <text id="_0.4X" data-name="0.4X" transform="translate(1641.909 385.821)" fill="#2b2e34" font-size="56" font-family="NanumSquareEB, NanumSquare"><tspan x="0" y="0">0.4X</tspan></text>
      <text id="_0.2X" data-name="0.2X" transform="translate(1641.909 580.963)" fill="#2b2e34" font-size="56" font-family="NanumSquareEB, NanumSquare"><tspan x="0" y="0">0.2X</tspan></text>
      <text id="_0.2X-2" data-name="0.2X" transform="translate(0 48)" fill="#2b2e34" font-size="56" font-family="NanumSquareEB, NanumSquare"><tspan x="0" y="0">0.2X</tspan></text>
    </g>
    <g id="그룹_106" data-name="그룹 106" transform="translate(1997.026 1138.797)">
      <path id="패스_280" data-name="패스 280" d="M0,39.109V-7.3" transform="translate(0 7.301)" fill="none" stroke="#787a7e" stroke-width="0.5"/>
    </g>
    <g id="그룹_107" data-name="그룹 107" transform="translate(1920.48 1138.797)">
      <path id="패스_281" data-name="패스 281" d="M0,39.109V-7.3" transform="translate(0 7.301)" fill="none" stroke="#787a7e" stroke-width="0.5"/>
    </g>
    <g id="그룹_108" data-name="그룹 108" transform="translate(1915.81 1184.114)">
      <path id="패스_282" data-name="패스 282" d="M71.757,0H-13.4" transform="translate(13.396)" fill="none" stroke="#787a7e" stroke-width="0.5"/>
    </g>
    <text id="_0.2X-3" data-name="0.2X" transform="translate(1886.406 1261.811)" fill="#2b2e34" font-size="56" font-family="NanumSquareEB, NanumSquare"><tspan x="0" y="0">0.2X</tspan></text>
  </g>
</svg>
