<svg xmlns="http://www.w3.org/2000/svg" xmlns:xlink="http://www.w3.org/1999/xlink" width="2625.301" height="1756.978" viewBox="0 0 2625.301 1756.978">
  <defs>
    <clipPath id="clip-path">
      <path id="패스_645" data-name="패스 645" d="M0,1454.546H2625.3V-302.432H0Z" transform="translate(0 302.432)" fill="none"/>
    </clipPath>
    <clipPath id="clip-path-2">
      <rect id="사각형_31" data-name="사각형 31" width="2110.862" height="107.476" fill="none"/>
    </clipPath>
    <clipPath id="clip-path-6">
      <rect id="사각형_35" data-name="사각형 35" width="107.476" height="1080.809" fill="none"/>
    </clipPath>
    <clipPath id="clip-path-7">
      <rect id="사각형_36" data-name="사각형 36" width="107.476" height="1080.808" fill="none"/>
    </clipPath>
    <clipPath id="clip-path-8">
      <rect id="사각형_37" data-name="사각형 37" width="107.476" height="368.27" fill="none"/>
    </clipPath>
  </defs>
  <g id="그룹_550" data-name="그룹 550" transform="translate(0 302.432)">
    <path id="패스_633" data-name="패스 633" d="M104.325,699.553H2116.834V-205.23H104.325Z" transform="translate(501.751 467.493)" fill="#fff" stroke="#253683" stroke-width="0.283"/>
    <text id="토로아티_캠페인" data-name="토로아티 캠페인" transform="translate(856.213 512.596)" fill="#2b2e34" font-size="21" font-family="NanumSquareB, NanumSquare"><tspan x="0" y="0">토로아티 캠페인</tspan></text>
    <g id="그룹" transform="translate(856.213 536.903)">
      <text id="_321-321_동대문구_회기동_" data-name="321-321     동대문구 회기동 " transform="translate(0 14)" fill="#2b2e34" font-size="17" font-family="NanumSquareL, NanumSquare"><tspan x="0" y="0" xml:space="preserve">321-321     동대문구 회기동 </tspan></text>
      <text id="_회기리_회기로_41-21" data-name="                     회기리 회기로 41-21" transform="translate(0 37.238)" fill="#2b2e34" font-size="17" font-family="NanumSquareL, NanumSquare"><tspan x="0" y="0" xml:space="preserve">                     회기리 회기로 41-21</tspan></text>
      <text id="전화" transform="translate(0 60.432)" fill="#2b2e34" font-size="16" font-family="NanumSquareB, NanumSquare"><tspan x="0" y="0">전화</tspan></text>
      <text id="_010-0000-1234" data-name="              010-0000-1234" transform="translate(26.433 60.476)" fill="#2b2e34" font-size="17" font-family="NanumSquareL, NanumSquare"><tspan x="0" y="0" xml:space="preserve">              010-0000-1234</tspan></text>
    </g>
    <g id="그룹-2" data-name="그룹" transform="translate(52.285 1101.099)">
      <text id="SIZE_" data-name="SIZE  " transform="translate(0 44)" fill="#2b2e34" font-size="52" font-family="NanumSquareEB, NanumSquare"><tspan x="0" y="0" xml:space="preserve">SIZE  </tspan></text>
      <text id="_" data-name=" " transform="translate(138.713 38)" fill="#2b2e34" font-size="45" font-family="NanumSquareB, NanumSquare"><tspan x="0" y="0"> </tspan></text>
    </g>
    <text id="_220_x_100" data-name="220  x  100" transform="translate(204.068 1144.11)" fill="#2b2e34" font-size="41" font-family="NanumSquareR, NanumSquare"><tspan x="0" y="0" xml:space="preserve">220  x  100</tspan></text>
    <g id="그룹_498" data-name="그룹 498" transform="translate(0 -302.432)" clip-path="url(#clip-path)">
      <g id="그룹_457" data-name="그룹 457" transform="translate(520.248 621.727)" opacity="0.25">
        <g id="그룹_456" data-name="그룹 456">
          <g id="그룹_455" data-name="그룹 455" clip-path="url(#clip-path-2)">
            <g id="그룹_454" data-name="그룹 454" transform="translate(40.666 53.738)">
              <path id="패스_634" data-name="패스 634" d="M0,0H2064.387" fill="none" stroke="#2b1015" stroke-miterlimit="10" stroke-width="0.5" stroke-dasharray="1.496 0.996"/>
            </g>
          </g>
        </g>
      </g>
      <g id="그룹_461" data-name="그룹 461" transform="translate(514.427 710.635)" opacity="0.25">
        <g id="그룹_460" data-name="그룹 460">
          <g id="그룹_459" data-name="그룹 459" clip-path="url(#clip-path-2)">
            <g id="그룹_458" data-name="그룹 458" transform="translate(40.666 53.736)">
              <path id="패스_635" data-name="패스 635" d="M0,0H2064.387" fill="none" stroke="#2b1015" stroke-miterlimit="10" stroke-width="0.5" stroke-dasharray="1.496 0.996"/>
            </g>
          </g>
        </g>
      </g>
      <g id="그룹_465" data-name="그룹 465" transform="translate(520.248 740.269)" opacity="0.25">
        <g id="그룹_464" data-name="그룹 464">
          <g id="그룹_463" data-name="그룹 463" clip-path="url(#clip-path-2)">
            <g id="그룹_462" data-name="그룹 462" transform="translate(40.666 53.738)">
              <path id="패스_636" data-name="패스 636" d="M0,0H2064.387" fill="none" stroke="#2b1015" stroke-miterlimit="10" stroke-width="0.5" stroke-dasharray="1.496 0.996"/>
            </g>
          </g>
        </g>
      </g>
      <g id="그룹_469" data-name="그룹 469" transform="translate(520.248 858.812)" opacity="0.25">
        <g id="그룹_468" data-name="그룹 468">
          <g id="그룹_467" data-name="그룹 467" clip-path="url(#clip-path-2)">
            <g id="그룹_466" data-name="그룹 466" transform="translate(40.666 53.737)">
              <path id="패스_637" data-name="패스 637" d="M0,0H2064.387" fill="none" stroke="#2b1015" stroke-miterlimit="10" stroke-width="0.5" stroke-dasharray="1.496 0.996"/>
            </g>
          </g>
        </g>
      </g>
      <g id="그룹_473" data-name="그룹 473" transform="translate(679.932 515.605)" opacity="0.25">
        <g id="그룹_472" data-name="그룹 472">
          <g id="그룹_471" data-name="그룹 471" clip-path="url(#clip-path-6)">
            <g id="그룹_470" data-name="그룹 470" transform="translate(53.737 40.668)">
              <path id="패스_638" data-name="패스 638" d="M0,0V1034.335" fill="none" stroke="#2b1015" stroke-miterlimit="10" stroke-width="0.5" stroke-dasharray="1.493 0.993"/>
            </g>
          </g>
        </g>
      </g>
      <g id="그룹_477" data-name="그룹 477" transform="translate(1092.575 523.198)" opacity="0.25">
        <g id="그룹_476" data-name="그룹 476">
          <g id="그룹_475" data-name="그룹 475" clip-path="url(#clip-path-7)">
            <g id="그룹_474" data-name="그룹 474" transform="translate(53.736 40.666)">
              <path id="패스_639" data-name="패스 639" d="M0,0V1034.335" fill="none" stroke="#2b1015" stroke-miterlimit="10" stroke-width="0.5" stroke-dasharray="1.493 0.993"/>
            </g>
          </g>
        </g>
      </g>
      <g id="그룹_481" data-name="그룹 481" transform="translate(1380.935 193.816)" opacity="0.25">
        <g id="그룹_480" data-name="그룹 480">
          <g id="그룹_479" data-name="그룹 479" clip-path="url(#clip-path-8)">
            <g id="그룹_478" data-name="그룹 478" transform="translate(53.738 40.665)">
              <path id="패스_640" data-name="패스 640" d="M0,0V321.794" fill="none" stroke="#2b1015" stroke-miterlimit="10" stroke-width="0.5" stroke-dasharray="1.475 0.975"/>
            </g>
          </g>
        </g>
      </g>
      <g id="그룹_485" data-name="그룹 485" transform="translate(1671.788 201.404)" opacity="0.25">
        <g id="그룹_484" data-name="그룹 484">
          <g id="그룹_483" data-name="그룹 483" clip-path="url(#clip-path-8)">
            <g id="그룹_482" data-name="그룹 482" transform="translate(53.739 40.668)">
              <path id="패스_641" data-name="패스 641" d="M0,0V321.794" fill="none" stroke="#2b1015" stroke-miterlimit="10" stroke-width="0.5" stroke-dasharray="1.475 0.975"/>
            </g>
          </g>
        </g>
      </g>
      <g id="그룹_489" data-name="그룹 489" transform="translate(803.93 523.198)" opacity="0.25">
        <g id="그룹_488" data-name="그룹 488">
          <g id="그룹_487" data-name="그룹 487" clip-path="url(#clip-path-7)">
            <g id="그룹_486" data-name="그룹 486" transform="translate(53.736 40.666)">
              <path id="패스_642" data-name="패스 642" d="M0,0V1034.335" fill="none" stroke="#2b1015" stroke-miterlimit="10" stroke-width="0.5" stroke-dasharray="1.493 0.993"/>
            </g>
          </g>
        </g>
      </g>
      <g id="그룹_493" data-name="그룹 493" transform="translate(2230.766 515.605)" opacity="0.25">
        <g id="그룹_492" data-name="그룹 492">
          <g id="그룹_491" data-name="그룹 491" clip-path="url(#clip-path-6)">
            <g id="그룹_490" data-name="그룹 490" transform="translate(53.736 40.668)">
              <path id="패스_643" data-name="패스 643" d="M0,0V1034.335" fill="none" stroke="#2b1015" stroke-miterlimit="10" stroke-width="0.5" stroke-dasharray="1.493 0.993"/>
            </g>
          </g>
        </g>
      </g>
      <g id="그룹_497" data-name="그룹 497" transform="translate(2429.549 523.198)" opacity="0.25">
        <g id="그룹_496" data-name="그룹 496">
          <g id="그룹_495" data-name="그룹 495" clip-path="url(#clip-path-7)">
            <g id="그룹_494" data-name="그룹 494" transform="translate(53.738 40.666)">
              <path id="패스_644" data-name="패스 644" d="M0,0V1034.335" fill="none" stroke="#2b1015" stroke-miterlimit="10" stroke-width="0.5" stroke-dasharray="1.493 0.993"/>
            </g>
          </g>
        </g>
      </g>
    </g>
    <g id="그룹_499" data-name="그룹 499" transform="translate(1439.106 -168.767)">
      <path id="패스_646" data-name="패스 646" d="M0,0V51.856" fill="none" stroke="#787a7e" stroke-width="0.5"/>
    </g>
    <g id="그룹_500" data-name="그룹 500" transform="translate(1718.487 -168.767)">
      <path id="패스_647" data-name="패스 647" d="M0,0V51.856" fill="none" stroke="#787a7e" stroke-width="0.5"/>
    </g>
    <g id="그룹_501" data-name="그룹 501" transform="translate(1433.221 -167.779)">
      <path id="패스_648" data-name="패스 648" d="M0,0H293.757" fill="none" stroke="#787a7e" stroke-width="0.5"/>
    </g>
    <g id="그룹_502" data-name="그룹 502" transform="translate(492.167 457.273)">
      <path id="패스_649" data-name="패스 649" d="M0,0H29.994" fill="none" stroke="#787a7e" stroke-width="0.5"/>
    </g>
    <g id="그룹_503" data-name="그룹 503" transform="translate(492.167 373.034)">
      <path id="패스_650" data-name="패스 650" d="M0,0H29.994" fill="none" stroke="#787a7e" stroke-width="0.5"/>
    </g>
    <g id="그룹_504" data-name="그룹 504" transform="translate(493.35 371.58)">
      <path id="패스_651" data-name="패스 651" d="M0,72.4V-15.054" transform="translate(0 15.054)" fill="none" stroke="#787a7e" stroke-width="0.5"/>
    </g>
    <g id="그룹_505" data-name="그룹 505" transform="translate(492.167 609.694)">
      <path id="패스_652" data-name="패스 652" d="M0,0H29.994" fill="none" stroke="#787a7e" stroke-width="0.5"/>
    </g>
    <g id="그룹_506" data-name="그룹 506" transform="translate(492.167 494.479)">
      <path id="패스_653" data-name="패스 653" d="M0,0H29.994" fill="none" stroke="#787a7e" stroke-width="0.5"/>
    </g>
    <g id="그룹_507" data-name="그룹 507" transform="translate(493.35 493.026)">
      <path id="패스_654" data-name="패스 654" d="M0,98.138V-20.405" transform="translate(0 20.405)" fill="none" stroke="#787a7e" stroke-width="0.5"/>
    </g>
    <g id="그룹-3" data-name="그룹" transform="translate(368.972 -262.87)">
      <text id="_30" data-name="30" transform="translate(1181.722 58)" fill="#2b2e34" font-size="68" font-family="NanumSquareB, NanumSquare"><tspan x="0" y="0">30</tspan></text>
      <text id="_20" data-name="20" transform="translate(0 701.181)" fill="#2b2e34" font-size="68" font-family="NanumSquareB, NanumSquare"><tspan x="0" y="0">20</tspan></text>
      <text id="_25" data-name="25" transform="translate(0 834.544)" fill="#2b2e34" font-size="68" font-family="NanumSquareB, NanumSquare"><tspan x="0" y="0">25</tspan></text>
      <text id="_20-2" data-name="20" transform="translate(363.279 1659.748)" fill="#2b2e34" font-size="68" font-family="NanumSquareB, NanumSquare"><tspan x="0" y="0">20</tspan></text>
      <text id="_35" data-name="35" transform="translate(1968.304 1631.514)" fill="#2b2e34" font-size="68" font-family="NanumSquareB, NanumSquare"><tspan x="0" y="0">35</tspan></text>
      <text id="_50" data-name="50" transform="translate(593.824 1659.748)" fill="#2b2e34" font-size="68" font-family="NanumSquareB, NanumSquare"><tspan x="0" y="0">50</tspan></text>
    </g>
    <g id="그룹_510" data-name="그룹 510" transform="translate(0 -302.432)" clip-path="url(#clip-path)">
      <g id="그룹_508" data-name="그룹 508" transform="translate(605.253 314.351)">
        <path id="패스_655" data-name="패스 655" d="M0,206.568,119.873,12.978S155.392-42.95,204.227-42.95h843.551V206.568H0Z" transform="translate(0 42.95)" fill="#253683"/>
      </g>
      <g id="그룹_509" data-name="그룹 509" transform="translate(1603.062 314.346)">
        <path id="패스_656" data-name="패스 656" d="M841.4,206.573,725.125,12.977S690.675-42.951,643.3-42.951H-174.946V206.573H841.4Z" transform="translate(174.946 42.951)" fill="#253683"/>
      </g>
    </g>
    <g id="그룹_511" data-name="그룹 511" transform="translate(1692.081 129.29)">
      <path id="패스_658" data-name="패스 658" d="M0,23.158H9.859V-4.815H23.587V23.158h9.859v11.52H0Z" transform="translate(0 4.815)" fill="#fff"/>
    </g>
    <g id="그룹_516" data-name="그룹 516" transform="translate(0 -302.432)" clip-path="url(#clip-path)">
      <g id="그룹_512" data-name="그룹 512" transform="translate(1641.174 431.003)">
        <path id="패스_659" data-name="패스 659" d="M0,16.944a18,18,0,0,1,1.354-6.855,19.935,19.935,0,0,1,4-6.146,22.557,22.557,0,0,1,8.18-5.554A27.7,27.7,0,0,1,23.906-3.523,27.69,27.69,0,0,1,31.9-2.361a24.365,24.365,0,0,1,7.088,3.433,20.951,20.951,0,0,1,6.478,7.076,17.976,17.976,0,0,1,2.283,8.8q0,8.409-7.024,14.437a23.94,23.94,0,0,1-7.732,4.479,26.582,26.582,0,0,1-9.086,1.609,26.909,26.909,0,0,1-9.15-1.528,24.593,24.593,0,0,1-7.8-4.56Q0,25.3,0,16.944m13.466-.029A8.137,8.137,0,0,0,16.5,23.23a10.744,10.744,0,0,0,7.343,2.661,10.927,10.927,0,0,0,7.378-2.632,8.1,8.1,0,0,0,.035-12.653A10.981,10.981,0,0,0,23.842,8a10.914,10.914,0,0,0-7.378,2.579,8.034,8.034,0,0,0-3,6.338" transform="translate(0 3.523)" fill="#fff"/>
      </g>
      <g id="그룹_513" data-name="그룹 513" transform="translate(1599.866 431.724)">
        <path id="패스_660" data-name="패스 660" d="M0,0H14.437l6.251,12.409V22.82H19.206a5.378,5.378,0,0,0-2.841.581,2.415,2.415,0,0,0-.9,2.19,2.2,2.2,0,0,0,.9,2.074,5.821,5.821,0,0,0,2.841.529h3.608V0H36.542V39.493H19.717a38.441,38.441,0,0,1-5.926-.331,16.861,16.861,0,0,1-6-2.382Q1.548,32.789,1.545,26.143q0-5.873,6.449-10.19Z" fill="#fff"/>
      </g>
      <g id="그룹_514" data-name="그룹 514" transform="translate(1551.086 431.003)">
        <path id="패스_661" data-name="패스 661" d="M0,16.944a18,18,0,0,1,1.354-6.855,20.041,20.041,0,0,1,4-6.146,22.557,22.557,0,0,1,8.18-5.554A27.7,27.7,0,0,1,23.906-3.523,27.69,27.69,0,0,1,31.9-2.361a24.365,24.365,0,0,1,7.088,3.433,20.951,20.951,0,0,1,6.478,7.076,17.976,17.976,0,0,1,2.283,8.8q0,8.409-7.024,14.437a23.94,23.94,0,0,1-7.732,4.479,26.582,26.582,0,0,1-9.086,1.609,26.933,26.933,0,0,1-9.15-1.528,24.593,24.593,0,0,1-7.8-4.56Q0,25.3,0,16.944m13.466-.029A8.137,8.137,0,0,0,16.5,23.23a10.755,10.755,0,0,0,7.343,2.661,10.927,10.927,0,0,0,7.378-2.632,8.1,8.1,0,0,0,.035-12.653A10.981,10.981,0,0,0,23.842,8a10.925,10.925,0,0,0-7.378,2.579,8.034,8.034,0,0,0-3,6.338" transform="translate(0 3.523)" fill="#fff"/>
      </g>
      <g id="그룹_515" data-name="그룹 515" transform="translate(1513.194 431.724)">
        <path id="패스_662" data-name="패스 662" d="M0,0H13.472V23.871q0,4.322,2.9,4.322a2.212,2.212,0,0,0,2.19-1.028,7.784,7.784,0,0,0,.511-3.294V19.717H15.535V9.249h3.538V0H33.126V21.048q0,3.1-.1,4.572a16.117,16.117,0,0,1-.738,3.567,14.862,14.862,0,0,1-5.74,8.2,16.976,16.976,0,0,1-9.987,2.882Q8,40.266,3.352,34.171a15.789,15.789,0,0,1-2.771-6.2A33.908,33.908,0,0,1,0,21.048Z" fill="#fff"/>
      </g>
    </g>
    <g id="그룹_517" data-name="그룹 517" transform="translate(1477.301 129.29)">
      <path id="패스_664" data-name="패스 664" d="M0,23.158H9.859V-4.815H23.587V23.158h9.859v11.52H0Z" transform="translate(0 4.815)" fill="#fff"/>
    </g>
    <g id="그룹_518" data-name="그룹 518" transform="translate(1436.125 129.292)">
      <path id="패스_665" data-name="패스 665" d="M0,32.695,13.275,14.749V-6.8H27V14.749L40.277,32.695H26.549l-6.443-7.808-6.385,7.808Z" transform="translate(0 6.798)" fill="#fff"/>
    </g>
    <g id="그룹_522" data-name="그룹 522" transform="translate(0 -302.432)" clip-path="url(#clip-path)">
      <g id="그룹_519" data-name="그룹 519" transform="translate(739.246 746.733)">
        <path id="패스_666" data-name="패스 666" d="M17.954,5.733h0C13.87-3.179-3.733-.942-3.733-.942s9.353,15.8,15.674,15.721v-.006a6.244,6.244,0,0,0,6.443-7.8,6.621,6.621,0,0,0-.43-1.237" transform="translate(3.733 1.192)" fill="#333882"/>
      </g>
      <g id="그룹_520" data-name="그룹 520" transform="translate(802.532 746.736)">
        <path id="패스_667" data-name="패스 667" d="M.5,5.729h0A6.621,6.621,0,0,0,.07,6.967a6.341,6.341,0,0,0,4.648,7.657,6.289,6.289,0,0,0,1.8.145v.006C12.834,14.85,22.187-.94,22.187-.94S4.584-3.182.5,5.729" transform="translate(0.104 1.191)" fill="#333882"/>
      </g>
      <g id="그룹_521" data-name="그룹 521" transform="translate(732.219 676.641)">
        <path id="패스_668" data-name="패스 668" d="M83.3,39.755s0-30.384-10.451-48.021A164.875,164.875,0,0,0,44.419,15.907l-11.433-.325-11.433.325A164.971,164.971,0,0,0-6.868-8.266C-17.319,9.372-17.319,39.755-17.319,39.755c42.467,13.066,41.16,41.16,41.16,41.16H42.135S40.828,52.821,83.3,39.755" transform="translate(17.319 8.266)" fill="#333882"/>
      </g>
    </g>
    <g id="그룹_523" data-name="그룹 523" transform="translate(850.707 385.482)">
      <path id="패스_670" data-name="패스 670" d="M28.419,11.394H18.3V44.8H4.211v-33.4H-5.909V-2.369H28.419Z" transform="translate(5.909 2.369)" fill="#231614"/>
    </g>
    <g id="그룹_528" data-name="그룹 528" transform="translate(0 -302.432)" clip-path="url(#clip-path)">
      <g id="그룹_524" data-name="그룹 524" transform="translate(888.274 686.989)">
        <path id="패스_671" data-name="패스 671" d="M40.578,20.291a24.538,24.538,0,0,1-5.49,15.523,23.319,23.319,0,0,1-8.4,6.64,24.971,24.971,0,0,1-10.649,2.277,24.7,24.7,0,0,1-8.2-1.388,23.834,23.834,0,0,1-7.279-4.1A24.3,24.3,0,0,1-8.437,20.291,23.517,23.517,0,0,1-1.227,3.049,24.062,24.062,0,0,1,6.714-2.3a23.836,23.836,0,0,1,9.324-1.917A24.278,24.278,0,0,1,25.432-2.4a24.661,24.661,0,0,1,8,5.449,23.756,23.756,0,0,1,7.146,17.243m-13.821.035a10.4,10.4,0,0,0-3.114-7.541A10.148,10.148,0,0,0,16.1,9.608a10.327,10.327,0,0,0-7.57,3.143A10.317,10.317,0,0,0,5.39,20.326,10.247,10.247,0,0,0,8.5,27.861a10.344,10.344,0,0,0,7.6,3.114A10.516,10.516,0,0,0,26.757,20.326" transform="translate(8.437 4.219)" fill="#231614"/>
      </g>
      <g id="그룹_525" data-name="그룹 525" transform="translate(942.183 687.918)">
        <path id="패스_672" data-name="패스 672" d="M31.05,39.044H16.236L9.816,24.229V11.791h1.522a4.915,4.915,0,0,0,2.911-.691,3.107,3.107,0,0,0,.924-2.614A2.81,2.81,0,0,0,14.249,6a5.288,5.288,0,0,0-2.911-.633H7.632V39.044H-6.456V-8.118H10.81a34.186,34.186,0,0,1,6.083.4,15.816,15.816,0,0,1,6.152,2.847,15.032,15.032,0,0,1,6.414,12.7q0,7.006-6.611,12.171Z" transform="translate(6.456 8.118)" fill="#231614"/>
      </g>
      <g id="그룹_526" data-name="그룹 526" transform="translate(980.745 686.989)">
        <path id="패스_673" data-name="패스 673" d="M40.578,20.291a24.538,24.538,0,0,1-5.49,15.523,23.319,23.319,0,0,1-8.4,6.64,24.971,24.971,0,0,1-10.649,2.277,24.725,24.725,0,0,1-8.2-1.388,23.834,23.834,0,0,1-7.279-4.1A24.3,24.3,0,0,1-8.437,20.291,23.517,23.517,0,0,1-1.227,3.049,24.062,24.062,0,0,1,6.714-2.3a23.836,23.836,0,0,1,9.324-1.917A24.278,24.278,0,0,1,25.432-2.4a24.661,24.661,0,0,1,8,5.449,23.756,23.756,0,0,1,7.146,17.243m-13.821.035a10.4,10.4,0,0,0-3.114-7.541A10.148,10.148,0,0,0,16.1,9.608a10.327,10.327,0,0,0-7.57,3.143A10.317,10.317,0,0,0,5.39,20.326,10.247,10.247,0,0,0,8.5,27.861a10.344,10.344,0,0,0,7.6,3.114A10.516,10.516,0,0,0,26.757,20.326" transform="translate(8.437 4.219)" fill="#231614"/>
      </g>
      <g id="그룹_527" data-name="그룹 527" transform="translate(1034.652 686.989)">
        <path id="패스_674" data-name="패스 674" d="M28.15,39.813H14.323V11.306q0-5.159-2.974-5.165A2.188,2.188,0,0,0,9.1,7.367a10.668,10.668,0,0,0-.529,3.939v4.961h3.637v12.5H8.572v11.05H-5.853V14.681q0-3.712.1-5.461a21.88,21.88,0,0,1,.755-4.264A17.987,17.987,0,0,1,.9-4.833,15.725,15.725,0,0,1,11.151-8.278,15.281,15.281,0,0,1,24.711-1a20.442,20.442,0,0,1,2.841,7.407,46.741,46.741,0,0,1,.6,8.273Z" transform="translate(5.853 8.278)" fill="#231614"/>
      </g>
    </g>
    <g id="그룹_529" data-name="그룹 529" transform="translate(1071.17 385.482)">
      <path id="패스_676" data-name="패스 676" d="M28.419,11.394H18.3V44.8H4.211v-33.4H-5.909V-2.369H28.419Z" transform="translate(5.909 2.369)" fill="#231614"/>
    </g>
    <g id="그룹_530" data-name="그룹 530" transform="translate(1106.423 385.485)">
      <path id="패스_677" data-name="패스 677" d="M34.224,0,20.6,21.431v25.73H6.507V21.431L-7.116,0H6.972l6.617,9.324L20.136,0Z" transform="translate(7.116)" fill="#231614"/>
    </g>
    <g id="그룹_531" data-name="그룹 531" transform="translate(895.807 443.792)">
      <path id="패스_678" data-name="패스 678" d="M7.892,9.436h-7L-.572,13.77H-1.641l5.4-15.732h1.29l5.4,15.732H9.385ZM1.206,8.571h6.4L4.4-.812Z" transform="translate(1.641 1.962)" fill="#231614"/>
    </g>
    <g id="그룹_536" data-name="그룹 536" transform="translate(0 -302.432)" clip-path="url(#clip-path)">
      <g id="그룹_532" data-name="그룹 532" transform="translate(909.921 750.424)">
        <path id="패스_679" data-name="패스 679" d="M6.786,3.2A3.351,3.351,0,0,0,6.112.991,2.476,2.476,0,0,0,4.1.177,3.753,3.753,0,0,0,2.778.421a5.047,5.047,0,0,0-1.243.668,6.246,6.246,0,0,0-1.092.988A5.949,5.949,0,0,0-.389,3.268v7.6H-1.411V-.421H-.389v2.44A6.181,6.181,0,0,1,1.767-.055a5.022,5.022,0,0,1,2.376-.61,4.1,4.1,0,0,1,1.58.285,3.328,3.328,0,0,1,1.15.79,3.271,3.271,0,0,1,.7,1.191,4.561,4.561,0,0,1,.232,1.487v7.779H6.786Z" transform="translate(1.411 0.665)" fill="#231614"/>
      </g>
      <g id="그룹_533" data-name="그룹 533" transform="translate(922.206 746.42)">
        <path id="패스_680" data-name="패스 680" d="M.736,1.621a.815.815,0,0,1-.645-.279,1.02,1.02,0,0,1-.244-.7A1.006,1.006,0,0,1,.1-.058a.872.872,0,0,1,.68-.279.855.855,0,0,1,.668.279,1.054,1.054,0,0,1,.244.7.98.98,0,0,1-.261.7.893.893,0,0,1-.7.279M.248,3.91H1.317V15.2H.248Z" transform="translate(0.153 0.337)" fill="#231614"/>
      </g>
      <g id="그룹_534" data-name="그룹 534" transform="translate(927.163 750.42)">
        <path id="패스_681" data-name="패스 681" d="M5.776,2.982a3.5,3.5,0,0,0-.5-2.074A2.055,2.055,0,0,0,3.511.228,2.72,2.72,0,0,0,2.418.472a4.545,4.545,0,0,0-1.04.645,5.546,5.546,0,0,0-.889.918A6.8,6.8,0,0,0-.179,3.092v7.825H-1.2V-.376H-.179V1.849A5.68,5.68,0,0,1,1.6-.016a3.7,3.7,0,0,1,1.958-.6A3.375,3.375,0,0,1,5.6-.074,2.789,2.789,0,0,1,6.619,1.471,4.181,4.181,0,0,1,10.244-.62a3.926,3.926,0,0,1,1.545.279A3.035,3.035,0,0,1,12.864.4a2.914,2.914,0,0,1,.622,1.1,4.482,4.482,0,0,1,.2,1.365v8.046H12.666V2.982a3.238,3.238,0,0,0-.569-2A2.218,2.218,0,0,0,10.2.228,3.206,3.206,0,0,0,8.21.873a6,6,0,0,0-1.435,1.51.985.985,0,0,1,.023.232v8.3H5.776Z" transform="translate(1.201 0.62)" fill="#231614"/>
      </g>
      <g id="그룹_535" data-name="그룹 535" transform="translate(944.142 750.423)">
        <path id="패스_682" data-name="패스 682" d="M6.161,9.547V7.3A6.407,6.407,0,0,1,4.319,9.169a4.73,4.73,0,0,1-2.579.668A3.059,3.059,0,0,1,.375,9.558a2.794,2.794,0,0,1-.935-.726,3.071,3.071,0,0,1-.546-1.005,3.749,3.749,0,0,1-.174-1.133A3.389,3.389,0,0,1-.752,4.789a4.226,4.226,0,0,1,1.5-1.359,7.623,7.623,0,0,1,2.33-.813A15.728,15.728,0,0,1,6.12,2.349V1.995A4.91,4.91,0,0,0,6,1.024,2.552,2.552,0,0,0,5.551,0,2.692,2.692,0,0,0,4.534-.811a4.054,4.054,0,0,0-1.784-.331,4.616,4.616,0,0,0-1.516.256,6,6,0,0,0-1.383.68L-.415-.945A6.82,6.82,0,0,1,1.176-1.7a6.093,6.093,0,0,1,1.906-.285,4.588,4.588,0,0,1,2.051.4A3.379,3.379,0,0,1,6.4-.544,3.8,3.8,0,0,1,7.05.914a7.764,7.764,0,0,1,.18,1.632v7Zm0-6.443a19,19,0,0,0-2.051.122,8.331,8.331,0,0,0-2.074.488A4.272,4.272,0,0,0,.433,4.76,2.456,2.456,0,0,0-.218,6.549,2.684,2.684,0,0,0,.421,8.49a2.158,2.158,0,0,0,1.638.656,3.332,3.332,0,0,0,1.47-.354A5.043,5.043,0,0,0,5.795,6.6a2.919,2.919,0,0,0,.366-1.365Z" transform="translate(1.281 1.985)" fill="#231614"/>
      </g>
    </g>
    <path id="패스_684" data-name="패스 684" d="M164.613-157.7h1.069v-16.4h-1.069Z" transform="translate(791.706 617.222)" fill="#231614"/>
    <g id="그룹_549" data-name="그룹 549" transform="translate(0 -302.432)" clip-path="url(#clip-path)">
      <g id="그룹_537" data-name="그룹 537" transform="translate(967.448 746.221)">
        <path id="패스_685" data-name="패스 685" d="M3.9,0A4.585,4.585,0,0,1,7.346,1.191,4.609,4.609,0,0,1,8.5,4.537,4.981,4.981,0,0,1,7.322,7.924,4.43,4.43,0,0,1,3.9,9.156H.3v6.576H-.811V0ZM3.767,8.313a3.817,3.817,0,0,0,2.62-.9A3.584,3.584,0,0,0,7.415,4.578,3.59,3.59,0,0,0,6.387,1.754,3.8,3.8,0,0,0,3.767.842H.3V8.313Z" transform="translate(0.811)" fill="#231614"/>
      </g>
      <g id="그룹_538" data-name="그룹 538" transform="translate(979.182 750.429)">
        <path id="패스_686" data-name="패스 686" d="M1.986.693A3.562,3.562,0,0,1,4.055-.132a3.138,3.138,0,0,1,.976.07V.716a3.347,3.347,0,0,0-.686-.07A3.08,3.08,0,0,0,2.951.983a4.083,4.083,0,0,0-1.185.877A4.3,4.3,0,0,0,.941,3.127,3.873,3.873,0,0,0,.633,4.649v6.733H-.413V.095H.633v2.44A5.05,5.05,0,0,1,1.986.693" transform="translate(0.413 0.144)" fill="#231614"/>
      </g>
      <g id="그룹_539" data-name="그룹 539" transform="translate(985.448 750.422)">
        <path id="패스_687" data-name="패스 687" d="M4.434,0a5.077,5.077,0,0,1,2.1.424A4.916,4.916,0,0,1,8.17,1.609,5.5,5.5,0,0,1,9.233,3.445,7.062,7.062,0,0,1,9.611,5.8a6.932,6.932,0,0,1-.476,2.713,5.491,5.491,0,0,1-1.243,1.865,4.823,4.823,0,0,1-1.737,1.081,5.625,5.625,0,0,1-1.923.343,5.064,5.064,0,0,1-2.022-.4A4.9,4.9,0,0,1,.577,10.26a5.443,5.443,0,0,1-1.1-1.824A6.945,6.945,0,0,1-.922,6,7.017,7.017,0,0,1-.5,3.468,5.516,5.516,0,0,1,.647,1.592,4.8,4.8,0,0,1,2.343.412,5.372,5.372,0,0,1,4.434,0M4.388.842a3.977,3.977,0,0,0-1.865.424A3.88,3.88,0,0,0,1.2,2.388,4.918,4.918,0,0,0,.414,4,6.807,6.807,0,0,0,.141,5.926a6.325,6.325,0,0,0,.325,2.08,4.964,4.964,0,0,0,.877,1.586A3.876,3.876,0,0,0,2.668,10.6a4.006,4.006,0,0,0,1.679.354A3.91,3.91,0,0,0,5.98,10.6,3.953,3.953,0,0,0,7.31,9.591a4.895,4.895,0,0,0,.9-1.6,6.332,6.332,0,0,0,.337-2.115A6.878,6.878,0,0,0,8.3,4.072a5.174,5.174,0,0,0-.749-1.621,3.951,3.951,0,0,0-1.3-1.162A3.692,3.692,0,0,0,4.388.842" transform="translate(0.922)" fill="#231614"/>
      </g>
      <g id="그룹_540" data-name="그룹 540" transform="translate(997.244 747.912)">
        <path id="패스_688" data-name="패스 688" d="M2.578,2.28H5.419v.8H2.578V9.838a9.084,9.084,0,0,0,.087,1.388,3.639,3.639,0,0,0,.244.895,1.254,1.254,0,0,0,.389.534,1.669,1.669,0,0,0,.5.267A2.491,2.491,0,0,0,4.7,13a5.872,5.872,0,0,0,.924-.122l.11.773c-.238.046-.488.087-.744.128a5.592,5.592,0,0,1-.744.052,3.014,3.014,0,0,1-1.069-.18,2.043,2.043,0,0,1-.866-.61,2.926,2.926,0,0,1-.587-1.174,6.847,6.847,0,0,1-.215-1.882V3.081H-.536v-.8H1.509V-.474H2.578Z" transform="translate(0.536 0.474)" fill="#231614"/>
      </g>
      <g id="그룹_541" data-name="그룹 541" transform="translate(1004.826 750.422)">
        <path id="패스_689" data-name="패스 689" d="M7.45,8.811a7.043,7.043,0,0,1-1.876.854,7.048,7.048,0,0,1-1.923.261,5.269,5.269,0,0,1-2.01-.383A4.719,4.719,0,0,1-.021,8.433,5.255,5.255,0,0,1-1.137,6.621a6.866,6.866,0,0,1-.412-2.5,8.236,8.236,0,0,1,.331-2.388A5.572,5.572,0,0,1-.253-.153,4.5,4.5,0,0,1,1.292-1.39a4.612,4.612,0,0,1,2.045-.442,4.615,4.615,0,0,1,2.155.465A4.1,4.1,0,0,1,6.95-.1a5.326,5.326,0,0,1,.819,1.882,9.124,9.124,0,0,1,.238,2.295H-.486A6.668,6.668,0,0,0-.137,6.359,4.252,4.252,0,0,0,.8,7.916,3.462,3.462,0,0,0,2.169,8.8a4.847,4.847,0,0,0,1.65.279A6.527,6.527,0,0,0,5.591,8.84,8.461,8.461,0,0,0,7.316,8.1Zm-.511-5.49a9.248,9.248,0,0,0-.215-1.493A4.235,4.235,0,0,0,6.16.44,3.11,3.11,0,0,0,5.08-.589a3.425,3.425,0,0,0-1.754-.4,3.224,3.224,0,0,0-1.76.453A3.64,3.64,0,0,0,.42.585a5.2,5.2,0,0,0-.651,1.4A6.854,6.854,0,0,0-.486,3.321Z" transform="translate(1.549 1.832)" fill="#231614"/>
      </g>
      <g id="그룹_542" data-name="그룹 542" transform="translate(1016.067 750.42)">
        <path id="패스_690" data-name="패스 690" d="M6.055,9.609a7.749,7.749,0,0,1-1.8.192,5.859,5.859,0,0,1-2.312-.43A4.949,4.949,0,0,1,.2,8.151,5.228,5.228,0,0,1-.887,6.281a7.286,7.286,0,0,1-.372-2.364A7.137,7.137,0,0,1-.876,1.534,5.176,5.176,0,0,1,.257-.342a5.087,5.087,0,0,1,1.83-1.22A6.587,6.587,0,0,1,4.568-2a7.269,7.269,0,0,1,1.412.139A4.933,4.933,0,0,1,7.3-1.4l-.18.784A5.319,5.319,0,0,0,5.968-1a6.708,6.708,0,0,0-1.4-.151A5.3,5.3,0,0,0,2.5-.784,4,4,0,0,0,1.013.244a4.285,4.285,0,0,0-.9,1.569,6.208,6.208,0,0,0-.3,1.993,6.611,6.611,0,0,0,.343,2.2,4.526,4.526,0,0,0,.97,1.615,4.031,4.031,0,0,0,1.51.993,5.484,5.484,0,0,0,1.975.343,6.12,6.12,0,0,0,1.458-.186,8.73,8.73,0,0,0,1.3-.436l.151.755a6.792,6.792,0,0,1-1.464.517" transform="translate(1.259 1.998)" fill="#231614"/>
      </g>
      <g id="그룹_543" data-name="그룹 543" transform="translate(1025.911 747.912)">
        <path id="패스_691" data-name="패스 691" d="M2.578,2.28H5.419v.8H2.578V9.838a9.084,9.084,0,0,0,.087,1.388,3.639,3.639,0,0,0,.244.895,1.254,1.254,0,0,0,.389.534,1.669,1.669,0,0,0,.5.267A2.491,2.491,0,0,0,4.7,13a5.872,5.872,0,0,0,.924-.122l.11.773c-.238.046-.488.087-.744.128a5.659,5.659,0,0,1-.744.052,3.014,3.014,0,0,1-1.069-.18,2.043,2.043,0,0,1-.866-.61,2.926,2.926,0,0,1-.587-1.174,6.847,6.847,0,0,1-.215-1.882V3.081H-.536v-.8H1.509V-.474H2.578Z" transform="translate(0.536 0.474)" fill="#231614"/>
      </g>
      <g id="그룹_544" data-name="그룹 544" transform="translate(1034.245 746.42)">
        <path id="패스_692" data-name="패스 692" d="M.736,1.621a.815.815,0,0,1-.645-.279,1.02,1.02,0,0,1-.244-.7A1.006,1.006,0,0,1,.1-.058a.872.872,0,0,1,.68-.279.855.855,0,0,1,.668.279,1.054,1.054,0,0,1,.244.7.98.98,0,0,1-.261.7.893.893,0,0,1-.7.279M.248,3.91H1.317V15.2H.248Z" transform="translate(0.153 0.337)" fill="#231614"/>
      </g>
      <g id="그룹_545" data-name="그룹 545" transform="translate(1038.468 750.422)">
        <path id="패스_693" data-name="패스 693" d="M4.434,0a5.077,5.077,0,0,1,2.1.424A4.916,4.916,0,0,1,8.17,1.609,5.5,5.5,0,0,1,9.233,3.445,7.062,7.062,0,0,1,9.611,5.8a6.932,6.932,0,0,1-.476,2.713,5.491,5.491,0,0,1-1.243,1.865,4.823,4.823,0,0,1-1.737,1.081,5.625,5.625,0,0,1-1.923.343,5.064,5.064,0,0,1-2.022-.4A4.9,4.9,0,0,1,.577,10.26a5.443,5.443,0,0,1-1.1-1.824A6.945,6.945,0,0,1-.922,6,7.017,7.017,0,0,1-.5,3.468,5.516,5.516,0,0,1,.647,1.592,4.8,4.8,0,0,1,2.343.412,5.372,5.372,0,0,1,4.434,0M4.388.842a3.977,3.977,0,0,0-1.865.424A3.88,3.88,0,0,0,1.2,2.388,4.918,4.918,0,0,0,.414,4,6.807,6.807,0,0,0,.141,5.926a6.325,6.325,0,0,0,.325,2.08,4.964,4.964,0,0,0,.877,1.586A3.876,3.876,0,0,0,2.668,10.6a4.006,4.006,0,0,0,1.679.354A3.91,3.91,0,0,0,5.98,10.6,3.953,3.953,0,0,0,7.31,9.591a4.895,4.895,0,0,0,.9-1.6,6.332,6.332,0,0,0,.337-2.115A6.878,6.878,0,0,0,8.3,4.072a5.174,5.174,0,0,0-.749-1.621,3.951,3.951,0,0,0-1.3-1.162A3.692,3.692,0,0,0,4.388.842" transform="translate(0.922)" fill="#231614"/>
      </g>
      <g id="그룹_546" data-name="그룹 546" transform="translate(1051.203 750.424)">
        <path id="패스_694" data-name="패스 694" d="M6.786,3.2A3.351,3.351,0,0,0,6.112.991,2.476,2.476,0,0,0,4.1.177,3.753,3.753,0,0,0,2.778.421a5.047,5.047,0,0,0-1.243.668,6.246,6.246,0,0,0-1.092.988A5.949,5.949,0,0,0-.389,3.268v7.6H-1.411V-.421H-.389v2.44A6.181,6.181,0,0,1,1.767-.055a5.022,5.022,0,0,1,2.376-.61,4.1,4.1,0,0,1,1.58.285,3.328,3.328,0,0,1,1.15.79,3.271,3.271,0,0,1,.7,1.191,4.561,4.561,0,0,1,.232,1.487v7.779H6.786Z" transform="translate(1.411 0.665)" fill="#231614"/>
      </g>
      <g id="그룹_547" data-name="그룹 547" transform="translate(1068.887 750.42)">
        <path id="패스_695" data-name="패스 695" d="M6.055,9.609a7.749,7.749,0,0,1-1.8.192,5.859,5.859,0,0,1-2.312-.43A4.949,4.949,0,0,1,.2,8.151,5.228,5.228,0,0,1-.887,6.281a7.286,7.286,0,0,1-.372-2.364A7.137,7.137,0,0,1-.876,1.534,5.176,5.176,0,0,1,.257-.342a5.087,5.087,0,0,1,1.83-1.22A6.577,6.577,0,0,1,4.562-2a7.283,7.283,0,0,1,1.418.139A4.933,4.933,0,0,1,7.3-1.4l-.18.784A5.319,5.319,0,0,0,5.968-1,6.721,6.721,0,0,0,4.562-1.15,5.291,5.291,0,0,0,2.5-.784,4,4,0,0,0,1.013.244a4.285,4.285,0,0,0-.9,1.569,6.208,6.208,0,0,0-.3,1.993,6.611,6.611,0,0,0,.343,2.2,4.526,4.526,0,0,0,.97,1.615,4.031,4.031,0,0,0,1.51.993,5.484,5.484,0,0,0,1.975.343,6.12,6.12,0,0,0,1.458-.186,8.73,8.73,0,0,0,1.3-.436l.151.755a6.792,6.792,0,0,1-1.464.517" transform="translate(1.259 1.998)" fill="#231614"/>
      </g>
      <g id="그룹_548" data-name="그룹 548" transform="translate(1078.932 750.422)">
        <path id="패스_696" data-name="패스 696" d="M4.434,0a5.077,5.077,0,0,1,2.1.424A4.858,4.858,0,0,1,8.17,1.609,5.5,5.5,0,0,1,9.233,3.445,7.062,7.062,0,0,1,9.611,5.8a6.932,6.932,0,0,1-.476,2.713,5.491,5.491,0,0,1-1.243,1.865,4.823,4.823,0,0,1-1.737,1.081,5.625,5.625,0,0,1-1.923.343,5.064,5.064,0,0,1-2.022-.4A4.9,4.9,0,0,1,.577,10.26a5.443,5.443,0,0,1-1.1-1.824A6.945,6.945,0,0,1-.922,6,7.017,7.017,0,0,1-.5,3.468,5.516,5.516,0,0,1,.647,1.592,4.8,4.8,0,0,1,2.343.412,5.372,5.372,0,0,1,4.434,0M4.388.842a3.977,3.977,0,0,0-1.865.424A3.88,3.88,0,0,0,1.2,2.388,4.918,4.918,0,0,0,.414,4,6.807,6.807,0,0,0,.141,5.926a6.325,6.325,0,0,0,.325,2.08,4.964,4.964,0,0,0,.877,1.586A3.876,3.876,0,0,0,2.668,10.6a4.006,4.006,0,0,0,1.679.354A3.91,3.91,0,0,0,5.98,10.6,3.953,3.953,0,0,0,7.31,9.591a4.895,4.895,0,0,0,.9-1.6,6.332,6.332,0,0,0,.337-2.115A6.878,6.878,0,0,0,8.3,4.072a5.174,5.174,0,0,0-.749-1.621,3.951,3.951,0,0,0-1.3-1.162A3.692,3.692,0,0,0,4.388.842" transform="translate(0.922)" fill="#231614"/>
      </g>
    </g>
    <path id="패스_698" data-name="패스 698" d="M187.914-169.875h1.65v-1.691h-1.65Z" transform="translate(903.772 629.4)" fill="#231614"/>
    <g id="그룹-4" data-name="그룹" transform="translate(2283.049 1001.556)">
      <text id="www.toroaty" transform="translate(0 18)" fill="#2b2e34" font-size="21" font-family="NanumSquareB, NanumSquare"><tspan x="0" y="0">www.toroaty</tspan></text>
      <text id="_.co.kr" data-name=".co.kr" transform="translate(137.685 18)" fill="#2b2e34" font-size="21" font-family="NanumSquareB, NanumSquare"><tspan x="0" y="0">.co.kr</tspan></text>
    </g>
  </g>
</svg>
